<svg xmlns="http://www.w3.org/2000/svg" xmlns:xlink="http://www.w3.org/1999/xlink" width="112" height="173" viewBox="0 0 112 173"><defs><style>.a{fill:none;}.b{fill:#121212;}.c,.h{fill:#c9c9c9;}.c{font-size:16px;font-family:PTSans-Regular, PT Sans;}.d{clip-path:url(#a);}.e{fill:#a617ff;}.f{clip-path:url(#c);}.g,.h{stroke:none;}</style><clipPath id="a"><rect class="a" width="16" height="16"/></clipPath><clipPath id="c"><rect class="a" width="24" height="24"/></clipPath></defs><g transform="translate(-77 -491)"><g class="b" transform="translate(77 491)"><path class="g" d="M 108.0701751708984 172.5 L 3.929826021194458 172.5 C 2.03860878944397 172.5 0.5 170.9604949951172 0.5 169.0681915283203 L 0.5 3.931826114654541 C 0.5 2.039499998092651 2.03860878944397 0.5 3.929826021194458 0.5 L 108.0701751708984 0.5 C 109.9613876342773 0.5 111.5 2.039499998092651 111.5 3.931826114654541 L 111.5 169.0681915283203 C 111.5 170.9604949951172 109.9613876342773 172.5 108.0701751708984 172.5 Z"/><path class="h" d="M 3.929817199707031 1 C 2.314315795898438 1 1 2.315200805664062 1 3.93182373046875 L 1 169.0681762695312 C 1 170.6847991943359 2.314315795898438 172 3.929817199707031 172 L 108.070182800293 172 C 109.6856842041016 172 111 170.6847991943359 111 169.0681762695312 L 111 3.93182373046875 C 111 2.315200805664062 109.6856842041016 1 108.070182800293 1 L 3.929817199707031 1 M 3.929817199707031 0 L 108.070182800293 0 C 110.2405471801758 0 112 1.76031494140625 112 3.93182373046875 L 112 169.0681762695312 C 112 171.2396545410156 110.2405471801758 173 108.070182800293 173 L 3.929817199707031 173 C 1.759429931640625 173 0 171.2396545410156 0 169.0681762695312 L 0 3.93182373046875 C 0 1.76031494140625 1.759429931640625 0 3.929817199707031 0 Z"/></g><text class="c" transform="translate(94 513)"><tspan x="-8.72" y="0">2</tspan></text><text class="c" transform="translate(172 643) rotate(180)"><tspan x="-8.72" y="0">2</tspan></text><g transform="translate(21 10)"><g class="d" transform="translate(73 489)"><path class="e" d="M99.667,341.333,93,334.667l4-4,2.667,2.667,2.667-2.667,4,4Z" transform="translate(-91.667 -328)"/><rect class="a" width="16" height="16"/></g><g class="d" transform="translate(151 647) rotate(180)"><path class="e" d="M99.667,341.333,93,334.667l4-4,2.667,2.667,2.667-2.667,4,4Z" transform="translate(-91.667 -328)"/><rect class="a" width="16" height="16"/></g></g><g transform="translate(-1 -1)"><g class="f" transform="translate(122 575)"><path class="e" d="M96,310,86,300l6-6,4,4,4-4,6,6Z" transform="translate(-84 -290)"/><rect class="a" width="24" height="24"/></g><g class="f" transform="translate(146 583) rotate(180)"><path class="e" d="M96,310,86,300l6-6,4,4,4-4,6,6Z" transform="translate(-84 -290)"/><rect class="a" width="24" height="24"/></g></g></g></svg>