<svg xmlns="http://www.w3.org/2000/svg" xmlns:xlink="http://www.w3.org/1999/xlink" width="112" height="173" viewBox="0 0 112 173"><defs><style>.a,.b{fill:none;}.b{stroke:#a617ff;}.c{fill:#121212;stroke:#c9c9c9;stroke-linejoin:bevel;}.d{fill:#c9c9c9;font-size:16px;font-family:PTSans-Regular, PT Sans;}.e{clip-path:url(#a);}.f{fill:#a617ff;}.g{clip-path:url(#c);}.h{clip-path:url(#d);}.i{stroke:none;}</style><clipPath id="a"><rect class="a" width="16" height="16"/></clipPath><clipPath id="c"><rect class="b" width="80" height="110" transform="translate(2022 3397)"/></clipPath><clipPath id="d"><rect class="a" width="24" height="24"/></clipPath></defs><g transform="translate(-1553 -701)"><g transform="translate(1361 639)"><g class="c" transform="translate(192 62)"><rect class="i" width="112" height="173" rx="4"/><rect class="a" x="0.5" y="0.5" width="111" height="172" rx="3.5"/></g><text class="d" transform="translate(209 84)"><tspan x="-9.76" y="0">K</tspan></text><text class="d" transform="translate(287 213) rotate(180)"><tspan x="-9.76" y="0">K</tspan></text></g><g class="e" transform="translate(1570 709)"><rect class="f" width="8.485" height="8.485" transform="translate(8 2) rotate(45)"/><rect class="a" width="16" height="16"/></g><g class="e" transform="translate(1632 850)"><rect class="f" width="8.485" height="8.485" transform="translate(8 2) rotate(45)"/><rect class="a" width="16" height="16"/></g><g class="g" transform="translate(-453 -2663)"><g transform="translate(-32 -95)"><g transform="translate(4034 6661) rotate(180)"><g class="h" transform="translate(2051 3292) rotate(180)"><rect class="f" width="12.728" height="12.728" transform="translate(12 3) rotate(45)"/><rect class="a" width="24" height="24"/></g><g class="h" transform="translate(2042 3301) rotate(180)"><rect class="f" width="12.728" height="12.728" transform="translate(12 3) rotate(45)"/><rect class="a" width="24" height="24"/></g><g class="h" transform="translate(2042 3278) rotate(180)"><rect class="f" width="12.728" height="12.728" transform="translate(12 3) rotate(45)"/><rect class="a" width="24" height="24"/></g><g class="h" transform="translate(2033 3292) rotate(180)"><rect class="f" width="12.728" height="12.728" transform="translate(12 3) rotate(45)"/><rect class="a" width="24" height="24"/></g><g class="h" transform="translate(2015 3292) rotate(180)"><rect class="f" width="12.728" height="12.728" transform="translate(12 3) rotate(45)"/><rect class="a" width="24" height="24"/></g><g class="h" transform="translate(2015 3236) rotate(180)"><rect class="f" width="12.728" height="12.728" transform="translate(12 3) rotate(45)"/><rect class="a" width="24" height="24"/></g></g><g transform="translate(-26 157)"><g class="h" transform="translate(2051 3292) rotate(180)"><rect class="f" width="12.728" height="12.728" transform="translate(12 3) rotate(45)"/><rect class="a" width="24" height="24"/></g><g class="h" transform="translate(2042 3301) rotate(180)"><rect class="f" width="12.728" height="12.728" transform="translate(12 3) rotate(45)"/><rect class="a" width="24" height="24"/></g><g class="h" transform="translate(2042 3278) rotate(180)"><rect class="f" width="12.728" height="12.728" transform="translate(12 3) rotate(45)"/><rect class="a" width="24" height="24"/></g><g class="h" transform="translate(2033 3292) rotate(180)"><rect class="f" width="12.728" height="12.728" transform="translate(12 3) rotate(45)"/><rect class="a" width="24" height="24"/></g></g><g transform="translate(-95 34)"><g class="h" transform="translate(2102 3387) rotate(180)"><rect class="f" width="12.728" height="12.728" transform="translate(12 3) rotate(45)"/><rect class="a" width="24" height="24"/></g><g class="h" transform="translate(2129 3396) rotate(180)"><rect class="f" width="12.728" height="12.728" transform="translate(12 3) rotate(45)"/><rect class="a" width="24" height="24"/></g><g class="h" transform="translate(2120 3387) rotate(180)"><rect class="f" width="12.728" height="12.728" transform="translate(12 3) rotate(45)"/><rect class="a" width="24" height="24"/></g><g class="h" transform="translate(2105 3354)"><rect class="f" width="12.728" height="12.728" transform="translate(12 3) rotate(45)"/><rect class="a" width="24" height="24"/></g><g class="h" transform="translate(2069 3354)"><rect class="f" width="12.728" height="12.728" transform="translate(12 3) rotate(45)"/><rect class="a" width="24" height="24"/></g><g class="h" transform="translate(2069 3409)"><rect class="f" width="12.728" height="12.728" transform="translate(12 3) rotate(45)"/><rect class="a" width="24" height="24"/></g><g class="h" transform="translate(2069 3372)"><rect class="f" width="12.728" height="12.728" transform="translate(12 3) rotate(45)"/><rect class="a" width="24" height="24"/></g></g><g transform="translate(36)"><g transform="translate(4034 6661) rotate(180)"><g class="h" transform="translate(2051 3292) rotate(180)"><rect class="f" width="12.728" height="12.728" transform="translate(12 3) rotate(45)"/><rect class="a" width="24" height="24"/></g><g class="h" transform="translate(2042 3301) rotate(180)"><rect class="f" width="12.728" height="12.728" transform="translate(12 3) rotate(45)"/><rect class="a" width="24" height="24"/></g><g class="h" transform="translate(2042 3278) rotate(180)"><rect class="f" width="12.728" height="12.728" transform="translate(12 3) rotate(45)"/><rect class="a" width="24" height="24"/></g><g class="h" transform="translate(2033 3292) rotate(180)"><rect class="f" width="12.728" height="12.728" transform="translate(12 3) rotate(45)"/><rect class="a" width="24" height="24"/></g><g class="h" transform="translate(2015 3292) rotate(180)"><rect class="f" width="12.728" height="12.728" transform="translate(12 3) rotate(45)"/><rect class="a" width="24" height="24"/></g><g class="h" transform="translate(2015 3236) rotate(180)"><rect class="f" width="12.728" height="12.728" transform="translate(12 3) rotate(45)"/><rect class="a" width="24" height="24"/></g></g><g transform="translate(-26 157)"><g class="h" transform="translate(2051 3292) rotate(180)"><rect class="f" width="12.728" height="12.728" transform="translate(12 3) rotate(45)"/><rect class="a" width="24" height="24"/></g><g class="h" transform="translate(2042 3301) rotate(180)"><rect class="f" width="12.728" height="12.728" transform="translate(12 3) rotate(45)"/><rect class="a" width="24" height="24"/></g><g class="h" transform="translate(2042 3278) rotate(180)"><rect class="f" width="12.728" height="12.728" transform="translate(12 3) rotate(45)"/><rect class="a" width="24" height="24"/></g><g class="h" transform="translate(2033 3292) rotate(180)"><rect class="f" width="12.728" height="12.728" transform="translate(12 3) rotate(45)"/><rect class="a" width="24" height="24"/></g></g><g transform="translate(-95 34)"><g class="h" transform="translate(2102 3387) rotate(180)"><rect class="f" width="12.728" height="12.728" transform="translate(12 3) rotate(45)"/><rect class="a" width="24" height="24"/></g><g class="h" transform="translate(2129 3396) rotate(180)"><rect class="f" width="12.728" height="12.728" transform="translate(12 3) rotate(45)"/><rect class="a" width="24" height="24"/></g><g class="h" transform="translate(2120 3387) rotate(180)"><rect class="f" width="12.728" height="12.728" transform="translate(12 3) rotate(45)"/><rect class="a" width="24" height="24"/></g><g class="h" transform="translate(2105 3354)"><rect class="f" width="12.728" height="12.728" transform="translate(12 3) rotate(45)"/><rect class="a" width="24" height="24"/></g><g class="h" transform="translate(2069 3354)"><rect class="f" width="12.728" height="12.728" transform="translate(12 3) rotate(45)"/><rect class="a" width="24" height="24"/></g><g class="h" transform="translate(2069 3409)"><rect class="f" width="12.728" height="12.728" transform="translate(12 3) rotate(45)"/><rect class="a" width="24" height="24"/></g><g class="h" transform="translate(2069 3372)"><rect class="f" width="12.728" height="12.728" transform="translate(12 3) rotate(45)"/><rect class="a" width="24" height="24"/></g></g></g><g transform="translate(72)"><g transform="translate(4034 6661) rotate(180)"><g class="h" transform="translate(2051 3292) rotate(180)"><rect class="f" width="12.728" height="12.728" transform="translate(12 3) rotate(45)"/><rect class="a" width="24" height="24"/></g><g class="h" transform="translate(2042 3301) rotate(180)"><rect class="f" width="12.728" height="12.728" transform="translate(12 3) rotate(45)"/><rect class="a" width="24" height="24"/></g><g class="h" transform="translate(2042 3278) rotate(180)"><rect class="f" width="12.728" height="12.728" transform="translate(12 3) rotate(45)"/><rect class="a" width="24" height="24"/></g><g class="h" transform="translate(2033 3292) rotate(180)"><rect class="f" width="12.728" height="12.728" transform="translate(12 3) rotate(45)"/><rect class="a" width="24" height="24"/></g><g class="h" transform="translate(2015 3292) rotate(180)"><rect class="f" width="12.728" height="12.728" transform="translate(12 3) rotate(45)"/><rect class="a" width="24" height="24"/></g><g class="h" transform="translate(2015 3236) rotate(180)"><rect class="f" width="12.728" height="12.728" transform="translate(12 3) rotate(45)"/><rect class="a" width="24" height="24"/></g></g><g transform="translate(-26 157)"><g class="h" transform="translate(2051 3292) rotate(180)"><rect class="f" width="12.728" height="12.728" transform="translate(12 3) rotate(45)"/><rect class="a" width="24" height="24"/></g><g class="h" transform="translate(2042 3301) rotate(180)"><rect class="f" width="12.728" height="12.728" transform="translate(12 3) rotate(45)"/><rect class="a" width="24" height="24"/></g><g class="h" transform="translate(2042 3278) rotate(180)"><rect class="f" width="12.728" height="12.728" transform="translate(12 3) rotate(45)"/><rect class="a" width="24" height="24"/></g><g class="h" transform="translate(2033 3292) rotate(180)"><rect class="f" width="12.728" height="12.728" transform="translate(12 3) rotate(45)"/><rect class="a" width="24" height="24"/></g></g><g transform="translate(-95 34)"><g class="h" transform="translate(2102 3387) rotate(180)"><rect class="f" width="12.728" height="12.728" transform="translate(12 3) rotate(45)"/><rect class="a" width="24" height="24"/></g><g class="h" transform="translate(2129 3396) rotate(180)"><rect class="f" width="12.728" height="12.728" transform="translate(12 3) rotate(45)"/><rect class="a" width="24" height="24"/></g><g class="h" transform="translate(2120 3387) rotate(180)"><rect class="f" width="12.728" height="12.728" transform="translate(12 3) rotate(45)"/><rect class="a" width="24" height="24"/></g><g class="h" transform="translate(2105 3354)"><rect class="f" width="12.728" height="12.728" transform="translate(12 3) rotate(45)"/><rect class="a" width="24" height="24"/></g><g class="h" transform="translate(2069 3354)"><rect class="f" width="12.728" height="12.728" transform="translate(12 3) rotate(45)"/><rect class="a" width="24" height="24"/></g><g class="h" transform="translate(2069 3409)"><rect class="f" width="12.728" height="12.728" transform="translate(12 3) rotate(45)"/><rect class="a" width="24" height="24"/></g><g class="h" transform="translate(2069 3372)"><rect class="f" width="12.728" height="12.728" transform="translate(12 3) rotate(45)"/><rect class="a" width="24" height="24"/></g></g></g><g transform="translate(108)"><g transform="translate(4034 6661) rotate(180)"><g class="h" transform="translate(2051 3292) rotate(180)"><rect class="f" width="12.728" height="12.728" transform="translate(12 3) rotate(45)"/><rect class="a" width="24" height="24"/></g><g class="h" transform="translate(2042 3301) rotate(180)"><rect class="f" width="12.728" height="12.728" transform="translate(12 3) rotate(45)"/><rect class="a" width="24" height="24"/></g><g class="h" transform="translate(2042 3278) rotate(180)"><rect class="f" width="12.728" height="12.728" transform="translate(12 3) rotate(45)"/><rect class="a" width="24" height="24"/></g><g class="h" transform="translate(2033 3292) rotate(180)"><rect class="f" width="12.728" height="12.728" transform="translate(12 3) rotate(45)"/><rect class="a" width="24" height="24"/></g><g class="h" transform="translate(2015 3292) rotate(180)"><rect class="f" width="12.728" height="12.728" transform="translate(12 3) rotate(45)"/><rect class="a" width="24" height="24"/></g><g class="h" transform="translate(2015 3236) rotate(180)"><rect class="f" width="12.728" height="12.728" transform="translate(12 3) rotate(45)"/><rect class="a" width="24" height="24"/></g></g><g transform="translate(-26 157)"><g class="h" transform="translate(2051 3292) rotate(180)"><rect class="f" width="12.728" height="12.728" transform="translate(12 3) rotate(45)"/><rect class="a" width="24" height="24"/></g><g class="h" transform="translate(2042 3301) rotate(180)"><rect class="f" width="12.728" height="12.728" transform="translate(12 3) rotate(45)"/><rect class="a" width="24" height="24"/></g><g class="h" transform="translate(2042 3278) rotate(180)"><rect class="f" width="12.728" height="12.728" transform="translate(12 3) rotate(45)"/><rect class="a" width="24" height="24"/></g><g class="h" transform="translate(2033 3292) rotate(180)"><rect class="f" width="12.728" height="12.728" transform="translate(12 3) rotate(45)"/><rect class="a" width="24" height="24"/></g></g><g transform="translate(-95 34)"><g class="h" transform="translate(2102 3387) rotate(180)"><rect class="f" width="12.728" height="12.728" transform="translate(12 3) rotate(45)"/><rect class="a" width="24" height="24"/></g><g class="h" transform="translate(2129 3396) rotate(180)"><rect class="f" width="12.728" height="12.728" transform="translate(12 3) rotate(45)"/><rect class="a" width="24" height="24"/></g><g class="h" transform="translate(2120 3387) rotate(180)"><rect class="f" width="12.728" height="12.728" transform="translate(12 3) rotate(45)"/><rect class="a" width="24" height="24"/></g><g class="h" transform="translate(2105 3354)"><rect class="f" width="12.728" height="12.728" transform="translate(12 3) rotate(45)"/><rect class="a" width="24" height="24"/></g><g class="h" transform="translate(2069 3354)"><rect class="f" width="12.728" height="12.728" transform="translate(12 3) rotate(45)"/><rect class="a" width="24" height="24"/></g><g class="h" transform="translate(2069 3409)"><rect class="f" width="12.728" height="12.728" transform="translate(12 3) rotate(45)"/><rect class="a" width="24" height="24"/></g><g class="h" transform="translate(2069 3372)"><rect class="f" width="12.728" height="12.728" transform="translate(12 3) rotate(45)"/><rect class="a" width="24" height="24"/></g></g></g><g transform="translate(144)"><g transform="translate(4034 6661) rotate(180)"><g class="h" transform="translate(2051 3292) rotate(180)"><rect class="f" width="12.728" height="12.728" transform="translate(12 3) rotate(45)"/><rect class="a" width="24" height="24"/></g><g class="h" transform="translate(2042 3301) rotate(180)"><rect class="f" width="12.728" height="12.728" transform="translate(12 3) rotate(45)"/><rect class="a" width="24" height="24"/></g><g class="h" transform="translate(2042 3278) rotate(180)"><rect class="f" width="12.728" height="12.728" transform="translate(12 3) rotate(45)"/><rect class="a" width="24" height="24"/></g><g class="h" transform="translate(2033 3292) rotate(180)"><rect class="f" width="12.728" height="12.728" transform="translate(12 3) rotate(45)"/><rect class="a" width="24" height="24"/></g><g class="h" transform="translate(2015 3292) rotate(180)"><rect class="f" width="12.728" height="12.728" transform="translate(12 3) rotate(45)"/><rect class="a" width="24" height="24"/></g><g class="h" transform="translate(2015 3236) rotate(180)"><rect class="f" width="12.728" height="12.728" transform="translate(12 3) rotate(45)"/><rect class="a" width="24" height="24"/></g></g><g transform="translate(-26 157)"><g class="h" transform="translate(2051 3292) rotate(180)"><rect class="f" width="12.728" height="12.728" transform="translate(12 3) rotate(45)"/><rect class="a" width="24" height="24"/></g><g class="h" transform="translate(2042 3301) rotate(180)"><rect class="f" width="12.728" height="12.728" transform="translate(12 3) rotate(45)"/><rect class="a" width="24" height="24"/></g><g class="h" transform="translate(2042 3278) rotate(180)"><rect class="f" width="12.728" height="12.728" transform="translate(12 3) rotate(45)"/><rect class="a" width="24" height="24"/></g><g class="h" transform="translate(2033 3292) rotate(180)"><rect class="f" width="12.728" height="12.728" transform="translate(12 3) rotate(45)"/><rect class="a" width="24" height="24"/></g></g><g transform="translate(-95 34)"><g class="h" transform="translate(2102 3387) rotate(180)"><rect class="f" width="12.728" height="12.728" transform="translate(12 3) rotate(45)"/><rect class="a" width="24" height="24"/></g><g class="h" transform="translate(2129 3396) rotate(180)"><rect class="f" width="12.728" height="12.728" transform="translate(12 3) rotate(45)"/><rect class="a" width="24" height="24"/></g><g class="h" transform="translate(2120 3387) rotate(180)"><rect class="f" width="12.728" height="12.728" transform="translate(12 3) rotate(45)"/><rect class="a" width="24" height="24"/></g><g class="h" transform="translate(2105 3354)"><rect class="f" width="12.728" height="12.728" transform="translate(12 3) rotate(45)"/><rect class="a" width="24" height="24"/></g><g class="h" transform="translate(2069 3354)"><rect class="f" width="12.728" height="12.728" transform="translate(12 3) rotate(45)"/><rect class="a" width="24" height="24"/></g><g class="h" transform="translate(2069 3409)"><rect class="f" width="12.728" height="12.728" transform="translate(12 3) rotate(45)"/><rect class="a" width="24" height="24"/></g><g class="h" transform="translate(2069 3372)"><rect class="f" width="12.728" height="12.728" transform="translate(12 3) rotate(45)"/><rect class="a" width="24" height="24"/></g></g></g><g transform="translate(180)"><g transform="translate(4034 6661) rotate(180)"><g class="h" transform="translate(2051 3292) rotate(180)"><rect class="f" width="12.728" height="12.728" transform="translate(12 3) rotate(45)"/><rect class="a" width="24" height="24"/></g><g class="h" transform="translate(2042 3301) rotate(180)"><rect class="f" width="12.728" height="12.728" transform="translate(12 3) rotate(45)"/><rect class="a" width="24" height="24"/></g><g class="h" transform="translate(2042 3278) rotate(180)"><rect class="f" width="12.728" height="12.728" transform="translate(12 3) rotate(45)"/><rect class="a" width="24" height="24"/></g><g class="h" transform="translate(2033 3292) rotate(180)"><rect class="f" width="12.728" height="12.728" transform="translate(12 3) rotate(45)"/><rect class="a" width="24" height="24"/></g><g class="h" transform="translate(2015 3292) rotate(180)"><rect class="f" width="12.728" height="12.728" transform="translate(12 3) rotate(45)"/><rect class="a" width="24" height="24"/></g><g class="h" transform="translate(2015 3236) rotate(180)"><rect class="f" width="12.728" height="12.728" transform="translate(12 3) rotate(45)"/><rect class="a" width="24" height="24"/></g></g><g transform="translate(-26 157)"><g class="h" transform="translate(2051 3292) rotate(180)"><rect class="f" width="12.728" height="12.728" transform="translate(12 3) rotate(45)"/><rect class="a" width="24" height="24"/></g><g class="h" transform="translate(2042 3301) rotate(180)"><rect class="f" width="12.728" height="12.728" transform="translate(12 3) rotate(45)"/><rect class="a" width="24" height="24"/></g><g class="h" transform="translate(2042 3278) rotate(180)"><rect class="f" width="12.728" height="12.728" transform="translate(12 3) rotate(45)"/><rect class="a" width="24" height="24"/></g><g class="h" transform="translate(2033 3292) rotate(180)"><rect class="f" width="12.728" height="12.728" transform="translate(12 3) rotate(45)"/><rect class="a" width="24" height="24"/></g></g><g transform="translate(-95 34)"><g class="h" transform="translate(2102 3387) rotate(180)"><rect class="f" width="12.728" height="12.728" transform="translate(12 3) rotate(45)"/><rect class="a" width="24" height="24"/></g><g class="h" transform="translate(2129 3396) rotate(180)"><rect class="f" width="12.728" height="12.728" transform="translate(12 3) rotate(45)"/><rect class="a" width="24" height="24"/></g><g class="h" transform="translate(2120 3387) rotate(180)"><rect class="f" width="12.728" height="12.728" transform="translate(12 3) rotate(45)"/><rect class="a" width="24" height="24"/></g><g class="h" transform="translate(2105 3354)"><rect class="f" width="12.728" height="12.728" transform="translate(12 3) rotate(45)"/><rect class="a" width="24" height="24"/></g><g class="h" transform="translate(2069 3354)"><rect class="f" width="12.728" height="12.728" transform="translate(12 3) rotate(45)"/><rect class="a" width="24" height="24"/></g><g class="h" transform="translate(2069 3409)"><rect class="f" width="12.728" height="12.728" transform="translate(12 3) rotate(45)"/><rect class="a" width="24" height="24"/></g><g class="h" transform="translate(2069 3372)"><rect class="f" width="12.728" height="12.728" transform="translate(12 3) rotate(45)"/><rect class="a" width="24" height="24"/></g></g></g><g transform="translate(0 92)"><g transform="translate(4034 6661) rotate(180)"><g class="h" transform="translate(2051 3292) rotate(180)"><rect class="f" width="12.728" height="12.728" transform="translate(12 3) rotate(45)"/><rect class="a" width="24" height="24"/></g><g class="h" transform="translate(2042 3301) rotate(180)"><rect class="f" width="12.728" height="12.728" transform="translate(12 3) rotate(45)"/><rect class="a" width="24" height="24"/></g><g class="h" transform="translate(2042 3278) rotate(180)"><rect class="f" width="12.728" height="12.728" transform="translate(12 3) rotate(45)"/><rect class="a" width="24" height="24"/></g><g class="h" transform="translate(2033 3292) rotate(180)"><rect class="f" width="12.728" height="12.728" transform="translate(12 3) rotate(45)"/><rect class="a" width="24" height="24"/></g><g class="h" transform="translate(2015 3292) rotate(180)"><rect class="f" width="12.728" height="12.728" transform="translate(12 3) rotate(45)"/><rect class="a" width="24" height="24"/></g><g class="h" transform="translate(2015 3236) rotate(180)"><rect class="f" width="12.728" height="12.728" transform="translate(12 3) rotate(45)"/><rect class="a" width="24" height="24"/></g></g><g transform="translate(-26 157)"><g class="h" transform="translate(2051 3292) rotate(180)"><rect class="f" width="12.728" height="12.728" transform="translate(12 3) rotate(45)"/><rect class="a" width="24" height="24"/></g><g class="h" transform="translate(2042 3301) rotate(180)"><rect class="f" width="12.728" height="12.728" transform="translate(12 3) rotate(45)"/><rect class="a" width="24" height="24"/></g><g class="h" transform="translate(2042 3278) rotate(180)"><rect class="f" width="12.728" height="12.728" transform="translate(12 3) rotate(45)"/><rect class="a" width="24" height="24"/></g><g class="h" transform="translate(2033 3292) rotate(180)"><rect class="f" width="12.728" height="12.728" transform="translate(12 3) rotate(45)"/><rect class="a" width="24" height="24"/></g></g><g transform="translate(-95 34)"><g class="h" transform="translate(2102 3387) rotate(180)"><rect class="f" width="12.728" height="12.728" transform="translate(12 3) rotate(45)"/><rect class="a" width="24" height="24"/></g><g class="h" transform="translate(2129 3396) rotate(180)"><rect class="f" width="12.728" height="12.728" transform="translate(12 3) rotate(45)"/><rect class="a" width="24" height="24"/></g><g class="h" transform="translate(2120 3387) rotate(180)"><rect class="f" width="12.728" height="12.728" transform="translate(12 3) rotate(45)"/><rect class="a" width="24" height="24"/></g><g class="h" transform="translate(2105 3354)"><rect class="f" width="12.728" height="12.728" transform="translate(12 3) rotate(45)"/><rect class="a" width="24" height="24"/></g><g class="h" transform="translate(2069 3354)"><rect class="f" width="12.728" height="12.728" transform="translate(12 3) rotate(45)"/><rect class="a" width="24" height="24"/></g><g class="h" transform="translate(2069 3409)"><rect class="f" width="12.728" height="12.728" transform="translate(12 3) rotate(45)"/><rect class="a" width="24" height="24"/></g><g class="h" transform="translate(2069 3372)"><rect class="f" width="12.728" height="12.728" transform="translate(12 3) rotate(45)"/><rect class="a" width="24" height="24"/></g></g></g><g transform="translate(36 92)"><g transform="translate(4034 6661) rotate(180)"><g class="h" transform="translate(2051 3292) rotate(180)"><rect class="f" width="12.728" height="12.728" transform="translate(12 3) rotate(45)"/><rect class="a" width="24" height="24"/></g><g class="h" transform="translate(2042 3301) rotate(180)"><rect class="f" width="12.728" height="12.728" transform="translate(12 3) rotate(45)"/><rect class="a" width="24" height="24"/></g><g class="h" transform="translate(2042 3278) rotate(180)"><rect class="f" width="12.728" height="12.728" transform="translate(12 3) rotate(45)"/><rect class="a" width="24" height="24"/></g><g class="h" transform="translate(2033 3292) rotate(180)"><rect class="f" width="12.728" height="12.728" transform="translate(12 3) rotate(45)"/><rect class="a" width="24" height="24"/></g><g class="h" transform="translate(2015 3292) rotate(180)"><rect class="f" width="12.728" height="12.728" transform="translate(12 3) rotate(45)"/><rect class="a" width="24" height="24"/></g><g class="h" transform="translate(2015 3236) rotate(180)"><rect class="f" width="12.728" height="12.728" transform="translate(12 3) rotate(45)"/><rect class="a" width="24" height="24"/></g></g><g transform="translate(-26 157)"><g class="h" transform="translate(2051 3292) rotate(180)"><rect class="f" width="12.728" height="12.728" transform="translate(12 3) rotate(45)"/><rect class="a" width="24" height="24"/></g><g class="h" transform="translate(2042 3301) rotate(180)"><rect class="f" width="12.728" height="12.728" transform="translate(12 3) rotate(45)"/><rect class="a" width="24" height="24"/></g><g class="h" transform="translate(2042 3278) rotate(180)"><rect class="f" width="12.728" height="12.728" transform="translate(12 3) rotate(45)"/><rect class="a" width="24" height="24"/></g><g class="h" transform="translate(2033 3292) rotate(180)"><rect class="f" width="12.728" height="12.728" transform="translate(12 3) rotate(45)"/><rect class="a" width="24" height="24"/></g></g><g transform="translate(-95 34)"><g class="h" transform="translate(2102 3387) rotate(180)"><rect class="f" width="12.728" height="12.728" transform="translate(12 3) rotate(45)"/><rect class="a" width="24" height="24"/></g><g class="h" transform="translate(2129 3396) rotate(180)"><rect class="f" width="12.728" height="12.728" transform="translate(12 3) rotate(45)"/><rect class="a" width="24" height="24"/></g><g class="h" transform="translate(2120 3387) rotate(180)"><rect class="f" width="12.728" height="12.728" transform="translate(12 3) rotate(45)"/><rect class="a" width="24" height="24"/></g><g class="h" transform="translate(2105 3354)"><rect class="f" width="12.728" height="12.728" transform="translate(12 3) rotate(45)"/><rect class="a" width="24" height="24"/></g><g class="h" transform="translate(2069 3354)"><rect class="f" width="12.728" height="12.728" transform="translate(12 3) rotate(45)"/><rect class="a" width="24" height="24"/></g><g class="h" transform="translate(2069 3409)"><rect class="f" width="12.728" height="12.728" transform="translate(12 3) rotate(45)"/><rect class="a" width="24" height="24"/></g><g class="h" transform="translate(2069 3372)"><rect class="f" width="12.728" height="12.728" transform="translate(12 3) rotate(45)"/><rect class="a" width="24" height="24"/></g></g></g><g transform="translate(72 92)"><g transform="translate(4034 6661) rotate(180)"><g class="h" transform="translate(2051 3292) rotate(180)"><rect class="f" width="12.728" height="12.728" transform="translate(12 3) rotate(45)"/><rect class="a" width="24" height="24"/></g><g class="h" transform="translate(2042 3301) rotate(180)"><rect class="f" width="12.728" height="12.728" transform="translate(12 3) rotate(45)"/><rect class="a" width="24" height="24"/></g><g class="h" transform="translate(2042 3278) rotate(180)"><rect class="f" width="12.728" height="12.728" transform="translate(12 3) rotate(45)"/><rect class="a" width="24" height="24"/></g><g class="h" transform="translate(2033 3292) rotate(180)"><rect class="f" width="12.728" height="12.728" transform="translate(12 3) rotate(45)"/><rect class="a" width="24" height="24"/></g><g class="h" transform="translate(2015 3292) rotate(180)"><rect class="f" width="12.728" height="12.728" transform="translate(12 3) rotate(45)"/><rect class="a" width="24" height="24"/></g><g class="h" transform="translate(2015 3236) rotate(180)"><rect class="f" width="12.728" height="12.728" transform="translate(12 3) rotate(45)"/><rect class="a" width="24" height="24"/></g></g><g transform="translate(-26 157)"><g class="h" transform="translate(2051 3292) rotate(180)"><rect class="f" width="12.728" height="12.728" transform="translate(12 3) rotate(45)"/><rect class="a" width="24" height="24"/></g><g class="h" transform="translate(2042 3301) rotate(180)"><rect class="f" width="12.728" height="12.728" transform="translate(12 3) rotate(45)"/><rect class="a" width="24" height="24"/></g><g class="h" transform="translate(2042 3278) rotate(180)"><rect class="f" width="12.728" height="12.728" transform="translate(12 3) rotate(45)"/><rect class="a" width="24" height="24"/></g><g class="h" transform="translate(2033 3292) rotate(180)"><rect class="f" width="12.728" height="12.728" transform="translate(12 3) rotate(45)"/><rect class="a" width="24" height="24"/></g></g><g transform="translate(-95 34)"><g class="h" transform="translate(2102 3387) rotate(180)"><rect class="f" width="12.728" height="12.728" transform="translate(12 3) rotate(45)"/><rect class="a" width="24" height="24"/></g><g class="h" transform="translate(2129 3396) rotate(180)"><rect class="f" width="12.728" height="12.728" transform="translate(12 3) rotate(45)"/><rect class="a" width="24" height="24"/></g><g class="h" transform="translate(2120 3387) rotate(180)"><rect class="f" width="12.728" height="12.728" transform="translate(12 3) rotate(45)"/><rect class="a" width="24" height="24"/></g><g class="h" transform="translate(2105 3354)"><rect class="f" width="12.728" height="12.728" transform="translate(12 3) rotate(45)"/><rect class="a" width="24" height="24"/></g><g class="h" transform="translate(2069 3354)"><rect class="f" width="12.728" height="12.728" transform="translate(12 3) rotate(45)"/><rect class="a" width="24" height="24"/></g><g class="h" transform="translate(2069 3409)"><rect class="f" width="12.728" height="12.728" transform="translate(12 3) rotate(45)"/><rect class="a" width="24" height="24"/></g><g class="h" transform="translate(2069 3372)"><rect class="f" width="12.728" height="12.728" transform="translate(12 3) rotate(45)"/><rect class="a" width="24" height="24"/></g></g></g><g transform="translate(108 92)"><g transform="translate(4034 6661) rotate(180)"><g class="h" transform="translate(2051 3292) rotate(180)"><rect class="f" width="12.728" height="12.728" transform="translate(12 3) rotate(45)"/><rect class="a" width="24" height="24"/></g><g class="h" transform="translate(2042 3301) rotate(180)"><rect class="f" width="12.728" height="12.728" transform="translate(12 3) rotate(45)"/><rect class="a" width="24" height="24"/></g><g class="h" transform="translate(2042 3278) rotate(180)"><rect class="f" width="12.728" height="12.728" transform="translate(12 3) rotate(45)"/><rect class="a" width="24" height="24"/></g><g class="h" transform="translate(2033 3292) rotate(180)"><rect class="f" width="12.728" height="12.728" transform="translate(12 3) rotate(45)"/><rect class="a" width="24" height="24"/></g><g class="h" transform="translate(2015 3292) rotate(180)"><rect class="f" width="12.728" height="12.728" transform="translate(12 3) rotate(45)"/><rect class="a" width="24" height="24"/></g><g class="h" transform="translate(2015 3236) rotate(180)"><rect class="f" width="12.728" height="12.728" transform="translate(12 3) rotate(45)"/><rect class="a" width="24" height="24"/></g></g><g transform="translate(-26 157)"><g class="h" transform="translate(2051 3292) rotate(180)"><rect class="f" width="12.728" height="12.728" transform="translate(12 3) rotate(45)"/><rect class="a" width="24" height="24"/></g><g class="h" transform="translate(2042 3301) rotate(180)"><rect class="f" width="12.728" height="12.728" transform="translate(12 3) rotate(45)"/><rect class="a" width="24" height="24"/></g><g class="h" transform="translate(2042 3278) rotate(180)"><rect class="f" width="12.728" height="12.728" transform="translate(12 3) rotate(45)"/><rect class="a" width="24" height="24"/></g><g class="h" transform="translate(2033 3292) rotate(180)"><rect class="f" width="12.728" height="12.728" transform="translate(12 3) rotate(45)"/><rect class="a" width="24" height="24"/></g></g><g transform="translate(-95 34)"><g class="h" transform="translate(2102 3387) rotate(180)"><rect class="f" width="12.728" height="12.728" transform="translate(12 3) rotate(45)"/><rect class="a" width="24" height="24"/></g><g class="h" transform="translate(2129 3396) rotate(180)"><rect class="f" width="12.728" height="12.728" transform="translate(12 3) rotate(45)"/><rect class="a" width="24" height="24"/></g><g class="h" transform="translate(2120 3387) rotate(180)"><rect class="f" width="12.728" height="12.728" transform="translate(12 3) rotate(45)"/><rect class="a" width="24" height="24"/></g><g class="h" transform="translate(2105 3354)"><rect class="f" width="12.728" height="12.728" transform="translate(12 3) rotate(45)"/><rect class="a" width="24" height="24"/></g><g class="h" transform="translate(2069 3354)"><rect class="f" width="12.728" height="12.728" transform="translate(12 3) rotate(45)"/><rect class="a" width="24" height="24"/></g><g class="h" transform="translate(2069 3409)"><rect class="f" width="12.728" height="12.728" transform="translate(12 3) rotate(45)"/><rect class="a" width="24" height="24"/></g><g class="h" transform="translate(2069 3372)"><rect class="f" width="12.728" height="12.728" transform="translate(12 3) rotate(45)"/><rect class="a" width="24" height="24"/></g></g></g><g transform="translate(144 92)"><g transform="translate(4034 6661) rotate(180)"><g class="h" transform="translate(2051 3292) rotate(180)"><rect class="f" width="12.728" height="12.728" transform="translate(12 3) rotate(45)"/><rect class="a" width="24" height="24"/></g><g class="h" transform="translate(2042 3301) rotate(180)"><rect class="f" width="12.728" height="12.728" transform="translate(12 3) rotate(45)"/><rect class="a" width="24" height="24"/></g><g class="h" transform="translate(2042 3278) rotate(180)"><rect class="f" width="12.728" height="12.728" transform="translate(12 3) rotate(45)"/><rect class="a" width="24" height="24"/></g><g class="h" transform="translate(2033 3292) rotate(180)"><rect class="f" width="12.728" height="12.728" transform="translate(12 3) rotate(45)"/><rect class="a" width="24" height="24"/></g><g class="h" transform="translate(2015 3292) rotate(180)"><rect class="f" width="12.728" height="12.728" transform="translate(12 3) rotate(45)"/><rect class="a" width="24" height="24"/></g><g class="h" transform="translate(2015 3236) rotate(180)"><rect class="f" width="12.728" height="12.728" transform="translate(12 3) rotate(45)"/><rect class="a" width="24" height="24"/></g></g><g transform="translate(-26 157)"><g class="h" transform="translate(2051 3292) rotate(180)"><rect class="f" width="12.728" height="12.728" transform="translate(12 3) rotate(45)"/><rect class="a" width="24" height="24"/></g><g class="h" transform="translate(2042 3301) rotate(180)"><rect class="f" width="12.728" height="12.728" transform="translate(12 3) rotate(45)"/><rect class="a" width="24" height="24"/></g><g class="h" transform="translate(2042 3278) rotate(180)"><rect class="f" width="12.728" height="12.728" transform="translate(12 3) rotate(45)"/><rect class="a" width="24" height="24"/></g><g class="h" transform="translate(2033 3292) rotate(180)"><rect class="f" width="12.728" height="12.728" transform="translate(12 3) rotate(45)"/><rect class="a" width="24" height="24"/></g></g><g transform="translate(-95 34)"><g class="h" transform="translate(2102 3387) rotate(180)"><rect class="f" width="12.728" height="12.728" transform="translate(12 3) rotate(45)"/><rect class="a" width="24" height="24"/></g><g class="h" transform="translate(2129 3396) rotate(180)"><rect class="f" width="12.728" height="12.728" transform="translate(12 3) rotate(45)"/><rect class="a" width="24" height="24"/></g><g class="h" transform="translate(2120 3387) rotate(180)"><rect class="f" width="12.728" height="12.728" transform="translate(12 3) rotate(45)"/><rect class="a" width="24" height="24"/></g><g class="h" transform="translate(2105 3354)"><rect class="f" width="12.728" height="12.728" transform="translate(12 3) rotate(45)"/><rect class="a" width="24" height="24"/></g><g class="h" transform="translate(2069 3354)"><rect class="f" width="12.728" height="12.728" transform="translate(12 3) rotate(45)"/><rect class="a" width="24" height="24"/></g><g class="h" transform="translate(2069 3409)"><rect class="f" width="12.728" height="12.728" transform="translate(12 3) rotate(45)"/><rect class="a" width="24" height="24"/></g><g class="h" transform="translate(2069 3372)"><rect class="f" width="12.728" height="12.728" transform="translate(12 3) rotate(45)"/><rect class="a" width="24" height="24"/></g></g></g><g transform="translate(180 92)"><g transform="translate(4034 6661) rotate(180)"><g class="h" transform="translate(2051 3292) rotate(180)"><rect class="f" width="12.728" height="12.728" transform="translate(12 3) rotate(45)"/><rect class="a" width="24" height="24"/></g><g class="h" transform="translate(2042 3301) rotate(180)"><rect class="f" width="12.728" height="12.728" transform="translate(12 3) rotate(45)"/><rect class="a" width="24" height="24"/></g><g class="h" transform="translate(2042 3278) rotate(180)"><rect class="f" width="12.728" height="12.728" transform="translate(12 3) rotate(45)"/><rect class="a" width="24" height="24"/></g><g class="h" transform="translate(2033 3292) rotate(180)"><rect class="f" width="12.728" height="12.728" transform="translate(12 3) rotate(45)"/><rect class="a" width="24" height="24"/></g><g class="h" transform="translate(2015 3292) rotate(180)"><rect class="f" width="12.728" height="12.728" transform="translate(12 3) rotate(45)"/><rect class="a" width="24" height="24"/></g><g class="h" transform="translate(2015 3236) rotate(180)"><rect class="f" width="12.728" height="12.728" transform="translate(12 3) rotate(45)"/><rect class="a" width="24" height="24"/></g></g><g transform="translate(-26 157)"><g class="h" transform="translate(2051 3292) rotate(180)"><rect class="f" width="12.728" height="12.728" transform="translate(12 3) rotate(45)"/><rect class="a" width="24" height="24"/></g><g class="h" transform="translate(2042 3301) rotate(180)"><rect class="f" width="12.728" height="12.728" transform="translate(12 3) rotate(45)"/><rect class="a" width="24" height="24"/></g><g class="h" transform="translate(2042 3278) rotate(180)"><rect class="f" width="12.728" height="12.728" transform="translate(12 3) rotate(45)"/><rect class="a" width="24" height="24"/></g><g class="h" transform="translate(2033 3292) rotate(180)"><rect class="f" width="12.728" height="12.728" transform="translate(12 3) rotate(45)"/><rect class="a" width="24" height="24"/></g></g><g transform="translate(-95 34)"><g class="h" transform="translate(2102 3387) rotate(180)"><rect class="f" width="12.728" height="12.728" transform="translate(12 3) rotate(45)"/><rect class="a" width="24" height="24"/></g><g class="h" transform="translate(2129 3396) rotate(180)"><rect class="f" width="12.728" height="12.728" transform="translate(12 3) rotate(45)"/><rect class="a" width="24" height="24"/></g><g class="h" transform="translate(2120 3387) rotate(180)"><rect class="f" width="12.728" height="12.728" transform="translate(12 3) rotate(45)"/><rect class="a" width="24" height="24"/></g><g class="h" transform="translate(2105 3354)"><rect class="f" width="12.728" height="12.728" transform="translate(12 3) rotate(45)"/><rect class="a" width="24" height="24"/></g><g class="h" transform="translate(2069 3354)"><rect class="f" width="12.728" height="12.728" transform="translate(12 3) rotate(45)"/><rect class="a" width="24" height="24"/></g><g class="h" transform="translate(2069 3409)"><rect class="f" width="12.728" height="12.728" transform="translate(12 3) rotate(45)"/><rect class="a" width="24" height="24"/></g><g class="h" transform="translate(2069 3372)"><rect class="f" width="12.728" height="12.728" transform="translate(12 3) rotate(45)"/><rect class="a" width="24" height="24"/></g></g></g><g transform="translate(0 184)"><g transform="translate(4034 6661) rotate(180)"><g class="h" transform="translate(2051 3292) rotate(180)"><rect class="f" width="12.728" height="12.728" transform="translate(12 3) rotate(45)"/><rect class="a" width="24" height="24"/></g><g class="h" transform="translate(2042 3301) rotate(180)"><rect class="f" width="12.728" height="12.728" transform="translate(12 3) rotate(45)"/><rect class="a" width="24" height="24"/></g><g class="h" transform="translate(2042 3278) rotate(180)"><rect class="f" width="12.728" height="12.728" transform="translate(12 3) rotate(45)"/><rect class="a" width="24" height="24"/></g><g class="h" transform="translate(2033 3292) rotate(180)"><rect class="f" width="12.728" height="12.728" transform="translate(12 3) rotate(45)"/><rect class="a" width="24" height="24"/></g><g class="h" transform="translate(2015 3292) rotate(180)"><rect class="f" width="12.728" height="12.728" transform="translate(12 3) rotate(45)"/><rect class="a" width="24" height="24"/></g><g class="h" transform="translate(2015 3236) rotate(180)"><rect class="f" width="12.728" height="12.728" transform="translate(12 3) rotate(45)"/><rect class="a" width="24" height="24"/></g></g><g transform="translate(-26 157)"><g class="h" transform="translate(2051 3292) rotate(180)"><rect class="f" width="12.728" height="12.728" transform="translate(12 3) rotate(45)"/><rect class="a" width="24" height="24"/></g><g class="h" transform="translate(2042 3301) rotate(180)"><rect class="f" width="12.728" height="12.728" transform="translate(12 3) rotate(45)"/><rect class="a" width="24" height="24"/></g><g class="h" transform="translate(2042 3278) rotate(180)"><rect class="f" width="12.728" height="12.728" transform="translate(12 3) rotate(45)"/><rect class="a" width="24" height="24"/></g><g class="h" transform="translate(2033 3292) rotate(180)"><rect class="f" width="12.728" height="12.728" transform="translate(12 3) rotate(45)"/><rect class="a" width="24" height="24"/></g></g><g transform="translate(-95 34)"><g class="h" transform="translate(2102 3387) rotate(180)"><rect class="f" width="12.728" height="12.728" transform="translate(12 3) rotate(45)"/><rect class="a" width="24" height="24"/></g><g class="h" transform="translate(2129 3396) rotate(180)"><rect class="f" width="12.728" height="12.728" transform="translate(12 3) rotate(45)"/><rect class="a" width="24" height="24"/></g><g class="h" transform="translate(2120 3387) rotate(180)"><rect class="f" width="12.728" height="12.728" transform="translate(12 3) rotate(45)"/><rect class="a" width="24" height="24"/></g><g class="h" transform="translate(2105 3354)"><rect class="f" width="12.728" height="12.728" transform="translate(12 3) rotate(45)"/><rect class="a" width="24" height="24"/></g><g class="h" transform="translate(2069 3354)"><rect class="f" width="12.728" height="12.728" transform="translate(12 3) rotate(45)"/><rect class="a" width="24" height="24"/></g><g class="h" transform="translate(2069 3409)"><rect class="f" width="12.728" height="12.728" transform="translate(12 3) rotate(45)"/><rect class="a" width="24" height="24"/></g><g class="h" transform="translate(2069 3372)"><rect class="f" width="12.728" height="12.728" transform="translate(12 3) rotate(45)"/><rect class="a" width="24" height="24"/></g></g></g><g transform="translate(36 184)"><g transform="translate(4034 6661) rotate(180)"><g class="h" transform="translate(2051 3292) rotate(180)"><rect class="f" width="12.728" height="12.728" transform="translate(12 3) rotate(45)"/><rect class="a" width="24" height="24"/></g><g class="h" transform="translate(2042 3301) rotate(180)"><rect class="f" width="12.728" height="12.728" transform="translate(12 3) rotate(45)"/><rect class="a" width="24" height="24"/></g><g class="h" transform="translate(2042 3278) rotate(180)"><rect class="f" width="12.728" height="12.728" transform="translate(12 3) rotate(45)"/><rect class="a" width="24" height="24"/></g><g class="h" transform="translate(2033 3292) rotate(180)"><rect class="f" width="12.728" height="12.728" transform="translate(12 3) rotate(45)"/><rect class="a" width="24" height="24"/></g><g class="h" transform="translate(2015 3292) rotate(180)"><rect class="f" width="12.728" height="12.728" transform="translate(12 3) rotate(45)"/><rect class="a" width="24" height="24"/></g><g class="h" transform="translate(2015 3236) rotate(180)"><rect class="f" width="12.728" height="12.728" transform="translate(12 3) rotate(45)"/><rect class="a" width="24" height="24"/></g></g><g transform="translate(-26 157)"><g class="h" transform="translate(2051 3292) rotate(180)"><rect class="f" width="12.728" height="12.728" transform="translate(12 3) rotate(45)"/><rect class="a" width="24" height="24"/></g><g class="h" transform="translate(2042 3301) rotate(180)"><rect class="f" width="12.728" height="12.728" transform="translate(12 3) rotate(45)"/><rect class="a" width="24" height="24"/></g><g class="h" transform="translate(2042 3278) rotate(180)"><rect class="f" width="12.728" height="12.728" transform="translate(12 3) rotate(45)"/><rect class="a" width="24" height="24"/></g><g class="h" transform="translate(2033 3292) rotate(180)"><rect class="f" width="12.728" height="12.728" transform="translate(12 3) rotate(45)"/><rect class="a" width="24" height="24"/></g></g><g transform="translate(-95 34)"><g class="h" transform="translate(2102 3387) rotate(180)"><rect class="f" width="12.728" height="12.728" transform="translate(12 3) rotate(45)"/><rect class="a" width="24" height="24"/></g><g class="h" transform="translate(2129 3396) rotate(180)"><rect class="f" width="12.728" height="12.728" transform="translate(12 3) rotate(45)"/><rect class="a" width="24" height="24"/></g><g class="h" transform="translate(2120 3387) rotate(180)"><rect class="f" width="12.728" height="12.728" transform="translate(12 3) rotate(45)"/><rect class="a" width="24" height="24"/></g><g class="h" transform="translate(2105 3354)"><rect class="f" width="12.728" height="12.728" transform="translate(12 3) rotate(45)"/><rect class="a" width="24" height="24"/></g><g class="h" transform="translate(2069 3354)"><rect class="f" width="12.728" height="12.728" transform="translate(12 3) rotate(45)"/><rect class="a" width="24" height="24"/></g><g class="h" transform="translate(2069 3409)"><rect class="f" width="12.728" height="12.728" transform="translate(12 3) rotate(45)"/><rect class="a" width="24" height="24"/></g><g class="h" transform="translate(2069 3372)"><rect class="f" width="12.728" height="12.728" transform="translate(12 3) rotate(45)"/><rect class="a" width="24" height="24"/></g></g></g><g transform="translate(72 184)"><g transform="translate(4034 6661) rotate(180)"><g class="h" transform="translate(2051 3292) rotate(180)"><rect class="f" width="12.728" height="12.728" transform="translate(12 3) rotate(45)"/><rect class="a" width="24" height="24"/></g><g class="h" transform="translate(2042 3301) rotate(180)"><rect class="f" width="12.728" height="12.728" transform="translate(12 3) rotate(45)"/><rect class="a" width="24" height="24"/></g><g class="h" transform="translate(2042 3278) rotate(180)"><rect class="f" width="12.728" height="12.728" transform="translate(12 3) rotate(45)"/><rect class="a" width="24" height="24"/></g><g class="h" transform="translate(2033 3292) rotate(180)"><rect class="f" width="12.728" height="12.728" transform="translate(12 3) rotate(45)"/><rect class="a" width="24" height="24"/></g><g class="h" transform="translate(2015 3292) rotate(180)"><rect class="f" width="12.728" height="12.728" transform="translate(12 3) rotate(45)"/><rect class="a" width="24" height="24"/></g><g class="h" transform="translate(2015 3236) rotate(180)"><rect class="f" width="12.728" height="12.728" transform="translate(12 3) rotate(45)"/><rect class="a" width="24" height="24"/></g></g><g transform="translate(-26 157)"><g class="h" transform="translate(2051 3292) rotate(180)"><rect class="f" width="12.728" height="12.728" transform="translate(12 3) rotate(45)"/><rect class="a" width="24" height="24"/></g><g class="h" transform="translate(2042 3301) rotate(180)"><rect class="f" width="12.728" height="12.728" transform="translate(12 3) rotate(45)"/><rect class="a" width="24" height="24"/></g><g class="h" transform="translate(2042 3278) rotate(180)"><rect class="f" width="12.728" height="12.728" transform="translate(12 3) rotate(45)"/><rect class="a" width="24" height="24"/></g><g class="h" transform="translate(2033 3292) rotate(180)"><rect class="f" width="12.728" height="12.728" transform="translate(12 3) rotate(45)"/><rect class="a" width="24" height="24"/></g></g><g transform="translate(-95 34)"><g class="h" transform="translate(2102 3387) rotate(180)"><rect class="f" width="12.728" height="12.728" transform="translate(12 3) rotate(45)"/><rect class="a" width="24" height="24"/></g><g class="h" transform="translate(2129 3396) rotate(180)"><rect class="f" width="12.728" height="12.728" transform="translate(12 3) rotate(45)"/><rect class="a" width="24" height="24"/></g><g class="h" transform="translate(2120 3387) rotate(180)"><rect class="f" width="12.728" height="12.728" transform="translate(12 3) rotate(45)"/><rect class="a" width="24" height="24"/></g><g class="h" transform="translate(2105 3354)"><rect class="f" width="12.728" height="12.728" transform="translate(12 3) rotate(45)"/><rect class="a" width="24" height="24"/></g><g class="h" transform="translate(2069 3354)"><rect class="f" width="12.728" height="12.728" transform="translate(12 3) rotate(45)"/><rect class="a" width="24" height="24"/></g><g class="h" transform="translate(2069 3409)"><rect class="f" width="12.728" height="12.728" transform="translate(12 3) rotate(45)"/><rect class="a" width="24" height="24"/></g><g class="h" transform="translate(2069 3372)"><rect class="f" width="12.728" height="12.728" transform="translate(12 3) rotate(45)"/><rect class="a" width="24" height="24"/></g></g></g><g transform="translate(108 184)"><g transform="translate(4034 6661) rotate(180)"><g class="h" transform="translate(2051 3292) rotate(180)"><rect class="f" width="12.728" height="12.728" transform="translate(12 3) rotate(45)"/><rect class="a" width="24" height="24"/></g><g class="h" transform="translate(2042 3301) rotate(180)"><rect class="f" width="12.728" height="12.728" transform="translate(12 3) rotate(45)"/><rect class="a" width="24" height="24"/></g><g class="h" transform="translate(2042 3278) rotate(180)"><rect class="f" width="12.728" height="12.728" transform="translate(12 3) rotate(45)"/><rect class="a" width="24" height="24"/></g><g class="h" transform="translate(2033 3292) rotate(180)"><rect class="f" width="12.728" height="12.728" transform="translate(12 3) rotate(45)"/><rect class="a" width="24" height="24"/></g><g class="h" transform="translate(2015 3292) rotate(180)"><rect class="f" width="12.728" height="12.728" transform="translate(12 3) rotate(45)"/><rect class="a" width="24" height="24"/></g><g class="h" transform="translate(2015 3236) rotate(180)"><rect class="f" width="12.728" height="12.728" transform="translate(12 3) rotate(45)"/><rect class="a" width="24" height="24"/></g></g><g transform="translate(-26 157)"><g class="h" transform="translate(2051 3292) rotate(180)"><rect class="f" width="12.728" height="12.728" transform="translate(12 3) rotate(45)"/><rect class="a" width="24" height="24"/></g><g class="h" transform="translate(2042 3301) rotate(180)"><rect class="f" width="12.728" height="12.728" transform="translate(12 3) rotate(45)"/><rect class="a" width="24" height="24"/></g><g class="h" transform="translate(2042 3278) rotate(180)"><rect class="f" width="12.728" height="12.728" transform="translate(12 3) rotate(45)"/><rect class="a" width="24" height="24"/></g><g class="h" transform="translate(2033 3292) rotate(180)"><rect class="f" width="12.728" height="12.728" transform="translate(12 3) rotate(45)"/><rect class="a" width="24" height="24"/></g></g><g transform="translate(-95 34)"><g class="h" transform="translate(2102 3387) rotate(180)"><rect class="f" width="12.728" height="12.728" transform="translate(12 3) rotate(45)"/><rect class="a" width="24" height="24"/></g><g class="h" transform="translate(2129 3396) rotate(180)"><rect class="f" width="12.728" height="12.728" transform="translate(12 3) rotate(45)"/><rect class="a" width="24" height="24"/></g><g class="h" transform="translate(2120 3387) rotate(180)"><rect class="f" width="12.728" height="12.728" transform="translate(12 3) rotate(45)"/><rect class="a" width="24" height="24"/></g><g class="h" transform="translate(2105 3354)"><rect class="f" width="12.728" height="12.728" transform="translate(12 3) rotate(45)"/><rect class="a" width="24" height="24"/></g><g class="h" transform="translate(2069 3354)"><rect class="f" width="12.728" height="12.728" transform="translate(12 3) rotate(45)"/><rect class="a" width="24" height="24"/></g><g class="h" transform="translate(2069 3409)"><rect class="f" width="12.728" height="12.728" transform="translate(12 3) rotate(45)"/><rect class="a" width="24" height="24"/></g><g class="h" transform="translate(2069 3372)"><rect class="f" width="12.728" height="12.728" transform="translate(12 3) rotate(45)"/><rect class="a" width="24" height="24"/></g></g></g><g transform="translate(144 184)"><g transform="translate(4034 6661) rotate(180)"><g class="h" transform="translate(2051 3292) rotate(180)"><rect class="f" width="12.728" height="12.728" transform="translate(12 3) rotate(45)"/><rect class="a" width="24" height="24"/></g><g class="h" transform="translate(2042 3301) rotate(180)"><rect class="f" width="12.728" height="12.728" transform="translate(12 3) rotate(45)"/><rect class="a" width="24" height="24"/></g><g class="h" transform="translate(2042 3278) rotate(180)"><rect class="f" width="12.728" height="12.728" transform="translate(12 3) rotate(45)"/><rect class="a" width="24" height="24"/></g><g class="h" transform="translate(2033 3292) rotate(180)"><rect class="f" width="12.728" height="12.728" transform="translate(12 3) rotate(45)"/><rect class="a" width="24" height="24"/></g><g class="h" transform="translate(2015 3292) rotate(180)"><rect class="f" width="12.728" height="12.728" transform="translate(12 3) rotate(45)"/><rect class="a" width="24" height="24"/></g><g class="h" transform="translate(2015 3236) rotate(180)"><rect class="f" width="12.728" height="12.728" transform="translate(12 3) rotate(45)"/><rect class="a" width="24" height="24"/></g></g><g transform="translate(-26 157)"><g class="h" transform="translate(2051 3292) rotate(180)"><rect class="f" width="12.728" height="12.728" transform="translate(12 3) rotate(45)"/><rect class="a" width="24" height="24"/></g><g class="h" transform="translate(2042 3301) rotate(180)"><rect class="f" width="12.728" height="12.728" transform="translate(12 3) rotate(45)"/><rect class="a" width="24" height="24"/></g><g class="h" transform="translate(2042 3278) rotate(180)"><rect class="f" width="12.728" height="12.728" transform="translate(12 3) rotate(45)"/><rect class="a" width="24" height="24"/></g><g class="h" transform="translate(2033 3292) rotate(180)"><rect class="f" width="12.728" height="12.728" transform="translate(12 3) rotate(45)"/><rect class="a" width="24" height="24"/></g></g><g transform="translate(-95 34)"><g class="h" transform="translate(2102 3387) rotate(180)"><rect class="f" width="12.728" height="12.728" transform="translate(12 3) rotate(45)"/><rect class="a" width="24" height="24"/></g><g class="h" transform="translate(2129 3396) rotate(180)"><rect class="f" width="12.728" height="12.728" transform="translate(12 3) rotate(45)"/><rect class="a" width="24" height="24"/></g><g class="h" transform="translate(2120 3387) rotate(180)"><rect class="f" width="12.728" height="12.728" transform="translate(12 3) rotate(45)"/><rect class="a" width="24" height="24"/></g><g class="h" transform="translate(2105 3354)"><rect class="f" width="12.728" height="12.728" transform="translate(12 3) rotate(45)"/><rect class="a" width="24" height="24"/></g><g class="h" transform="translate(2069 3354)"><rect class="f" width="12.728" height="12.728" transform="translate(12 3) rotate(45)"/><rect class="a" width="24" height="24"/></g><g class="h" transform="translate(2069 3409)"><rect class="f" width="12.728" height="12.728" transform="translate(12 3) rotate(45)"/><rect class="a" width="24" height="24"/></g><g class="h" transform="translate(2069 3372)"><rect class="f" width="12.728" height="12.728" transform="translate(12 3) rotate(45)"/><rect class="a" width="24" height="24"/></g></g></g><g transform="translate(180 184)"><g transform="translate(4034 6661) rotate(180)"><g class="h" transform="translate(2051 3292) rotate(180)"><rect class="f" width="12.728" height="12.728" transform="translate(12 3) rotate(45)"/><rect class="a" width="24" height="24"/></g><g class="h" transform="translate(2042 3301) rotate(180)"><rect class="f" width="12.728" height="12.728" transform="translate(12 3) rotate(45)"/><rect class="a" width="24" height="24"/></g><g class="h" transform="translate(2042 3278) rotate(180)"><rect class="f" width="12.728" height="12.728" transform="translate(12 3) rotate(45)"/><rect class="a" width="24" height="24"/></g><g class="h" transform="translate(2033 3292) rotate(180)"><rect class="f" width="12.728" height="12.728" transform="translate(12 3) rotate(45)"/><rect class="a" width="24" height="24"/></g><g class="h" transform="translate(2015 3292) rotate(180)"><rect class="f" width="12.728" height="12.728" transform="translate(12 3) rotate(45)"/><rect class="a" width="24" height="24"/></g><g class="h" transform="translate(2015 3236) rotate(180)"><rect class="f" width="12.728" height="12.728" transform="translate(12 3) rotate(45)"/><rect class="a" width="24" height="24"/></g></g><g transform="translate(-26 157)"><g class="h" transform="translate(2051 3292) rotate(180)"><rect class="f" width="12.728" height="12.728" transform="translate(12 3) rotate(45)"/><rect class="a" width="24" height="24"/></g><g class="h" transform="translate(2042 3301) rotate(180)"><rect class="f" width="12.728" height="12.728" transform="translate(12 3) rotate(45)"/><rect class="a" width="24" height="24"/></g><g class="h" transform="translate(2042 3278) rotate(180)"><rect class="f" width="12.728" height="12.728" transform="translate(12 3) rotate(45)"/><rect class="a" width="24" height="24"/></g><g class="h" transform="translate(2033 3292) rotate(180)"><rect class="f" width="12.728" height="12.728" transform="translate(12 3) rotate(45)"/><rect class="a" width="24" height="24"/></g></g><g transform="translate(-95 34)"><g class="h" transform="translate(2102 3387) rotate(180)"><rect class="f" width="12.728" height="12.728" transform="translate(12 3) rotate(45)"/><rect class="a" width="24" height="24"/></g><g class="h" transform="translate(2129 3396) rotate(180)"><rect class="f" width="12.728" height="12.728" transform="translate(12 3) rotate(45)"/><rect class="a" width="24" height="24"/></g><g class="h" transform="translate(2120 3387) rotate(180)"><rect class="f" width="12.728" height="12.728" transform="translate(12 3) rotate(45)"/><rect class="a" width="24" height="24"/></g><g class="h" transform="translate(2105 3354)"><rect class="f" width="12.728" height="12.728" transform="translate(12 3) rotate(45)"/><rect class="a" width="24" height="24"/></g><g class="h" transform="translate(2069 3354)"><rect class="f" width="12.728" height="12.728" transform="translate(12 3) rotate(45)"/><rect class="a" width="24" height="24"/></g><g class="h" transform="translate(2069 3409)"><rect class="f" width="12.728" height="12.728" transform="translate(12 3) rotate(45)"/><rect class="a" width="24" height="24"/></g><g class="h" transform="translate(2069 3372)"><rect class="f" width="12.728" height="12.728" transform="translate(12 3) rotate(45)"/><rect class="a" width="24" height="24"/></g></g></g></g></g><g class="b" transform="translate(1569 734)"><rect class="i" width="80" height="110"/><rect class="a" x="0.5" y="0.5" width="79" height="109"/></g></g></svg>