<svg xmlns="http://www.w3.org/2000/svg" xmlns:xlink="http://www.w3.org/1999/xlink" width="112" height="173" viewBox="0 0 112 173"><defs><style>.a,.b{fill:none;}.b{stroke:#00ffce;}.c{fill:#121212;stroke:#c9c9c9;stroke-linejoin:bevel;}.d{fill:#c9c9c9;font-size:16px;font-family:PTSans-Regular, PT Sans;}.e{clip-path:url(#a);}.f{fill:#00ffce;}.g{clip-path:url(#c);}.h{clip-path:url(#d);}.i{stroke:none;}</style><clipPath id="a"><rect class="a" width="16" height="16"/></clipPath><clipPath id="c"><rect class="b" width="80" height="110" transform="translate(1549 304)"/></clipPath><clipPath id="d"><rect class="a" width="24" height="24"/></clipPath></defs><g transform="translate(-1553 -281)"><g transform="translate(1361 219)"><g class="c" transform="translate(192 62)"><rect class="i" width="112" height="173" rx="4"/><rect class="a" x="0.5" y="0.5" width="111" height="172" rx="3.5"/></g><text class="d" transform="translate(209 84)"><tspan x="-9.76" y="0">K</tspan></text><text class="d" transform="translate(287 213) rotate(180)"><tspan x="-9.76" y="0">K</tspan></text></g><g transform="translate(936 10)"><g class="e" transform="translate(634 279)"><rect class="f" width="4.243" height="4.243" transform="translate(5 5.667) rotate(-45)"/><rect class="f" width="3.771" height="3.771" transform="translate(2 9.333) rotate(-45)"/><rect class="f" width="3.771" height="3.771" transform="translate(8.667 9.333) rotate(-45)"/><path class="f" d="M133,338.667l-2.667,2.667h5.333Z" transform="translate(-125 -328)"/><rect class="a" width="16" height="16"/></g><g class="e" transform="translate(712 436) rotate(180)"><rect class="f" width="4.243" height="4.243" transform="translate(5 5.667) rotate(-45)"/><rect class="f" width="3.771" height="3.771" transform="translate(2 9.333) rotate(-45)"/><rect class="f" width="3.771" height="3.771" transform="translate(8.667 9.333) rotate(-45)"/><path class="f" d="M133,338.667l-2.667,2.667h5.333Z" transform="translate(-125 -328)"/><rect class="a" width="16" height="16"/></g></g><g transform="translate(-1 -1)"><g class="b" transform="translate(1570 314)"><rect class="i" width="80" height="110"/><rect class="a" x="0.5" y="0.5" width="79" height="109"/></g><g class="g" transform="translate(21 10)"><g transform="translate(0 -4)"><g transform="translate(-1 3)"><g class="h" transform="translate(1543 295)"><rect class="f" width="6.364" height="6.364" transform="translate(7.5 8.5) rotate(-45)"/><rect class="f" width="5.657" height="5.657" transform="translate(3 14) rotate(-45)"/><rect class="f" width="5.657" height="5.657" transform="translate(13 14) rotate(-45)"/><path class="f" d="M146,306l-4,4h8Z" transform="translate(-134 -290)"/><rect class="a" width="24" height="24"/></g><g class="h" transform="translate(1557 299)"><rect class="f" width="6.364" height="6.364" transform="translate(7.5 8.5) rotate(-45)"/><rect class="f" width="5.657" height="5.657" transform="translate(3 14) rotate(-45)"/><rect class="f" width="5.657" height="5.657" transform="translate(13 14) rotate(-45)"/><path class="f" d="M146,306l-4,4h8Z" transform="translate(-134 -290)"/><rect class="a" width="24" height="24"/></g></g><g transform="translate(27 3)"><g class="h" transform="translate(1543 295)"><rect class="f" width="6.364" height="6.364" transform="translate(7.5 8.5) rotate(-45)"/><rect class="f" width="5.657" height="5.657" transform="translate(3 14) rotate(-45)"/><rect class="f" width="5.657" height="5.657" transform="translate(13 14) rotate(-45)"/><path class="f" d="M146,306l-4,4h8Z" transform="translate(-134 -290)"/><rect class="a" width="24" height="24"/></g><g class="h" transform="translate(1557 299)"><rect class="f" width="6.364" height="6.364" transform="translate(7.5 8.5) rotate(-45)"/><rect class="f" width="5.657" height="5.657" transform="translate(3 14) rotate(-45)"/><rect class="f" width="5.657" height="5.657" transform="translate(13 14) rotate(-45)"/><path class="f" d="M146,306l-4,4h8Z" transform="translate(-134 -290)"/><rect class="a" width="24" height="24"/></g></g><g transform="translate(55 3)"><g class="h" transform="translate(1543 295)"><rect class="f" width="6.364" height="6.364" transform="translate(7.5 8.5) rotate(-45)"/><rect class="f" width="5.657" height="5.657" transform="translate(3 14) rotate(-45)"/><rect class="f" width="5.657" height="5.657" transform="translate(13 14) rotate(-45)"/><path class="f" d="M146,306l-4,4h8Z" transform="translate(-134 -290)"/><rect class="a" width="24" height="24"/></g><g class="h" transform="translate(1557 299)"><rect class="f" width="6.364" height="6.364" transform="translate(7.5 8.5) rotate(-45)"/><rect class="f" width="5.657" height="5.657" transform="translate(3 14) rotate(-45)"/><rect class="f" width="5.657" height="5.657" transform="translate(13 14) rotate(-45)"/><path class="f" d="M146,306l-4,4h8Z" transform="translate(-134 -290)"/><rect class="a" width="24" height="24"/></g></g><g transform="translate(-1 15)"><g class="h" transform="translate(1543 295)"><rect class="f" width="6.364" height="6.364" transform="translate(7.5 8.5) rotate(-45)"/><rect class="f" width="5.657" height="5.657" transform="translate(3 14) rotate(-45)"/><rect class="f" width="5.657" height="5.657" transform="translate(13 14) rotate(-45)"/><path class="f" d="M146,306l-4,4h8Z" transform="translate(-134 -290)"/><rect class="a" width="24" height="24"/></g><g class="h" transform="translate(1557 299)"><rect class="f" width="6.364" height="6.364" transform="translate(7.5 8.5) rotate(-45)"/><rect class="f" width="5.657" height="5.657" transform="translate(3 14) rotate(-45)"/><rect class="f" width="5.657" height="5.657" transform="translate(13 14) rotate(-45)"/><path class="f" d="M146,306l-4,4h8Z" transform="translate(-134 -290)"/><rect class="a" width="24" height="24"/></g></g><g transform="translate(27 15)"><g class="h" transform="translate(1543 295)"><rect class="f" width="6.364" height="6.364" transform="translate(7.5 8.5) rotate(-45)"/><rect class="f" width="5.657" height="5.657" transform="translate(3 14) rotate(-45)"/><rect class="f" width="5.657" height="5.657" transform="translate(13 14) rotate(-45)"/><path class="f" d="M146,306l-4,4h8Z" transform="translate(-134 -290)"/><rect class="a" width="24" height="24"/></g><g class="h" transform="translate(1557 299)"><rect class="f" width="6.364" height="6.364" transform="translate(7.5 8.5) rotate(-45)"/><rect class="f" width="5.657" height="5.657" transform="translate(3 14) rotate(-45)"/><rect class="f" width="5.657" height="5.657" transform="translate(13 14) rotate(-45)"/><path class="f" d="M146,306l-4,4h8Z" transform="translate(-134 -290)"/><rect class="a" width="24" height="24"/></g></g><g transform="translate(55 15)"><g class="h" transform="translate(1543 295)"><rect class="f" width="6.364" height="6.364" transform="translate(7.5 8.5) rotate(-45)"/><rect class="f" width="5.657" height="5.657" transform="translate(3 14) rotate(-45)"/><rect class="f" width="5.657" height="5.657" transform="translate(13 14) rotate(-45)"/><path class="f" d="M146,306l-4,4h8Z" transform="translate(-134 -290)"/><rect class="a" width="24" height="24"/></g><g class="h" transform="translate(1557 299)"><rect class="f" width="6.364" height="6.364" transform="translate(7.5 8.5) rotate(-45)"/><rect class="f" width="5.657" height="5.657" transform="translate(3 14) rotate(-45)"/><rect class="f" width="5.657" height="5.657" transform="translate(13 14) rotate(-45)"/><path class="f" d="M146,306l-4,4h8Z" transform="translate(-134 -290)"/><rect class="a" width="24" height="24"/></g></g><g transform="translate(-1 27)"><g class="h" transform="translate(1543 295)"><rect class="f" width="6.364" height="6.364" transform="translate(7.5 8.5) rotate(-45)"/><rect class="f" width="5.657" height="5.657" transform="translate(3 14) rotate(-45)"/><rect class="f" width="5.657" height="5.657" transform="translate(13 14) rotate(-45)"/><path class="f" d="M146,306l-4,4h8Z" transform="translate(-134 -290)"/><rect class="a" width="24" height="24"/></g><g class="h" transform="translate(1557 299)"><rect class="f" width="6.364" height="6.364" transform="translate(7.5 8.5) rotate(-45)"/><rect class="f" width="5.657" height="5.657" transform="translate(3 14) rotate(-45)"/><rect class="f" width="5.657" height="5.657" transform="translate(13 14) rotate(-45)"/><path class="f" d="M146,306l-4,4h8Z" transform="translate(-134 -290)"/><rect class="a" width="24" height="24"/></g></g><g transform="translate(27 27)"><g class="h" transform="translate(1543 295)"><rect class="f" width="6.364" height="6.364" transform="translate(7.5 8.5) rotate(-45)"/><rect class="f" width="5.657" height="5.657" transform="translate(3 14) rotate(-45)"/><rect class="f" width="5.657" height="5.657" transform="translate(13 14) rotate(-45)"/><path class="f" d="M146,306l-4,4h8Z" transform="translate(-134 -290)"/><rect class="a" width="24" height="24"/></g><g class="h" transform="translate(1557 299)"><rect class="f" width="6.364" height="6.364" transform="translate(7.5 8.5) rotate(-45)"/><rect class="f" width="5.657" height="5.657" transform="translate(3 14) rotate(-45)"/><rect class="f" width="5.657" height="5.657" transform="translate(13 14) rotate(-45)"/><path class="f" d="M146,306l-4,4h8Z" transform="translate(-134 -290)"/><rect class="a" width="24" height="24"/></g></g><g transform="translate(55 27)"><g class="h" transform="translate(1543 295)"><rect class="f" width="6.364" height="6.364" transform="translate(7.5 8.5) rotate(-45)"/><rect class="f" width="5.657" height="5.657" transform="translate(3 14) rotate(-45)"/><rect class="f" width="5.657" height="5.657" transform="translate(13 14) rotate(-45)"/><path class="f" d="M146,306l-4,4h8Z" transform="translate(-134 -290)"/><rect class="a" width="24" height="24"/></g><g class="h" transform="translate(1557 299)"><rect class="f" width="6.364" height="6.364" transform="translate(7.5 8.5) rotate(-45)"/><rect class="f" width="5.657" height="5.657" transform="translate(3 14) rotate(-45)"/><rect class="f" width="5.657" height="5.657" transform="translate(13 14) rotate(-45)"/><path class="f" d="M146,306l-4,4h8Z" transform="translate(-134 -290)"/><rect class="a" width="24" height="24"/></g></g><g transform="translate(-1 39)"><g class="h" transform="translate(1543 295)"><rect class="f" width="6.364" height="6.364" transform="translate(7.5 8.5) rotate(-45)"/><rect class="f" width="5.657" height="5.657" transform="translate(3 14) rotate(-45)"/><rect class="f" width="5.657" height="5.657" transform="translate(13 14) rotate(-45)"/><path class="f" d="M146,306l-4,4h8Z" transform="translate(-134 -290)"/><rect class="a" width="24" height="24"/></g><g class="h" transform="translate(1557 299)"><rect class="f" width="6.364" height="6.364" transform="translate(7.5 8.5) rotate(-45)"/><rect class="f" width="5.657" height="5.657" transform="translate(3 14) rotate(-45)"/><rect class="f" width="5.657" height="5.657" transform="translate(13 14) rotate(-45)"/><path class="f" d="M146,306l-4,4h8Z" transform="translate(-134 -290)"/><rect class="a" width="24" height="24"/></g></g><g transform="translate(27 39)"><g class="h" transform="translate(1543 295)"><rect class="f" width="6.364" height="6.364" transform="translate(7.5 8.5) rotate(-45)"/><rect class="f" width="5.657" height="5.657" transform="translate(3 14) rotate(-45)"/><rect class="f" width="5.657" height="5.657" transform="translate(13 14) rotate(-45)"/><path class="f" d="M146,306l-4,4h8Z" transform="translate(-134 -290)"/><rect class="a" width="24" height="24"/></g><g class="h" transform="translate(1557 299)"><rect class="f" width="6.364" height="6.364" transform="translate(7.5 8.5) rotate(-45)"/><rect class="f" width="5.657" height="5.657" transform="translate(3 14) rotate(-45)"/><rect class="f" width="5.657" height="5.657" transform="translate(13 14) rotate(-45)"/><path class="f" d="M146,306l-4,4h8Z" transform="translate(-134 -290)"/><rect class="a" width="24" height="24"/></g></g><g transform="translate(55 39)"><g class="h" transform="translate(1543 295)"><rect class="f" width="6.364" height="6.364" transform="translate(7.5 8.5) rotate(-45)"/><rect class="f" width="5.657" height="5.657" transform="translate(3 14) rotate(-45)"/><rect class="f" width="5.657" height="5.657" transform="translate(13 14) rotate(-45)"/><path class="f" d="M146,306l-4,4h8Z" transform="translate(-134 -290)"/><rect class="a" width="24" height="24"/></g><g class="h" transform="translate(1557 299)"><rect class="f" width="6.364" height="6.364" transform="translate(7.5 8.5) rotate(-45)"/><rect class="f" width="5.657" height="5.657" transform="translate(3 14) rotate(-45)"/><rect class="f" width="5.657" height="5.657" transform="translate(13 14) rotate(-45)"/><path class="f" d="M146,306l-4,4h8Z" transform="translate(-134 -290)"/><rect class="a" width="24" height="24"/></g></g><g transform="translate(-1 51)"><g class="h" transform="translate(1543 295)"><rect class="f" width="6.364" height="6.364" transform="translate(7.5 8.5) rotate(-45)"/><rect class="f" width="5.657" height="5.657" transform="translate(3 14) rotate(-45)"/><rect class="f" width="5.657" height="5.657" transform="translate(13 14) rotate(-45)"/><path class="f" d="M146,306l-4,4h8Z" transform="translate(-134 -290)"/><rect class="a" width="24" height="24"/></g><g class="h" transform="translate(1557 299)"><rect class="f" width="6.364" height="6.364" transform="translate(7.5 8.5) rotate(-45)"/><rect class="f" width="5.657" height="5.657" transform="translate(3 14) rotate(-45)"/><rect class="f" width="5.657" height="5.657" transform="translate(13 14) rotate(-45)"/><path class="f" d="M146,306l-4,4h8Z" transform="translate(-134 -290)"/><rect class="a" width="24" height="24"/></g></g><g transform="translate(27 51)"><g class="h" transform="translate(1543 295)"><rect class="f" width="6.364" height="6.364" transform="translate(7.5 8.5) rotate(-45)"/><rect class="f" width="5.657" height="5.657" transform="translate(3 14) rotate(-45)"/><rect class="f" width="5.657" height="5.657" transform="translate(13 14) rotate(-45)"/><path class="f" d="M146,306l-4,4h8Z" transform="translate(-134 -290)"/><rect class="a" width="24" height="24"/></g><g class="h" transform="translate(1557 299)"><rect class="f" width="6.364" height="6.364" transform="translate(7.5 8.5) rotate(-45)"/><rect class="f" width="5.657" height="5.657" transform="translate(3 14) rotate(-45)"/><rect class="f" width="5.657" height="5.657" transform="translate(13 14) rotate(-45)"/><path class="f" d="M146,306l-4,4h8Z" transform="translate(-134 -290)"/><rect class="a" width="24" height="24"/></g></g><g transform="translate(55 51)"><g class="h" transform="translate(1543 295)"><rect class="f" width="6.364" height="6.364" transform="translate(7.5 8.5) rotate(-45)"/><rect class="f" width="5.657" height="5.657" transform="translate(3 14) rotate(-45)"/><rect class="f" width="5.657" height="5.657" transform="translate(13 14) rotate(-45)"/><path class="f" d="M146,306l-4,4h8Z" transform="translate(-134 -290)"/><rect class="a" width="24" height="24"/></g><g class="h" transform="translate(1557 299)"><rect class="f" width="6.364" height="6.364" transform="translate(7.5 8.5) rotate(-45)"/><rect class="f" width="5.657" height="5.657" transform="translate(3 14) rotate(-45)"/><rect class="f" width="5.657" height="5.657" transform="translate(13 14) rotate(-45)"/><path class="f" d="M146,306l-4,4h8Z" transform="translate(-134 -290)"/><rect class="a" width="24" height="24"/></g></g><g transform="translate(-1 63)"><g class="h" transform="translate(1543 295)"><rect class="f" width="6.364" height="6.364" transform="translate(7.5 8.5) rotate(-45)"/><rect class="f" width="5.657" height="5.657" transform="translate(3 14) rotate(-45)"/><rect class="f" width="5.657" height="5.657" transform="translate(13 14) rotate(-45)"/><path class="f" d="M146,306l-4,4h8Z" transform="translate(-134 -290)"/><rect class="a" width="24" height="24"/></g><g class="h" transform="translate(1557 299)"><rect class="f" width="6.364" height="6.364" transform="translate(7.5 8.5) rotate(-45)"/><rect class="f" width="5.657" height="5.657" transform="translate(3 14) rotate(-45)"/><rect class="f" width="5.657" height="5.657" transform="translate(13 14) rotate(-45)"/><path class="f" d="M146,306l-4,4h8Z" transform="translate(-134 -290)"/><rect class="a" width="24" height="24"/></g></g><g transform="translate(27 63)"><g class="h" transform="translate(1543 295)"><rect class="f" width="6.364" height="6.364" transform="translate(7.5 8.5) rotate(-45)"/><rect class="f" width="5.657" height="5.657" transform="translate(3 14) rotate(-45)"/><rect class="f" width="5.657" height="5.657" transform="translate(13 14) rotate(-45)"/><path class="f" d="M146,306l-4,4h8Z" transform="translate(-134 -290)"/><rect class="a" width="24" height="24"/></g><g class="h" transform="translate(1557 299)"><rect class="f" width="6.364" height="6.364" transform="translate(7.5 8.5) rotate(-45)"/><rect class="f" width="5.657" height="5.657" transform="translate(3 14) rotate(-45)"/><rect class="f" width="5.657" height="5.657" transform="translate(13 14) rotate(-45)"/><path class="f" d="M146,306l-4,4h8Z" transform="translate(-134 -290)"/><rect class="a" width="24" height="24"/></g></g><g transform="translate(55 63)"><g class="h" transform="translate(1543 295)"><rect class="f" width="6.364" height="6.364" transform="translate(7.5 8.5) rotate(-45)"/><rect class="f" width="5.657" height="5.657" transform="translate(3 14) rotate(-45)"/><rect class="f" width="5.657" height="5.657" transform="translate(13 14) rotate(-45)"/><path class="f" d="M146,306l-4,4h8Z" transform="translate(-134 -290)"/><rect class="a" width="24" height="24"/></g><g class="h" transform="translate(1557 299)"><rect class="f" width="6.364" height="6.364" transform="translate(7.5 8.5) rotate(-45)"/><rect class="f" width="5.657" height="5.657" transform="translate(3 14) rotate(-45)"/><rect class="f" width="5.657" height="5.657" transform="translate(13 14) rotate(-45)"/><path class="f" d="M146,306l-4,4h8Z" transform="translate(-134 -290)"/><rect class="a" width="24" height="24"/></g></g><g transform="translate(-1 75)"><g class="h" transform="translate(1543 295)"><rect class="f" width="6.364" height="6.364" transform="translate(7.5 8.5) rotate(-45)"/><rect class="f" width="5.657" height="5.657" transform="translate(3 14) rotate(-45)"/><rect class="f" width="5.657" height="5.657" transform="translate(13 14) rotate(-45)"/><path class="f" d="M146,306l-4,4h8Z" transform="translate(-134 -290)"/><rect class="a" width="24" height="24"/></g><g class="h" transform="translate(1557 299)"><rect class="f" width="6.364" height="6.364" transform="translate(7.5 8.5) rotate(-45)"/><rect class="f" width="5.657" height="5.657" transform="translate(3 14) rotate(-45)"/><rect class="f" width="5.657" height="5.657" transform="translate(13 14) rotate(-45)"/><path class="f" d="M146,306l-4,4h8Z" transform="translate(-134 -290)"/><rect class="a" width="24" height="24"/></g></g><g transform="translate(27 75)"><g class="h" transform="translate(1543 295)"><rect class="f" width="6.364" height="6.364" transform="translate(7.5 8.5) rotate(-45)"/><rect class="f" width="5.657" height="5.657" transform="translate(3 14) rotate(-45)"/><rect class="f" width="5.657" height="5.657" transform="translate(13 14) rotate(-45)"/><path class="f" d="M146,306l-4,4h8Z" transform="translate(-134 -290)"/><rect class="a" width="24" height="24"/></g><g class="h" transform="translate(1557 299)"><rect class="f" width="6.364" height="6.364" transform="translate(7.5 8.5) rotate(-45)"/><rect class="f" width="5.657" height="5.657" transform="translate(3 14) rotate(-45)"/><rect class="f" width="5.657" height="5.657" transform="translate(13 14) rotate(-45)"/><path class="f" d="M146,306l-4,4h8Z" transform="translate(-134 -290)"/><rect class="a" width="24" height="24"/></g></g><g transform="translate(55 75)"><g class="h" transform="translate(1543 295)"><rect class="f" width="6.364" height="6.364" transform="translate(7.5 8.5) rotate(-45)"/><rect class="f" width="5.657" height="5.657" transform="translate(3 14) rotate(-45)"/><rect class="f" width="5.657" height="5.657" transform="translate(13 14) rotate(-45)"/><path class="f" d="M146,306l-4,4h8Z" transform="translate(-134 -290)"/><rect class="a" width="24" height="24"/></g><g class="h" transform="translate(1557 299)"><rect class="f" width="6.364" height="6.364" transform="translate(7.5 8.5) rotate(-45)"/><rect class="f" width="5.657" height="5.657" transform="translate(3 14) rotate(-45)"/><rect class="f" width="5.657" height="5.657" transform="translate(13 14) rotate(-45)"/><path class="f" d="M146,306l-4,4h8Z" transform="translate(-134 -290)"/><rect class="a" width="24" height="24"/></g></g><g transform="translate(-1 87)"><g class="h" transform="translate(1543 295)"><rect class="f" width="6.364" height="6.364" transform="translate(7.5 8.5) rotate(-45)"/><rect class="f" width="5.657" height="5.657" transform="translate(3 14) rotate(-45)"/><rect class="f" width="5.657" height="5.657" transform="translate(13 14) rotate(-45)"/><path class="f" d="M146,306l-4,4h8Z" transform="translate(-134 -290)"/><rect class="a" width="24" height="24"/></g><g class="h" transform="translate(1557 299)"><rect class="f" width="6.364" height="6.364" transform="translate(7.5 8.5) rotate(-45)"/><rect class="f" width="5.657" height="5.657" transform="translate(3 14) rotate(-45)"/><rect class="f" width="5.657" height="5.657" transform="translate(13 14) rotate(-45)"/><path class="f" d="M146,306l-4,4h8Z" transform="translate(-134 -290)"/><rect class="a" width="24" height="24"/></g></g><g transform="translate(27 87)"><g class="h" transform="translate(1543 295)"><rect class="f" width="6.364" height="6.364" transform="translate(7.5 8.5) rotate(-45)"/><rect class="f" width="5.657" height="5.657" transform="translate(3 14) rotate(-45)"/><rect class="f" width="5.657" height="5.657" transform="translate(13 14) rotate(-45)"/><path class="f" d="M146,306l-4,4h8Z" transform="translate(-134 -290)"/><rect class="a" width="24" height="24"/></g><g class="h" transform="translate(1557 299)"><rect class="f" width="6.364" height="6.364" transform="translate(7.5 8.5) rotate(-45)"/><rect class="f" width="5.657" height="5.657" transform="translate(3 14) rotate(-45)"/><rect class="f" width="5.657" height="5.657" transform="translate(13 14) rotate(-45)"/><path class="f" d="M146,306l-4,4h8Z" transform="translate(-134 -290)"/><rect class="a" width="24" height="24"/></g></g><g transform="translate(55 87)"><g class="h" transform="translate(1543 295)"><rect class="f" width="6.364" height="6.364" transform="translate(7.5 8.5) rotate(-45)"/><rect class="f" width="5.657" height="5.657" transform="translate(3 14) rotate(-45)"/><rect class="f" width="5.657" height="5.657" transform="translate(13 14) rotate(-45)"/><path class="f" d="M146,306l-4,4h8Z" transform="translate(-134 -290)"/><rect class="a" width="24" height="24"/></g><g class="h" transform="translate(1557 299)"><rect class="f" width="6.364" height="6.364" transform="translate(7.5 8.5) rotate(-45)"/><rect class="f" width="5.657" height="5.657" transform="translate(3 14) rotate(-45)"/><rect class="f" width="5.657" height="5.657" transform="translate(13 14) rotate(-45)"/><path class="f" d="M146,306l-4,4h8Z" transform="translate(-134 -290)"/><rect class="a" width="24" height="24"/></g></g><g transform="translate(-1 99)"><g class="h" transform="translate(1543 295)"><rect class="f" width="6.364" height="6.364" transform="translate(7.5 8.5) rotate(-45)"/><rect class="f" width="5.657" height="5.657" transform="translate(3 14) rotate(-45)"/><rect class="f" width="5.657" height="5.657" transform="translate(13 14) rotate(-45)"/><path class="f" d="M146,306l-4,4h8Z" transform="translate(-134 -290)"/><rect class="a" width="24" height="24"/></g><g class="h" transform="translate(1557 299)"><rect class="f" width="6.364" height="6.364" transform="translate(7.5 8.5) rotate(-45)"/><rect class="f" width="5.657" height="5.657" transform="translate(3 14) rotate(-45)"/><rect class="f" width="5.657" height="5.657" transform="translate(13 14) rotate(-45)"/><path class="f" d="M146,306l-4,4h8Z" transform="translate(-134 -290)"/><rect class="a" width="24" height="24"/></g></g><g transform="translate(-1 111)"><g class="h" transform="translate(1543 295)"><rect class="f" width="6.364" height="6.364" transform="translate(7.5 8.5) rotate(-45)"/><rect class="f" width="5.657" height="5.657" transform="translate(3 14) rotate(-45)"/><rect class="f" width="5.657" height="5.657" transform="translate(13 14) rotate(-45)"/><path class="f" d="M146,306l-4,4h8Z" transform="translate(-134 -290)"/><rect class="a" width="24" height="24"/></g><g class="h" transform="translate(1557 299)"><rect class="f" width="6.364" height="6.364" transform="translate(7.5 8.5) rotate(-45)"/><rect class="f" width="5.657" height="5.657" transform="translate(3 14) rotate(-45)"/><rect class="f" width="5.657" height="5.657" transform="translate(13 14) rotate(-45)"/><path class="f" d="M146,306l-4,4h8Z" transform="translate(-134 -290)"/><rect class="a" width="24" height="24"/></g></g><g transform="translate(27 99)"><g class="h" transform="translate(1543 295)"><rect class="f" width="6.364" height="6.364" transform="translate(7.5 8.5) rotate(-45)"/><rect class="f" width="5.657" height="5.657" transform="translate(3 14) rotate(-45)"/><rect class="f" width="5.657" height="5.657" transform="translate(13 14) rotate(-45)"/><path class="f" d="M146,306l-4,4h8Z" transform="translate(-134 -290)"/><rect class="a" width="24" height="24"/></g><g class="h" transform="translate(1557 299)"><rect class="f" width="6.364" height="6.364" transform="translate(7.5 8.5) rotate(-45)"/><rect class="f" width="5.657" height="5.657" transform="translate(3 14) rotate(-45)"/><rect class="f" width="5.657" height="5.657" transform="translate(13 14) rotate(-45)"/><path class="f" d="M146,306l-4,4h8Z" transform="translate(-134 -290)"/><rect class="a" width="24" height="24"/></g></g><g transform="translate(27 111)"><g class="h" transform="translate(1543 295)"><rect class="f" width="6.364" height="6.364" transform="translate(7.5 8.5) rotate(-45)"/><rect class="f" width="5.657" height="5.657" transform="translate(3 14) rotate(-45)"/><rect class="f" width="5.657" height="5.657" transform="translate(13 14) rotate(-45)"/><path class="f" d="M146,306l-4,4h8Z" transform="translate(-134 -290)"/><rect class="a" width="24" height="24"/></g><g class="h" transform="translate(1557 299)"><rect class="f" width="6.364" height="6.364" transform="translate(7.5 8.5) rotate(-45)"/><rect class="f" width="5.657" height="5.657" transform="translate(3 14) rotate(-45)"/><rect class="f" width="5.657" height="5.657" transform="translate(13 14) rotate(-45)"/><path class="f" d="M146,306l-4,4h8Z" transform="translate(-134 -290)"/><rect class="a" width="24" height="24"/></g></g><g transform="translate(55 99)"><g class="h" transform="translate(1543 295)"><rect class="f" width="6.364" height="6.364" transform="translate(7.5 8.5) rotate(-45)"/><rect class="f" width="5.657" height="5.657" transform="translate(3 14) rotate(-45)"/><rect class="f" width="5.657" height="5.657" transform="translate(13 14) rotate(-45)"/><path class="f" d="M146,306l-4,4h8Z" transform="translate(-134 -290)"/><rect class="a" width="24" height="24"/></g><g class="h" transform="translate(1557 299)"><rect class="f" width="6.364" height="6.364" transform="translate(7.5 8.5) rotate(-45)"/><rect class="f" width="5.657" height="5.657" transform="translate(3 14) rotate(-45)"/><rect class="f" width="5.657" height="5.657" transform="translate(13 14) rotate(-45)"/><path class="f" d="M146,306l-4,4h8Z" transform="translate(-134 -290)"/><rect class="a" width="24" height="24"/></g></g><g transform="translate(55 111)"><g class="h" transform="translate(1543 295)"><rect class="f" width="6.364" height="6.364" transform="translate(7.5 8.5) rotate(-45)"/><rect class="f" width="5.657" height="5.657" transform="translate(3 14) rotate(-45)"/><rect class="f" width="5.657" height="5.657" transform="translate(13 14) rotate(-45)"/><path class="f" d="M146,306l-4,4h8Z" transform="translate(-134 -290)"/><rect class="a" width="24" height="24"/></g><g class="h" transform="translate(1557 299)"><rect class="f" width="6.364" height="6.364" transform="translate(7.5 8.5) rotate(-45)"/><rect class="f" width="5.657" height="5.657" transform="translate(3 14) rotate(-45)"/><rect class="f" width="5.657" height="5.657" transform="translate(13 14) rotate(-45)"/><path class="f" d="M146,306l-4,4h8Z" transform="translate(-134 -290)"/><rect class="a" width="24" height="24"/></g></g></g></g></g></g></svg>