<svg xmlns="http://www.w3.org/2000/svg" xmlns:xlink="http://www.w3.org/1999/xlink" width="112" height="173" viewBox="0 0 112 173"><defs><style>.a,.b{fill:none;}.b{stroke:#a617ff;}.c{fill:#121212;stroke:#c9c9c9;stroke-linejoin:bevel;}.d{fill:#c9c9c9;font-size:16px;font-family:PTSans-Regular, PT Sans;}.e{clip-path:url(#a);}.f{fill:#a617ff;}.g{clip-path:url(#c);}.h{clip-path:url(#d);}.i{stroke:none;}</style><clipPath id="a"><rect class="a" width="16" height="16"/></clipPath><clipPath id="c"><rect class="b" width="80" height="110" transform="translate(1415 724)"/></clipPath><clipPath id="d"><rect class="a" width="24" height="24"/></clipPath></defs><g transform="translate(-1419 -701)"><g transform="translate(1227 639)"><g class="c" transform="translate(192 62)"><rect class="i" width="112" height="173" rx="4"/><rect class="a" x="0.5" y="0.5" width="111" height="172" rx="3.5"/></g><text class="d" transform="translate(209 84)"><tspan x="-10.944" y="0">Q</tspan></text><text class="d" transform="translate(287 213) rotate(180)"><tspan x="-10.944" y="0">Q</tspan></text></g><g class="e" transform="translate(1436 709)"><rect class="f" width="8.485" height="8.485" transform="translate(8 2) rotate(45)"/><rect class="a" width="16" height="16"/></g><g class="e" transform="translate(1498 850)"><rect class="f" width="8.485" height="8.485" transform="translate(8 2) rotate(45)"/><rect class="a" width="16" height="16"/></g><g class="g" transform="translate(20 10)"><g transform="translate(-42 -14)"><g transform="translate(-1 -4)"><g class="h" transform="translate(1414 749)"><rect class="f" width="12.728" height="12.728" transform="translate(12 3) rotate(45)"/><rect class="a" width="24" height="24"/></g><g class="h" transform="translate(1432 749)"><rect class="f" width="12.728" height="12.728" transform="translate(12 3) rotate(45)"/><rect class="a" width="24" height="24"/></g><g class="h" transform="translate(1405 776)"><rect class="f" width="12.728" height="12.728" transform="translate(12 3) rotate(45)"/><rect class="a" width="24" height="24"/></g><g class="h" transform="translate(1414 767)"><rect class="f" width="12.728" height="12.728" transform="translate(12 3) rotate(45)"/><rect class="a" width="24" height="24"/></g><g class="h" transform="translate(1423 722)"><rect class="f" width="12.728" height="12.728" transform="translate(12 3) rotate(45)"/><rect class="a" width="24" height="24"/></g><g class="h" transform="translate(1423 776)"><rect class="f" width="12.728" height="12.728" transform="translate(12 3) rotate(45)"/><rect class="a" width="24" height="24"/></g><g class="h" transform="translate(1414 731)"><rect class="f" width="12.728" height="12.728" transform="translate(12 3) rotate(45)"/><rect class="a" width="24" height="24"/></g><g class="h" transform="translate(1405 722)"><rect class="f" width="12.728" height="12.728" transform="translate(12 3) rotate(45)"/><rect class="a" width="24" height="24"/></g></g><g transform="translate(35 -4)"><g class="h" transform="translate(1414 749)"><rect class="f" width="12.728" height="12.728" transform="translate(12 3) rotate(45)"/><rect class="a" width="24" height="24"/></g><g class="h" transform="translate(1432 749)"><rect class="f" width="12.728" height="12.728" transform="translate(12 3) rotate(45)"/><rect class="a" width="24" height="24"/></g><g class="h" transform="translate(1405 776)"><rect class="f" width="12.728" height="12.728" transform="translate(12 3) rotate(45)"/><rect class="a" width="24" height="24"/></g><g class="h" transform="translate(1414 767)"><rect class="f" width="12.728" height="12.728" transform="translate(12 3) rotate(45)"/><rect class="a" width="24" height="24"/></g><g class="h" transform="translate(1423 722)"><rect class="f" width="12.728" height="12.728" transform="translate(12 3) rotate(45)"/><rect class="a" width="24" height="24"/></g><g class="h" transform="translate(1423 776)"><rect class="f" width="12.728" height="12.728" transform="translate(12 3) rotate(45)"/><rect class="a" width="24" height="24"/></g><g class="h" transform="translate(1414 731)"><rect class="f" width="12.728" height="12.728" transform="translate(12 3) rotate(45)"/><rect class="a" width="24" height="24"/></g><g class="h" transform="translate(1405 722)"><rect class="f" width="12.728" height="12.728" transform="translate(12 3) rotate(45)"/><rect class="a" width="24" height="24"/></g></g><g transform="translate(71 -4)"><g class="h" transform="translate(1414 749)"><rect class="f" width="12.728" height="12.728" transform="translate(12 3) rotate(45)"/><rect class="a" width="24" height="24"/></g><g class="h" transform="translate(1432 749)"><rect class="f" width="12.728" height="12.728" transform="translate(12 3) rotate(45)"/><rect class="a" width="24" height="24"/></g><g class="h" transform="translate(1405 776)"><rect class="f" width="12.728" height="12.728" transform="translate(12 3) rotate(45)"/><rect class="a" width="24" height="24"/></g><g class="h" transform="translate(1414 767)"><rect class="f" width="12.728" height="12.728" transform="translate(12 3) rotate(45)"/><rect class="a" width="24" height="24"/></g><g class="h" transform="translate(1423 722)"><rect class="f" width="12.728" height="12.728" transform="translate(12 3) rotate(45)"/><rect class="a" width="24" height="24"/></g><g class="h" transform="translate(1423 776)"><rect class="f" width="12.728" height="12.728" transform="translate(12 3) rotate(45)"/><rect class="a" width="24" height="24"/></g><g class="h" transform="translate(1414 731)"><rect class="f" width="12.728" height="12.728" transform="translate(12 3) rotate(45)"/><rect class="a" width="24" height="24"/></g><g class="h" transform="translate(1405 722)"><rect class="f" width="12.728" height="12.728" transform="translate(12 3) rotate(45)"/><rect class="a" width="24" height="24"/></g></g><g transform="translate(107 -4)"><g class="h" transform="translate(1414 749)"><rect class="f" width="12.728" height="12.728" transform="translate(12 3) rotate(45)"/><rect class="a" width="24" height="24"/></g><g class="h" transform="translate(1432 749)"><rect class="f" width="12.728" height="12.728" transform="translate(12 3) rotate(45)"/><rect class="a" width="24" height="24"/></g><g class="h" transform="translate(1405 776)"><rect class="f" width="12.728" height="12.728" transform="translate(12 3) rotate(45)"/><rect class="a" width="24" height="24"/></g><g class="h" transform="translate(1414 767)"><rect class="f" width="12.728" height="12.728" transform="translate(12 3) rotate(45)"/><rect class="a" width="24" height="24"/></g><g class="h" transform="translate(1423 722)"><rect class="f" width="12.728" height="12.728" transform="translate(12 3) rotate(45)"/><rect class="a" width="24" height="24"/></g><g class="h" transform="translate(1423 776)"><rect class="f" width="12.728" height="12.728" transform="translate(12 3) rotate(45)"/><rect class="a" width="24" height="24"/></g><g class="h" transform="translate(1414 731)"><rect class="f" width="12.728" height="12.728" transform="translate(12 3) rotate(45)"/><rect class="a" width="24" height="24"/></g><g class="h" transform="translate(1405 722)"><rect class="f" width="12.728" height="12.728" transform="translate(12 3) rotate(45)"/><rect class="a" width="24" height="24"/></g></g><g transform="translate(-1 68)"><g class="h" transform="translate(1414 749)"><rect class="f" width="12.728" height="12.728" transform="translate(12 3) rotate(45)"/><rect class="a" width="24" height="24"/></g><g class="h" transform="translate(1432 749)"><rect class="f" width="12.728" height="12.728" transform="translate(12 3) rotate(45)"/><rect class="a" width="24" height="24"/></g><g class="h" transform="translate(1405 776)"><rect class="f" width="12.728" height="12.728" transform="translate(12 3) rotate(45)"/><rect class="a" width="24" height="24"/></g><g class="h" transform="translate(1414 767)"><rect class="f" width="12.728" height="12.728" transform="translate(12 3) rotate(45)"/><rect class="a" width="24" height="24"/></g><g class="h" transform="translate(1423 722)"><rect class="f" width="12.728" height="12.728" transform="translate(12 3) rotate(45)"/><rect class="a" width="24" height="24"/></g><g class="h" transform="translate(1423 776)"><rect class="f" width="12.728" height="12.728" transform="translate(12 3) rotate(45)"/><rect class="a" width="24" height="24"/></g><g class="h" transform="translate(1414 731)"><rect class="f" width="12.728" height="12.728" transform="translate(12 3) rotate(45)"/><rect class="a" width="24" height="24"/></g><g class="h" transform="translate(1405 722)"><rect class="f" width="12.728" height="12.728" transform="translate(12 3) rotate(45)"/><rect class="a" width="24" height="24"/></g></g><g transform="translate(35 68)"><g class="h" transform="translate(1414 749)"><rect class="f" width="12.728" height="12.728" transform="translate(12 3) rotate(45)"/><rect class="a" width="24" height="24"/></g><g class="h" transform="translate(1432 749)"><rect class="f" width="12.728" height="12.728" transform="translate(12 3) rotate(45)"/><rect class="a" width="24" height="24"/></g><g class="h" transform="translate(1432 731)"><rect class="f" width="12.728" height="12.728" transform="translate(12 3) rotate(45)"/><rect class="a" width="24" height="24"/></g><g class="h" transform="translate(1432 767)"><rect class="f" width="12.728" height="12.728" transform="translate(12 3) rotate(45)"/><rect class="a" width="24" height="24"/></g><g class="h" transform="translate(1432 695)"><rect class="f" width="12.728" height="12.728" transform="translate(12 3) rotate(45)"/><rect class="a" width="24" height="24"/></g><g class="h" transform="translate(1432 659)"><rect class="f" width="12.728" height="12.728" transform="translate(12 3) rotate(45)"/><rect class="a" width="24" height="24"/></g><g class="h" transform="translate(1468 731)"><rect class="f" width="12.728" height="12.728" transform="translate(12 3) rotate(45)"/><rect class="a" width="24" height="24"/></g><g class="h" transform="translate(1468 767)"><rect class="f" width="12.728" height="12.728" transform="translate(12 3) rotate(45)"/><rect class="a" width="24" height="24"/></g><g class="h" transform="translate(1468 695)"><rect class="f" width="12.728" height="12.728" transform="translate(12 3) rotate(45)"/><rect class="a" width="24" height="24"/></g><g class="h" transform="translate(1468 659)"><rect class="f" width="12.728" height="12.728" transform="translate(12 3) rotate(45)"/><rect class="a" width="24" height="24"/></g><g class="h" transform="translate(1405 776)"><rect class="f" width="12.728" height="12.728" transform="translate(12 3) rotate(45)"/><rect class="a" width="24" height="24"/></g><g class="h" transform="translate(1414 767)"><rect class="f" width="12.728" height="12.728" transform="translate(12 3) rotate(45)"/><rect class="a" width="24" height="24"/></g><g class="h" transform="translate(1423 722)"><rect class="f" width="12.728" height="12.728" transform="translate(12 3) rotate(45)"/><rect class="a" width="24" height="24"/></g><g class="h" transform="translate(1423 776)"><rect class="f" width="12.728" height="12.728" transform="translate(12 3) rotate(45)"/><rect class="a" width="24" height="24"/></g><g class="h" transform="translate(1414 731)"><rect class="f" width="12.728" height="12.728" transform="translate(12 3) rotate(45)"/><rect class="a" width="24" height="24"/></g><g class="h" transform="translate(1405 722)"><rect class="f" width="12.728" height="12.728" transform="translate(12 3) rotate(45)"/><rect class="a" width="24" height="24"/></g></g><g transform="translate(71 68)"><g class="h" transform="translate(1414 749)"><rect class="f" width="12.728" height="12.728" transform="translate(12 3) rotate(45)"/><rect class="a" width="24" height="24"/></g><g class="h" transform="translate(1432 749)"><rect class="f" width="12.728" height="12.728" transform="translate(12 3) rotate(45)"/><rect class="a" width="24" height="24"/></g><g class="h" transform="translate(1405 776)"><rect class="f" width="12.728" height="12.728" transform="translate(12 3) rotate(45)"/><rect class="a" width="24" height="24"/></g><g class="h" transform="translate(1414 767)"><rect class="f" width="12.728" height="12.728" transform="translate(12 3) rotate(45)"/><rect class="a" width="24" height="24"/></g><g class="h" transform="translate(1423 722)"><rect class="f" width="12.728" height="12.728" transform="translate(12 3) rotate(45)"/><rect class="a" width="24" height="24"/></g><g class="h" transform="translate(1423 776)"><rect class="f" width="12.728" height="12.728" transform="translate(12 3) rotate(45)"/><rect class="a" width="24" height="24"/></g><g class="h" transform="translate(1414 731)"><rect class="f" width="12.728" height="12.728" transform="translate(12 3) rotate(45)"/><rect class="a" width="24" height="24"/></g><g class="h" transform="translate(1405 722)"><rect class="f" width="12.728" height="12.728" transform="translate(12 3) rotate(45)"/><rect class="a" width="24" height="24"/></g></g><g transform="translate(107 68)"><g class="h" transform="translate(1414 749)"><rect class="f" width="12.728" height="12.728" transform="translate(12 3) rotate(45)"/><rect class="a" width="24" height="24"/></g><g class="h" transform="translate(1432 749)"><rect class="f" width="12.728" height="12.728" transform="translate(12 3) rotate(45)"/><rect class="a" width="24" height="24"/></g><g class="h" transform="translate(1405 776)"><rect class="f" width="12.728" height="12.728" transform="translate(12 3) rotate(45)"/><rect class="a" width="24" height="24"/></g><g class="h" transform="translate(1414 767)"><rect class="f" width="12.728" height="12.728" transform="translate(12 3) rotate(45)"/><rect class="a" width="24" height="24"/></g><g class="h" transform="translate(1423 722)"><rect class="f" width="12.728" height="12.728" transform="translate(12 3) rotate(45)"/><rect class="a" width="24" height="24"/></g><g class="h" transform="translate(1423 776)"><rect class="f" width="12.728" height="12.728" transform="translate(12 3) rotate(45)"/><rect class="a" width="24" height="24"/></g><g class="h" transform="translate(1414 731)"><rect class="f" width="12.728" height="12.728" transform="translate(12 3) rotate(45)"/><rect class="a" width="24" height="24"/></g><g class="h" transform="translate(1405 722)"><rect class="f" width="12.728" height="12.728" transform="translate(12 3) rotate(45)"/><rect class="a" width="24" height="24"/></g></g></g></g><g class="b" transform="translate(1435 734)"><rect class="i" width="80" height="110"/><rect class="a" x="0.5" y="0.5" width="79" height="109"/></g></g></svg>