<svg xmlns="http://www.w3.org/2000/svg" xmlns:xlink="http://www.w3.org/1999/xlink" width="112" height="173" viewBox="0 0 112 173"><defs><style>.a,.c{fill:#121212;}.a{stroke:#707070;}.b,.h{fill:none;}.c{stroke:#c9c9c9;stroke-linejoin:bevel;}.d{fill:#c9c9c9;font-size:16px;font-family:PTSans-Regular, PT Sans;}.e{clip-path:url(#a);}.f{clip-path:url(#b);}.g{fill:#00ffce;}.h{stroke:#00ffce;}.i{clip-path:url(#ax);}.j{stroke:none;}</style><clipPath id="a"><rect class="a" width="80" height="110" transform="translate(1415 96)"/></clipPath><clipPath id="b"><rect class="b" width="24" height="24"/></clipPath><clipPath id="ax"><rect class="b" width="16" height="16"/></clipPath></defs><g transform="translate(-1419 -72)"><g class="c" transform="translate(1419 72)"><rect class="j" width="112" height="173" rx="4"/><rect class="b" x="0.5" y="0.5" width="111" height="172" rx="3.5"/></g><text class="d" transform="translate(1436 94)"><tspan x="-10.944" y="0">Q</tspan></text><text class="d" transform="translate(1514 223) rotate(180)"><tspan x="-10.944" y="0">Q</tspan></text><g transform="translate(-1 -2)"><g class="e" transform="translate(21 10)"><g transform="translate(-8 -7)"><g class="f" transform="translate(1406 90)"><path class="g" d="M121,294l9,9-5,5-4-4-4,4-5-5Z" transform="translate(-109 -290)"/><path class="g" d="M121,306l-4,4h8Z" transform="translate(-109 -290)"/><rect class="b" width="24" height="24"/></g><g class="f" transform="translate(1430 130) rotate(180)"><path class="g" d="M121,294l9,9-5,5-4-4-4,4-5-5Z" transform="translate(-109 -290)"/><path class="g" d="M121,306l-4,4h8Z" transform="translate(-109 -290)"/><rect class="b" width="24" height="24"/></g><g transform="translate(18)"><g class="f" transform="translate(1406 90)"><path class="g" d="M121,294l9,9-5,5-4-4-4,4-5-5Z" transform="translate(-109 -290)"/><path class="g" d="M121,306l-4,4h8Z" transform="translate(-109 -290)"/><rect class="b" width="24" height="24"/></g><g class="f" transform="translate(1430 130) rotate(180)"><path class="g" d="M121,294l9,9-5,5-4-4-4,4-5-5Z" transform="translate(-109 -290)"/><path class="g" d="M121,306l-4,4h8Z" transform="translate(-109 -290)"/><rect class="b" width="24" height="24"/></g></g><g transform="translate(36)"><g class="f" transform="translate(1406 90)"><path class="g" d="M121,294l9,9-5,5-4-4-4,4-5-5Z" transform="translate(-109 -290)"/><path class="g" d="M121,306l-4,4h8Z" transform="translate(-109 -290)"/><rect class="b" width="24" height="24"/></g><g class="f" transform="translate(1430 130) rotate(180)"><path class="g" d="M121,294l9,9-5,5-4-4-4,4-5-5Z" transform="translate(-109 -290)"/><path class="g" d="M121,306l-4,4h8Z" transform="translate(-109 -290)"/><rect class="b" width="24" height="24"/></g></g><g transform="translate(54)"><g class="f" transform="translate(1406 90)"><path class="g" d="M121,294l9,9-5,5-4-4-4,4-5-5Z" transform="translate(-109 -290)"/><path class="g" d="M121,306l-4,4h8Z" transform="translate(-109 -290)"/><rect class="b" width="24" height="24"/></g><g class="f" transform="translate(1430 130) rotate(180)"><path class="g" d="M121,294l9,9-5,5-4-4-4,4-5-5Z" transform="translate(-109 -290)"/><path class="g" d="M121,306l-4,4h8Z" transform="translate(-109 -290)"/><rect class="b" width="24" height="24"/></g></g><g transform="translate(72)"><g class="f" transform="translate(1406 90)"><path class="g" d="M121,294l9,9-5,5-4-4-4,4-5-5Z" transform="translate(-109 -290)"/><path class="g" d="M121,306l-4,4h8Z" transform="translate(-109 -290)"/><rect class="b" width="24" height="24"/></g><g class="f" transform="translate(1430 130) rotate(180)"><path class="g" d="M121,294l9,9-5,5-4-4-4,4-5-5Z" transform="translate(-109 -290)"/><path class="g" d="M121,306l-4,4h8Z" transform="translate(-109 -290)"/><rect class="b" width="24" height="24"/></g></g><g transform="translate(90)"><g class="f" transform="translate(1406 90)"><path class="g" d="M121,294l9,9-5,5-4-4-4,4-5-5Z" transform="translate(-109 -290)"/><path class="g" d="M121,306l-4,4h8Z" transform="translate(-109 -290)"/><rect class="b" width="24" height="24"/></g><g class="f" transform="translate(1430 130) rotate(180)"><path class="g" d="M121,294l9,9-5,5-4-4-4,4-5-5Z" transform="translate(-109 -290)"/><path class="g" d="M121,306l-4,4h8Z" transform="translate(-109 -290)"/><rect class="b" width="24" height="24"/></g></g><g transform="translate(0 32)"><g class="f" transform="translate(1406 90)"><path class="g" d="M121,294l9,9-5,5-4-4-4,4-5-5Z" transform="translate(-109 -290)"/><path class="g" d="M121,306l-4,4h8Z" transform="translate(-109 -290)"/><rect class="b" width="24" height="24"/></g><g class="f" transform="translate(1430 130) rotate(180)"><path class="g" d="M121,294l9,9-5,5-4-4-4,4-5-5Z" transform="translate(-109 -290)"/><path class="g" d="M121,306l-4,4h8Z" transform="translate(-109 -290)"/><rect class="b" width="24" height="24"/></g></g><g transform="translate(18 32)"><g class="f" transform="translate(1406 90)"><path class="g" d="M121,294l9,9-5,5-4-4-4,4-5-5Z" transform="translate(-109 -290)"/><path class="g" d="M121,306l-4,4h8Z" transform="translate(-109 -290)"/><rect class="b" width="24" height="24"/></g><g class="f" transform="translate(1430 130) rotate(180)"><path class="g" d="M121,294l9,9-5,5-4-4-4,4-5-5Z" transform="translate(-109 -290)"/><path class="g" d="M121,306l-4,4h8Z" transform="translate(-109 -290)"/><rect class="b" width="24" height="24"/></g></g><g transform="translate(36 32)"><g class="f" transform="translate(1406 90)"><path class="g" d="M121,294l9,9-5,5-4-4-4,4-5-5Z" transform="translate(-109 -290)"/><path class="g" d="M121,306l-4,4h8Z" transform="translate(-109 -290)"/><rect class="b" width="24" height="24"/></g><g class="f" transform="translate(1430 130) rotate(180)"><path class="g" d="M121,294l9,9-5,5-4-4-4,4-5-5Z" transform="translate(-109 -290)"/><path class="g" d="M121,306l-4,4h8Z" transform="translate(-109 -290)"/><rect class="b" width="24" height="24"/></g></g><g transform="translate(54 32)"><g class="f" transform="translate(1406 90)"><path class="g" d="M121,294l9,9-5,5-4-4-4,4-5-5Z" transform="translate(-109 -290)"/><path class="g" d="M121,306l-4,4h8Z" transform="translate(-109 -290)"/><rect class="b" width="24" height="24"/></g><g class="f" transform="translate(1430 130) rotate(180)"><path class="g" d="M121,294l9,9-5,5-4-4-4,4-5-5Z" transform="translate(-109 -290)"/><path class="g" d="M121,306l-4,4h8Z" transform="translate(-109 -290)"/><rect class="b" width="24" height="24"/></g></g><g transform="translate(72 32)"><g class="f" transform="translate(1406 90)"><path class="g" d="M121,294l9,9-5,5-4-4-4,4-5-5Z" transform="translate(-109 -290)"/><path class="g" d="M121,306l-4,4h8Z" transform="translate(-109 -290)"/><rect class="b" width="24" height="24"/></g><g class="f" transform="translate(1430 130) rotate(180)"><path class="g" d="M121,294l9,9-5,5-4-4-4,4-5-5Z" transform="translate(-109 -290)"/><path class="g" d="M121,306l-4,4h8Z" transform="translate(-109 -290)"/><rect class="b" width="24" height="24"/></g></g><g transform="translate(90 32)"><g class="f" transform="translate(1406 90)"><path class="g" d="M121,294l9,9-5,5-4-4-4,4-5-5Z" transform="translate(-109 -290)"/><path class="g" d="M121,306l-4,4h8Z" transform="translate(-109 -290)"/><rect class="b" width="24" height="24"/></g><g class="f" transform="translate(1430 130) rotate(180)"><path class="g" d="M121,294l9,9-5,5-4-4-4,4-5-5Z" transform="translate(-109 -290)"/><path class="g" d="M121,306l-4,4h8Z" transform="translate(-109 -290)"/><rect class="b" width="24" height="24"/></g></g><g transform="translate(0 64)"><g class="f" transform="translate(1406 90)"><path class="g" d="M121,294l9,9-5,5-4-4-4,4-5-5Z" transform="translate(-109 -290)"/><path class="g" d="M121,306l-4,4h8Z" transform="translate(-109 -290)"/><rect class="b" width="24" height="24"/></g><g class="f" transform="translate(1430 130) rotate(180)"><path class="g" d="M121,294l9,9-5,5-4-4-4,4-5-5Z" transform="translate(-109 -290)"/><path class="g" d="M121,306l-4,4h8Z" transform="translate(-109 -290)"/><rect class="b" width="24" height="24"/></g></g><g transform="translate(18 64)"><g class="f" transform="translate(1406 90)"><path class="g" d="M121,294l9,9-5,5-4-4-4,4-5-5Z" transform="translate(-109 -290)"/><path class="g" d="M121,306l-4,4h8Z" transform="translate(-109 -290)"/><rect class="b" width="24" height="24"/></g><g class="f" transform="translate(1430 130) rotate(180)"><path class="g" d="M121,294l9,9-5,5-4-4-4,4-5-5Z" transform="translate(-109 -290)"/><path class="g" d="M121,306l-4,4h8Z" transform="translate(-109 -290)"/><rect class="b" width="24" height="24"/></g></g><g transform="translate(36 64)"><g class="f" transform="translate(1406 90)"><path class="g" d="M121,294l9,9-5,5-4-4-4,4-5-5Z" transform="translate(-109 -290)"/><path class="g" d="M121,306l-4,4h8Z" transform="translate(-109 -290)"/><rect class="b" width="24" height="24"/></g><g class="f" transform="translate(1430 130) rotate(180)"><path class="g" d="M121,294l9,9-5,5-4-4-4,4-5-5Z" transform="translate(-109 -290)"/><path class="g" d="M121,306l-4,4h8Z" transform="translate(-109 -290)"/><rect class="b" width="24" height="24"/></g></g><g transform="translate(54 64)"><g class="f" transform="translate(1406 90)"><path class="g" d="M121,294l9,9-5,5-4-4-4,4-5-5Z" transform="translate(-109 -290)"/><path class="g" d="M121,306l-4,4h8Z" transform="translate(-109 -290)"/><rect class="b" width="24" height="24"/></g><g class="f" transform="translate(1430 130) rotate(180)"><path class="g" d="M121,294l9,9-5,5-4-4-4,4-5-5Z" transform="translate(-109 -290)"/><path class="g" d="M121,306l-4,4h8Z" transform="translate(-109 -290)"/><rect class="b" width="24" height="24"/></g></g><g transform="translate(72 64)"><g class="f" transform="translate(1406 90)"><path class="g" d="M121,294l9,9-5,5-4-4-4,4-5-5Z" transform="translate(-109 -290)"/><path class="g" d="M121,306l-4,4h8Z" transform="translate(-109 -290)"/><rect class="b" width="24" height="24"/></g><g class="f" transform="translate(1430 130) rotate(180)"><path class="g" d="M121,294l9,9-5,5-4-4-4,4-5-5Z" transform="translate(-109 -290)"/><path class="g" d="M121,306l-4,4h8Z" transform="translate(-109 -290)"/><rect class="b" width="24" height="24"/></g></g><g transform="translate(90 64)"><g class="f" transform="translate(1406 90)"><path class="g" d="M121,294l9,9-5,5-4-4-4,4-5-5Z" transform="translate(-109 -290)"/><path class="g" d="M121,306l-4,4h8Z" transform="translate(-109 -290)"/><rect class="b" width="24" height="24"/></g><g class="f" transform="translate(1430 130) rotate(180)"><path class="g" d="M121,294l9,9-5,5-4-4-4,4-5-5Z" transform="translate(-109 -290)"/><path class="g" d="M121,306l-4,4h8Z" transform="translate(-109 -290)"/><rect class="b" width="24" height="24"/></g></g><g transform="translate(0 96)"><g class="f" transform="translate(1406 90)"><path class="g" d="M121,294l9,9-5,5-4-4-4,4-5-5Z" transform="translate(-109 -290)"/><path class="g" d="M121,306l-4,4h8Z" transform="translate(-109 -290)"/><rect class="b" width="24" height="24"/></g><g class="f" transform="translate(1430 130) rotate(180)"><path class="g" d="M121,294l9,9-5,5-4-4-4,4-5-5Z" transform="translate(-109 -290)"/><path class="g" d="M121,306l-4,4h8Z" transform="translate(-109 -290)"/><rect class="b" width="24" height="24"/></g></g><g transform="translate(18 96)"><g class="f" transform="translate(1406 90)"><path class="g" d="M121,294l9,9-5,5-4-4-4,4-5-5Z" transform="translate(-109 -290)"/><path class="g" d="M121,306l-4,4h8Z" transform="translate(-109 -290)"/><rect class="b" width="24" height="24"/></g><g class="f" transform="translate(1430 130) rotate(180)"><path class="g" d="M121,294l9,9-5,5-4-4-4,4-5-5Z" transform="translate(-109 -290)"/><path class="g" d="M121,306l-4,4h8Z" transform="translate(-109 -290)"/><rect class="b" width="24" height="24"/></g></g><g transform="translate(36 96)"><g class="f" transform="translate(1406 90)"><path class="g" d="M121,294l9,9-5,5-4-4-4,4-5-5Z" transform="translate(-109 -290)"/><path class="g" d="M121,306l-4,4h8Z" transform="translate(-109 -290)"/><rect class="b" width="24" height="24"/></g><g class="f" transform="translate(1430 130) rotate(180)"><path class="g" d="M121,294l9,9-5,5-4-4-4,4-5-5Z" transform="translate(-109 -290)"/><path class="g" d="M121,306l-4,4h8Z" transform="translate(-109 -290)"/><rect class="b" width="24" height="24"/></g></g><g transform="translate(54 96)"><g class="f" transform="translate(1406 90)"><path class="g" d="M121,294l9,9-5,5-4-4-4,4-5-5Z" transform="translate(-109 -290)"/><path class="g" d="M121,306l-4,4h8Z" transform="translate(-109 -290)"/><rect class="b" width="24" height="24"/></g><g class="f" transform="translate(1430 130) rotate(180)"><path class="g" d="M121,294l9,9-5,5-4-4-4,4-5-5Z" transform="translate(-109 -290)"/><path class="g" d="M121,306l-4,4h8Z" transform="translate(-109 -290)"/><rect class="b" width="24" height="24"/></g></g><g transform="translate(72 96)"><g class="f" transform="translate(1406 90)"><path class="g" d="M121,294l9,9-5,5-4-4-4,4-5-5Z" transform="translate(-109 -290)"/><path class="g" d="M121,306l-4,4h8Z" transform="translate(-109 -290)"/><rect class="b" width="24" height="24"/></g><g class="f" transform="translate(1430 130) rotate(180)"><path class="g" d="M121,294l9,9-5,5-4-4-4,4-5-5Z" transform="translate(-109 -290)"/><path class="g" d="M121,306l-4,4h8Z" transform="translate(-109 -290)"/><rect class="b" width="24" height="24"/></g></g><g transform="translate(90 96)"><g class="f" transform="translate(1406 90)"><path class="g" d="M121,294l9,9-5,5-4-4-4,4-5-5Z" transform="translate(-109 -290)"/><path class="g" d="M121,306l-4,4h8Z" transform="translate(-109 -290)"/><rect class="b" width="24" height="24"/></g><g class="f" transform="translate(1430 130) rotate(180)"><path class="g" d="M121,294l9,9-5,5-4-4-4,4-5-5Z" transform="translate(-109 -290)"/><path class="g" d="M121,306l-4,4h8Z" transform="translate(-109 -290)"/><rect class="b" width="24" height="24"/></g></g></g></g><g class="h" transform="translate(1436 106)"><rect class="j" width="80" height="110"/><rect class="b" x="0.5" y="0.5" width="79" height="109"/></g></g><g transform="translate(1341)"><g class="i" transform="translate(94 80)"><path class="g" d="M116.333,330.667l6,6L119,340l-2.667-2.667L113.667,340l-3.333-3.333Z" transform="translate(-108.333 -328)"/><path class="g" d="M116.333,338.667l-2.667,2.667H119Z" transform="translate(-108.333 -328)"/><rect class="b" width="16" height="16"/></g><g class="i" transform="translate(172 237) rotate(180)"><path class="g" d="M116.333,330.667l6,6L119,340l-2.667-2.667L113.667,340l-3.333-3.333Z" transform="translate(-108.333 -328)"/><path class="g" d="M116.333,338.667l-2.667,2.667H119Z" transform="translate(-108.333 -328)"/><rect class="b" width="16" height="16"/></g></g></g></svg>