<svg xmlns="http://www.w3.org/2000/svg" xmlns:xlink="http://www.w3.org/1999/xlink" width="112" height="173" viewBox="0 0 112 173"><defs><style>.a,.b,.g{fill:none;}.b,.c{stroke:#c9c9c9;}.c{fill:#121212;stroke-linejoin:bevel;}.d{fill:#c9c9c9;font-size:16px;font-family:PTSans-Regular, PT Sans;}.e{clip-path:url(#a);}.f{fill:#00ffce;}.g{stroke:#00ffce;}.h{clip-path:url(#c);}.i{clip-path:url(#d);}.j{stroke:none;}</style><clipPath id="a"><rect class="a" width="16" height="16"/></clipPath><clipPath id="c"><rect class="b" width="80" height="110" transform="translate(1415 304)"/></clipPath><clipPath id="d"><rect class="a" width="24" height="24"/></clipPath></defs><g transform="translate(-1419 -281)"><g transform="translate(1227 219)"><g class="c" transform="translate(192 62)"><rect class="j" width="112" height="173" rx="4"/><rect class="a" x="0.5" y="0.5" width="111" height="172" rx="3.5"/></g><text class="d" transform="translate(209 84)"><tspan x="-10.944" y="0">Q</tspan></text><text class="d" transform="translate(287 213) rotate(180)"><tspan x="-10.944" y="0">Q</tspan></text></g><g transform="translate(802 10)"><g class="e" transform="translate(634 279)"><rect class="f" width="4.243" height="4.243" transform="translate(5 5.667) rotate(-45)"/><rect class="f" width="3.771" height="3.771" transform="translate(2 9.333) rotate(-45)"/><rect class="f" width="3.771" height="3.771" transform="translate(8.667 9.333) rotate(-45)"/><path class="f" d="M133,338.667l-2.667,2.667h5.333Z" transform="translate(-125 -328)"/><rect class="a" width="16" height="16"/></g><g class="e" transform="translate(712 436) rotate(180)"><rect class="f" width="4.243" height="4.243" transform="translate(5 5.667) rotate(-45)"/><rect class="f" width="3.771" height="3.771" transform="translate(2 9.333) rotate(-45)"/><rect class="f" width="3.771" height="3.771" transform="translate(8.667 9.333) rotate(-45)"/><path class="f" d="M133,338.667l-2.667,2.667h5.333Z" transform="translate(-125 -328)"/><rect class="a" width="16" height="16"/></g></g><g transform="translate(-1 -1)"><g class="g" transform="translate(1436 314)"><rect class="j" width="80" height="110"/><rect class="a" x="0.5" y="0.5" width="79" height="109"/></g><g class="h" transform="translate(21 10)"><g transform="translate(0 -8)"><g class="i" transform="translate(1420 299)"><rect class="f" width="6.364" height="6.364" transform="translate(7.5 8.5) rotate(-45)"/><rect class="f" width="5.657" height="5.657" transform="translate(3 14) rotate(-45)"/><rect class="f" width="5.657" height="5.657" transform="translate(13 14) rotate(-45)"/><path class="f" d="M146,306l-4,4h8Z" transform="translate(-134 -290)"/><rect class="a" width="24" height="24"/></g><g class="i" transform="translate(1406 315)"><rect class="f" width="6.364" height="6.364" transform="translate(7.5 8.5) rotate(-45)"/><rect class="f" width="5.657" height="5.657" transform="translate(3 14) rotate(-45)"/><rect class="f" width="5.657" height="5.657" transform="translate(13 14) rotate(-45)"/><path class="f" d="M146,306l-4,4h8Z" transform="translate(-134 -290)"/><rect class="a" width="24" height="24"/></g><g class="i" transform="translate(1458 323) rotate(180)"><rect class="f" width="6.364" height="6.364" transform="translate(7.5 8.5) rotate(-45)"/><rect class="f" width="5.657" height="5.657" transform="translate(3 14) rotate(-45)"/><rect class="f" width="5.657" height="5.657" transform="translate(13 14) rotate(-45)"/><path class="f" d="M146,306l-4,4h8Z" transform="translate(-134 -290)"/><rect class="a" width="24" height="24"/></g><g class="i" transform="translate(1434 315)"><rect class="f" width="6.364" height="6.364" transform="translate(7.5 8.5) rotate(-45)"/><rect class="f" width="5.657" height="5.657" transform="translate(3 14) rotate(-45)"/><rect class="f" width="5.657" height="5.657" transform="translate(13 14) rotate(-45)"/><path class="f" d="M146,306l-4,4h8Z" transform="translate(-134 -290)"/><rect class="a" width="24" height="24"/></g><g class="i" transform="translate(1444 339) rotate(180)"><rect class="f" width="6.364" height="6.364" transform="translate(7.5 8.5) rotate(-45)"/><rect class="f" width="5.657" height="5.657" transform="translate(3 14) rotate(-45)"/><rect class="f" width="5.657" height="5.657" transform="translate(13 14) rotate(-45)"/><path class="f" d="M146,306l-4,4h8Z" transform="translate(-134 -290)"/><rect class="a" width="24" height="24"/></g><g class="i" transform="translate(1430 323) rotate(180)"><rect class="f" width="6.364" height="6.364" transform="translate(7.5 8.5) rotate(-45)"/><rect class="f" width="5.657" height="5.657" transform="translate(3 14) rotate(-45)"/><rect class="f" width="5.657" height="5.657" transform="translate(13 14) rotate(-45)"/><path class="f" d="M146,306l-4,4h8Z" transform="translate(-134 -290)"/><rect class="a" width="24" height="24"/></g><g transform="translate(46)"><g class="i" transform="translate(1420 299)"><rect class="f" width="6.364" height="6.364" transform="translate(7.5 8.5) rotate(-45)"/><rect class="f" width="5.657" height="5.657" transform="translate(3 14) rotate(-45)"/><rect class="f" width="5.657" height="5.657" transform="translate(13 14) rotate(-45)"/><path class="f" d="M146,306l-4,4h8Z" transform="translate(-134 -290)"/><rect class="a" width="24" height="24"/></g><g class="i" transform="translate(1406 315)"><rect class="f" width="6.364" height="6.364" transform="translate(7.5 8.5) rotate(-45)"/><rect class="f" width="5.657" height="5.657" transform="translate(3 14) rotate(-45)"/><rect class="f" width="5.657" height="5.657" transform="translate(13 14) rotate(-45)"/><path class="f" d="M146,306l-4,4h8Z" transform="translate(-134 -290)"/><rect class="a" width="24" height="24"/></g><g class="i" transform="translate(1458 323) rotate(180)"><rect class="f" width="6.364" height="6.364" transform="translate(7.5 8.5) rotate(-45)"/><rect class="f" width="5.657" height="5.657" transform="translate(3 14) rotate(-45)"/><rect class="f" width="5.657" height="5.657" transform="translate(13 14) rotate(-45)"/><path class="f" d="M146,306l-4,4h8Z" transform="translate(-134 -290)"/><rect class="a" width="24" height="24"/></g><g class="i" transform="translate(1434 315)"><rect class="f" width="6.364" height="6.364" transform="translate(7.5 8.5) rotate(-45)"/><rect class="f" width="5.657" height="5.657" transform="translate(3 14) rotate(-45)"/><rect class="f" width="5.657" height="5.657" transform="translate(13 14) rotate(-45)"/><path class="f" d="M146,306l-4,4h8Z" transform="translate(-134 -290)"/><rect class="a" width="24" height="24"/></g><g class="i" transform="translate(1444 339) rotate(180)"><rect class="f" width="6.364" height="6.364" transform="translate(7.5 8.5) rotate(-45)"/><rect class="f" width="5.657" height="5.657" transform="translate(3 14) rotate(-45)"/><rect class="f" width="5.657" height="5.657" transform="translate(13 14) rotate(-45)"/><path class="f" d="M146,306l-4,4h8Z" transform="translate(-134 -290)"/><rect class="a" width="24" height="24"/></g><g class="i" transform="translate(1430 323) rotate(180)"><rect class="f" width="6.364" height="6.364" transform="translate(7.5 8.5) rotate(-45)"/><rect class="f" width="5.657" height="5.657" transform="translate(3 14) rotate(-45)"/><rect class="f" width="5.657" height="5.657" transform="translate(13 14) rotate(-45)"/><path class="f" d="M146,306l-4,4h8Z" transform="translate(-134 -290)"/><rect class="a" width="24" height="24"/></g></g><g transform="translate(0 32)"><g class="i" transform="translate(1420 299)"><rect class="f" width="6.364" height="6.364" transform="translate(7.5 8.5) rotate(-45)"/><rect class="f" width="5.657" height="5.657" transform="translate(3 14) rotate(-45)"/><rect class="f" width="5.657" height="5.657" transform="translate(13 14) rotate(-45)"/><path class="f" d="M146,306l-4,4h8Z" transform="translate(-134 -290)"/><rect class="a" width="24" height="24"/></g><g class="i" transform="translate(1406 315)"><rect class="f" width="6.364" height="6.364" transform="translate(7.5 8.5) rotate(-45)"/><rect class="f" width="5.657" height="5.657" transform="translate(3 14) rotate(-45)"/><rect class="f" width="5.657" height="5.657" transform="translate(13 14) rotate(-45)"/><path class="f" d="M146,306l-4,4h8Z" transform="translate(-134 -290)"/><rect class="a" width="24" height="24"/></g><g class="i" transform="translate(1458 323) rotate(180)"><rect class="f" width="6.364" height="6.364" transform="translate(7.5 8.5) rotate(-45)"/><rect class="f" width="5.657" height="5.657" transform="translate(3 14) rotate(-45)"/><rect class="f" width="5.657" height="5.657" transform="translate(13 14) rotate(-45)"/><path class="f" d="M146,306l-4,4h8Z" transform="translate(-134 -290)"/><rect class="a" width="24" height="24"/></g><g class="i" transform="translate(1434 315)"><rect class="f" width="6.364" height="6.364" transform="translate(7.5 8.5) rotate(-45)"/><rect class="f" width="5.657" height="5.657" transform="translate(3 14) rotate(-45)"/><rect class="f" width="5.657" height="5.657" transform="translate(13 14) rotate(-45)"/><path class="f" d="M146,306l-4,4h8Z" transform="translate(-134 -290)"/><rect class="a" width="24" height="24"/></g><g class="i" transform="translate(1444 339) rotate(180)"><rect class="f" width="6.364" height="6.364" transform="translate(7.5 8.5) rotate(-45)"/><rect class="f" width="5.657" height="5.657" transform="translate(3 14) rotate(-45)"/><rect class="f" width="5.657" height="5.657" transform="translate(13 14) rotate(-45)"/><path class="f" d="M146,306l-4,4h8Z" transform="translate(-134 -290)"/><rect class="a" width="24" height="24"/></g><g class="i" transform="translate(1430 323) rotate(180)"><rect class="f" width="6.364" height="6.364" transform="translate(7.5 8.5) rotate(-45)"/><rect class="f" width="5.657" height="5.657" transform="translate(3 14) rotate(-45)"/><rect class="f" width="5.657" height="5.657" transform="translate(13 14) rotate(-45)"/><path class="f" d="M146,306l-4,4h8Z" transform="translate(-134 -290)"/><rect class="a" width="24" height="24"/></g></g><g transform="translate(46 32)"><g class="i" transform="translate(1420 299)"><rect class="f" width="6.364" height="6.364" transform="translate(7.5 8.5) rotate(-45)"/><rect class="f" width="5.657" height="5.657" transform="translate(3 14) rotate(-45)"/><rect class="f" width="5.657" height="5.657" transform="translate(13 14) rotate(-45)"/><path class="f" d="M146,306l-4,4h8Z" transform="translate(-134 -290)"/><rect class="a" width="24" height="24"/></g><g class="i" transform="translate(1406 315)"><rect class="f" width="6.364" height="6.364" transform="translate(7.5 8.5) rotate(-45)"/><rect class="f" width="5.657" height="5.657" transform="translate(3 14) rotate(-45)"/><rect class="f" width="5.657" height="5.657" transform="translate(13 14) rotate(-45)"/><path class="f" d="M146,306l-4,4h8Z" transform="translate(-134 -290)"/><rect class="a" width="24" height="24"/></g><g class="i" transform="translate(1458 323) rotate(180)"><rect class="f" width="6.364" height="6.364" transform="translate(7.5 8.5) rotate(-45)"/><rect class="f" width="5.657" height="5.657" transform="translate(3 14) rotate(-45)"/><rect class="f" width="5.657" height="5.657" transform="translate(13 14) rotate(-45)"/><path class="f" d="M146,306l-4,4h8Z" transform="translate(-134 -290)"/><rect class="a" width="24" height="24"/></g><g class="i" transform="translate(1434 315)"><rect class="f" width="6.364" height="6.364" transform="translate(7.5 8.5) rotate(-45)"/><rect class="f" width="5.657" height="5.657" transform="translate(3 14) rotate(-45)"/><rect class="f" width="5.657" height="5.657" transform="translate(13 14) rotate(-45)"/><path class="f" d="M146,306l-4,4h8Z" transform="translate(-134 -290)"/><rect class="a" width="24" height="24"/></g><g class="i" transform="translate(1444 339) rotate(180)"><rect class="f" width="6.364" height="6.364" transform="translate(7.5 8.5) rotate(-45)"/><rect class="f" width="5.657" height="5.657" transform="translate(3 14) rotate(-45)"/><rect class="f" width="5.657" height="5.657" transform="translate(13 14) rotate(-45)"/><path class="f" d="M146,306l-4,4h8Z" transform="translate(-134 -290)"/><rect class="a" width="24" height="24"/></g><g class="i" transform="translate(1430 323) rotate(180)"><rect class="f" width="6.364" height="6.364" transform="translate(7.5 8.5) rotate(-45)"/><rect class="f" width="5.657" height="5.657" transform="translate(3 14) rotate(-45)"/><rect class="f" width="5.657" height="5.657" transform="translate(13 14) rotate(-45)"/><path class="f" d="M146,306l-4,4h8Z" transform="translate(-134 -290)"/><rect class="a" width="24" height="24"/></g></g><g transform="translate(0 64)"><g class="i" transform="translate(1420 299)"><rect class="f" width="6.364" height="6.364" transform="translate(7.5 8.5) rotate(-45)"/><rect class="f" width="5.657" height="5.657" transform="translate(3 14) rotate(-45)"/><rect class="f" width="5.657" height="5.657" transform="translate(13 14) rotate(-45)"/><path class="f" d="M146,306l-4,4h8Z" transform="translate(-134 -290)"/><rect class="a" width="24" height="24"/></g><g class="i" transform="translate(1406 315)"><rect class="f" width="6.364" height="6.364" transform="translate(7.5 8.5) rotate(-45)"/><rect class="f" width="5.657" height="5.657" transform="translate(3 14) rotate(-45)"/><rect class="f" width="5.657" height="5.657" transform="translate(13 14) rotate(-45)"/><path class="f" d="M146,306l-4,4h8Z" transform="translate(-134 -290)"/><rect class="a" width="24" height="24"/></g><g class="i" transform="translate(1458 323) rotate(180)"><rect class="f" width="6.364" height="6.364" transform="translate(7.5 8.5) rotate(-45)"/><rect class="f" width="5.657" height="5.657" transform="translate(3 14) rotate(-45)"/><rect class="f" width="5.657" height="5.657" transform="translate(13 14) rotate(-45)"/><path class="f" d="M146,306l-4,4h8Z" transform="translate(-134 -290)"/><rect class="a" width="24" height="24"/></g><g class="i" transform="translate(1434 315)"><rect class="f" width="6.364" height="6.364" transform="translate(7.5 8.5) rotate(-45)"/><rect class="f" width="5.657" height="5.657" transform="translate(3 14) rotate(-45)"/><rect class="f" width="5.657" height="5.657" transform="translate(13 14) rotate(-45)"/><path class="f" d="M146,306l-4,4h8Z" transform="translate(-134 -290)"/><rect class="a" width="24" height="24"/></g><g class="i" transform="translate(1444 339) rotate(180)"><rect class="f" width="6.364" height="6.364" transform="translate(7.5 8.5) rotate(-45)"/><rect class="f" width="5.657" height="5.657" transform="translate(3 14) rotate(-45)"/><rect class="f" width="5.657" height="5.657" transform="translate(13 14) rotate(-45)"/><path class="f" d="M146,306l-4,4h8Z" transform="translate(-134 -290)"/><rect class="a" width="24" height="24"/></g><g class="i" transform="translate(1430 323) rotate(180)"><rect class="f" width="6.364" height="6.364" transform="translate(7.5 8.5) rotate(-45)"/><rect class="f" width="5.657" height="5.657" transform="translate(3 14) rotate(-45)"/><rect class="f" width="5.657" height="5.657" transform="translate(13 14) rotate(-45)"/><path class="f" d="M146,306l-4,4h8Z" transform="translate(-134 -290)"/><rect class="a" width="24" height="24"/></g></g><g transform="translate(0 96)"><g class="i" transform="translate(1420 299)"><rect class="f" width="6.364" height="6.364" transform="translate(7.5 8.5) rotate(-45)"/><rect class="f" width="5.657" height="5.657" transform="translate(3 14) rotate(-45)"/><rect class="f" width="5.657" height="5.657" transform="translate(13 14) rotate(-45)"/><path class="f" d="M146,306l-4,4h8Z" transform="translate(-134 -290)"/><rect class="a" width="24" height="24"/></g><g class="i" transform="translate(1406 315)"><rect class="f" width="6.364" height="6.364" transform="translate(7.5 8.5) rotate(-45)"/><rect class="f" width="5.657" height="5.657" transform="translate(3 14) rotate(-45)"/><rect class="f" width="5.657" height="5.657" transform="translate(13 14) rotate(-45)"/><path class="f" d="M146,306l-4,4h8Z" transform="translate(-134 -290)"/><rect class="a" width="24" height="24"/></g><g class="i" transform="translate(1458 323) rotate(180)"><rect class="f" width="6.364" height="6.364" transform="translate(7.5 8.5) rotate(-45)"/><rect class="f" width="5.657" height="5.657" transform="translate(3 14) rotate(-45)"/><rect class="f" width="5.657" height="5.657" transform="translate(13 14) rotate(-45)"/><path class="f" d="M146,306l-4,4h8Z" transform="translate(-134 -290)"/><rect class="a" width="24" height="24"/></g><g class="i" transform="translate(1434 315)"><rect class="f" width="6.364" height="6.364" transform="translate(7.5 8.5) rotate(-45)"/><rect class="f" width="5.657" height="5.657" transform="translate(3 14) rotate(-45)"/><rect class="f" width="5.657" height="5.657" transform="translate(13 14) rotate(-45)"/><path class="f" d="M146,306l-4,4h8Z" transform="translate(-134 -290)"/><rect class="a" width="24" height="24"/></g><g class="i" transform="translate(1444 339) rotate(180)"><rect class="f" width="6.364" height="6.364" transform="translate(7.5 8.5) rotate(-45)"/><rect class="f" width="5.657" height="5.657" transform="translate(3 14) rotate(-45)"/><rect class="f" width="5.657" height="5.657" transform="translate(13 14) rotate(-45)"/><path class="f" d="M146,306l-4,4h8Z" transform="translate(-134 -290)"/><rect class="a" width="24" height="24"/></g><g class="i" transform="translate(1430 323) rotate(180)"><rect class="f" width="6.364" height="6.364" transform="translate(7.5 8.5) rotate(-45)"/><rect class="f" width="5.657" height="5.657" transform="translate(3 14) rotate(-45)"/><rect class="f" width="5.657" height="5.657" transform="translate(13 14) rotate(-45)"/><path class="f" d="M146,306l-4,4h8Z" transform="translate(-134 -290)"/><rect class="a" width="24" height="24"/></g></g><g transform="translate(46 64)"><g class="i" transform="translate(1420 299)"><rect class="f" width="6.364" height="6.364" transform="translate(7.5 8.5) rotate(-45)"/><rect class="f" width="5.657" height="5.657" transform="translate(3 14) rotate(-45)"/><rect class="f" width="5.657" height="5.657" transform="translate(13 14) rotate(-45)"/><path class="f" d="M146,306l-4,4h8Z" transform="translate(-134 -290)"/><rect class="a" width="24" height="24"/></g><g class="i" transform="translate(1406 315)"><rect class="f" width="6.364" height="6.364" transform="translate(7.5 8.5) rotate(-45)"/><rect class="f" width="5.657" height="5.657" transform="translate(3 14) rotate(-45)"/><rect class="f" width="5.657" height="5.657" transform="translate(13 14) rotate(-45)"/><path class="f" d="M146,306l-4,4h8Z" transform="translate(-134 -290)"/><rect class="a" width="24" height="24"/></g><g class="i" transform="translate(1458 323) rotate(180)"><rect class="f" width="6.364" height="6.364" transform="translate(7.5 8.5) rotate(-45)"/><rect class="f" width="5.657" height="5.657" transform="translate(3 14) rotate(-45)"/><rect class="f" width="5.657" height="5.657" transform="translate(13 14) rotate(-45)"/><path class="f" d="M146,306l-4,4h8Z" transform="translate(-134 -290)"/><rect class="a" width="24" height="24"/></g><g class="i" transform="translate(1434 315)"><rect class="f" width="6.364" height="6.364" transform="translate(7.5 8.5) rotate(-45)"/><rect class="f" width="5.657" height="5.657" transform="translate(3 14) rotate(-45)"/><rect class="f" width="5.657" height="5.657" transform="translate(13 14) rotate(-45)"/><path class="f" d="M146,306l-4,4h8Z" transform="translate(-134 -290)"/><rect class="a" width="24" height="24"/></g><g class="i" transform="translate(1444 339) rotate(180)"><rect class="f" width="6.364" height="6.364" transform="translate(7.5 8.5) rotate(-45)"/><rect class="f" width="5.657" height="5.657" transform="translate(3 14) rotate(-45)"/><rect class="f" width="5.657" height="5.657" transform="translate(13 14) rotate(-45)"/><path class="f" d="M146,306l-4,4h8Z" transform="translate(-134 -290)"/><rect class="a" width="24" height="24"/></g><g class="i" transform="translate(1430 323) rotate(180)"><rect class="f" width="6.364" height="6.364" transform="translate(7.5 8.5) rotate(-45)"/><rect class="f" width="5.657" height="5.657" transform="translate(3 14) rotate(-45)"/><rect class="f" width="5.657" height="5.657" transform="translate(13 14) rotate(-45)"/><path class="f" d="M146,306l-4,4h8Z" transform="translate(-134 -290)"/><rect class="a" width="24" height="24"/></g></g><g transform="translate(46 96)"><g class="i" transform="translate(1420 299)"><rect class="f" width="6.364" height="6.364" transform="translate(7.5 8.5) rotate(-45)"/><rect class="f" width="5.657" height="5.657" transform="translate(3 14) rotate(-45)"/><rect class="f" width="5.657" height="5.657" transform="translate(13 14) rotate(-45)"/><path class="f" d="M146,306l-4,4h8Z" transform="translate(-134 -290)"/><rect class="a" width="24" height="24"/></g><g class="i" transform="translate(1406 315)"><rect class="f" width="6.364" height="6.364" transform="translate(7.5 8.5) rotate(-45)"/><rect class="f" width="5.657" height="5.657" transform="translate(3 14) rotate(-45)"/><rect class="f" width="5.657" height="5.657" transform="translate(13 14) rotate(-45)"/><path class="f" d="M146,306l-4,4h8Z" transform="translate(-134 -290)"/><rect class="a" width="24" height="24"/></g><g class="i" transform="translate(1458 323) rotate(180)"><rect class="f" width="6.364" height="6.364" transform="translate(7.5 8.5) rotate(-45)"/><rect class="f" width="5.657" height="5.657" transform="translate(3 14) rotate(-45)"/><rect class="f" width="5.657" height="5.657" transform="translate(13 14) rotate(-45)"/><path class="f" d="M146,306l-4,4h8Z" transform="translate(-134 -290)"/><rect class="a" width="24" height="24"/></g><g class="i" transform="translate(1434 315)"><rect class="f" width="6.364" height="6.364" transform="translate(7.5 8.5) rotate(-45)"/><rect class="f" width="5.657" height="5.657" transform="translate(3 14) rotate(-45)"/><rect class="f" width="5.657" height="5.657" transform="translate(13 14) rotate(-45)"/><path class="f" d="M146,306l-4,4h8Z" transform="translate(-134 -290)"/><rect class="a" width="24" height="24"/></g><g class="i" transform="translate(1444 339) rotate(180)"><rect class="f" width="6.364" height="6.364" transform="translate(7.5 8.5) rotate(-45)"/><rect class="f" width="5.657" height="5.657" transform="translate(3 14) rotate(-45)"/><rect class="f" width="5.657" height="5.657" transform="translate(13 14) rotate(-45)"/><path class="f" d="M146,306l-4,4h8Z" transform="translate(-134 -290)"/><rect class="a" width="24" height="24"/></g><g class="i" transform="translate(1430 323) rotate(180)"><rect class="f" width="6.364" height="6.364" transform="translate(7.5 8.5) rotate(-45)"/><rect class="f" width="5.657" height="5.657" transform="translate(3 14) rotate(-45)"/><rect class="f" width="5.657" height="5.657" transform="translate(13 14) rotate(-45)"/><path class="f" d="M146,306l-4,4h8Z" transform="translate(-134 -290)"/><rect class="a" width="24" height="24"/></g></g></g></g></g></g></svg>