<svg xmlns="http://www.w3.org/2000/svg" xmlns:xlink="http://www.w3.org/1999/xlink" width="112" height="173" viewBox="0 0 112 173"><defs><style>.a{fill:none;}.b{fill:#121212;}.c,.h{fill:#c9c9c9;}.c{font-size:16px;font-family:PTSans-Regular, PT Sans;}.d{clip-path:url(#a);}.e{fill:#00ffce;}.f{clip-path:url(#c);}.g,.h{stroke:none;}</style><clipPath id="a"><rect class="a" width="16" height="16"/></clipPath><clipPath id="c"><rect class="a" width="24" height="24"/></clipPath></defs><g transform="translate(-77 -281)"><g class="b" transform="translate(77 281)"><path class="g" d="M 108.0701751708984 172.5 L 3.929826021194458 172.5 C 2.03860878944397 172.5 0.5 170.9604949951172 0.5 169.0681915283203 L 0.5 3.931826114654541 C 0.5 2.039499998092651 2.03860878944397 0.5 3.929826021194458 0.5 L 108.0701751708984 0.5 C 109.9613876342773 0.5 111.5 2.039499998092651 111.5 3.931826114654541 L 111.5 169.0681915283203 C 111.5 170.9604949951172 109.9613876342773 172.5 108.0701751708984 172.5 Z"/><path class="h" d="M 3.929817199707031 1 C 2.314315795898438 1 1 2.315200805664062 1 3.93182373046875 L 1 169.0681762695312 C 1 170.6847991943359 2.314315795898438 172 3.929817199707031 172 L 108.070182800293 172 C 109.6856842041016 172 111 170.6847991943359 111 169.0681762695312 L 111 3.93182373046875 C 111 2.315200805664062 109.6856842041016 1 108.070182800293 1 L 3.929817199707031 1 M 3.929817199707031 0 L 108.070182800293 0 C 110.2405471801758 0 112 1.76031494140625 112 3.93182373046875 L 112 169.0681762695312 C 112 171.2396545410156 110.2405471801758 173 108.070182800293 173 L 3.929817199707031 173 C 1.759429931640625 173 0 171.2396545410156 0 169.0681762695312 L 0 3.93182373046875 C 0 1.76031494140625 1.759429931640625 0 3.929817199707031 0 Z"/></g><text class="c" transform="translate(94 303)"><tspan x="-8.72" y="0">2</tspan></text><text class="c" transform="translate(172 432) rotate(180)"><tspan x="-8.72" y="0">2</tspan></text><g class="d" transform="translate(94 289)"><rect class="e" width="4.243" height="4.243" transform="translate(5 5.667) rotate(-45)"/><rect class="e" width="3.771" height="3.771" transform="translate(2 9.333) rotate(-45)"/><rect class="e" width="3.771" height="3.771" transform="translate(8.667 9.333) rotate(-45)"/><path class="e" d="M133,338.667l-2.667,2.667h5.333Z" transform="translate(-125 -328)"/><rect class="a" width="16" height="16"/></g><g class="d" transform="translate(172 446) rotate(180)"><rect class="e" width="4.243" height="4.243" transform="translate(5 5.667) rotate(-45)"/><rect class="e" width="3.771" height="3.771" transform="translate(2 9.333) rotate(-45)"/><rect class="e" width="3.771" height="3.771" transform="translate(8.667 9.333) rotate(-45)"/><path class="e" d="M133,338.667l-2.667,2.667h5.333Z" transform="translate(-125 -328)"/><rect class="a" width="16" height="16"/></g><g transform="translate(-1 -1)"><g class="f" transform="translate(122 349)"><rect class="e" width="6.364" height="6.364" transform="translate(7.5 8.5) rotate(-45)"/><rect class="e" width="5.657" height="5.657" transform="translate(3 14) rotate(-45)"/><rect class="e" width="5.657" height="5.657" transform="translate(13 14) rotate(-45)"/><path class="e" d="M146,306l-4,4h8Z" transform="translate(-134 -290)"/><rect class="a" width="24" height="24"/></g><g class="f" transform="translate(146 389) rotate(180)"><rect class="e" width="6.364" height="6.364" transform="translate(7.5 8.5) rotate(-45)"/><rect class="e" width="5.657" height="5.657" transform="translate(3 14) rotate(-45)"/><rect class="e" width="5.657" height="5.657" transform="translate(13 14) rotate(-45)"/><path class="e" d="M146,306l-4,4h8Z" transform="translate(-134 -290)"/><rect class="a" width="24" height="24"/></g></g></g></svg>