<svg xmlns="http://www.w3.org/2000/svg" xmlns:xlink="http://www.w3.org/1999/xlink" width="112" height="173" viewBox="0 0 112 173"><defs><style>.a{fill:none;}.b{fill:#121212;stroke:#c9c9c9;stroke-linejoin:bevel;}.c{fill:#c9c9c9;font-size:16px;font-family:PTSans-Regular, PT Sans;}.d{clip-path:url(#a);}.e{fill:#a617ff;}.f{clip-path:url(#c);}.g{stroke:none;}</style><clipPath id="a"><rect class="a" width="16" height="16"/></clipPath><clipPath id="c"><rect class="a" width="24" height="24"/></clipPath></defs><g transform="translate(-347 -491)"><g class="b" transform="translate(347 491)"><rect class="g" width="112" height="173" rx="4"/><rect class="a" x="0.5" y="0.5" width="111" height="172" rx="3.5"/></g><text class="c" transform="translate(364 513)"><tspan x="-8.72" y="0">4</tspan></text><text class="c" transform="translate(442 642) rotate(180)"><tspan x="-8.72" y="0">4</tspan></text><g transform="translate(291 10)"><g class="d" transform="translate(73 489)"><path class="e" d="M99.667,341.333,93,334.667l4-4,2.667,2.667,2.667-2.667,4,4Z" transform="translate(-91.667 -328)"/><rect class="a" width="16" height="16"/></g><g class="d" transform="translate(151 646) rotate(180)"><path class="e" d="M99.667,341.333,93,334.667l4-4,2.667,2.667,2.667-2.667,4,4Z" transform="translate(-91.667 -328)"/><rect class="a" width="16" height="16"/></g></g><g class="f" transform="translate(381 574)"><path class="e" d="M96,310,86,300l6-6,4,4,4-4,6,6Z" transform="translate(-84 -290)"/><rect class="a" width="24" height="24"/></g><g class="f" transform="translate(405 582) rotate(180)"><path class="e" d="M96,310,86,300l6-6,4,4,4-4,6,6Z" transform="translate(-84 -290)"/><rect class="a" width="24" height="24"/></g><g class="f" transform="translate(425 582) rotate(180)"><path class="e" d="M96,310,86,300l6-6,4,4,4-4,6,6Z" transform="translate(-84 -290)"/><rect class="a" width="24" height="24"/></g><g class="f" transform="translate(401 574)"><path class="e" d="M96,310,86,300l6-6,4,4,4-4,6,6Z" transform="translate(-84 -290)"/><rect class="a" width="24" height="24"/></g></g></svg>