<svg xmlns="http://www.w3.org/2000/svg" xmlns:xlink="http://www.w3.org/1999/xlink" width="112" height="173" viewBox="0 0 112 173"><defs><style>.a,.b{fill:none;}.b{stroke:#a617ff;}.c{fill:#121212;stroke:#c9c9c9;stroke-linejoin:bevel;}.d{fill:#c9c9c9;font-size:16px;font-family:PTSans-Regular, PT Sans;}.e{clip-path:url(#a);}.f{fill:#a617ff;}.g{clip-path:url(#c);}.h{clip-path:url(#d);}.i{stroke:none;}</style><clipPath id="a"><rect class="a" width="16" height="16"/></clipPath><clipPath id="c"><rect class="b" width="80" height="110" transform="translate(1549 514)"/></clipPath><clipPath id="d"><rect class="a" width="24" height="24"/></clipPath></defs><g transform="translate(-1553 -491)"><g transform="translate(1361 429)"><g class="c" transform="translate(192 62)"><rect class="i" width="112" height="173" rx="4"/><rect class="a" x="0.5" y="0.5" width="111" height="172" rx="3.5"/></g><text class="d" transform="translate(209 84)"><tspan x="-9.76" y="0">K</tspan></text><text class="d" transform="translate(287 213) rotate(180)"><tspan x="-9.76" y="0">K</tspan></text></g><g transform="translate(1497 10)"><g class="e" transform="translate(73 489)"><path class="f" d="M99.667,341.333,93,334.667l4-4,2.667,2.667,2.667-2.667,4,4Z" transform="translate(-91.667 -328)"/><rect class="a" width="16" height="16"/></g><g class="e" transform="translate(151 646) rotate(180)"><path class="f" d="M99.667,341.333,93,334.667l4-4,2.667,2.667,2.667-2.667,4,4Z" transform="translate(-91.667 -328)"/><rect class="a" width="16" height="16"/></g></g><g class="g" transform="translate(20 9)"><g transform="translate(-11 -19)"><g transform="translate(-5 -5)"><g class="h" transform="translate(1543 537)"><path class="f" d="M96,310,86,300l6-6,4,4,4-4,6,6Z" transform="translate(-84 -290)"/><rect class="a" width="24" height="24"/></g><g class="h" transform="translate(1567 545) rotate(180)"><path class="f" d="M96,310,86,300l6-6,4,4,4-4,6,6Z" transform="translate(-84 -290)"/><rect class="a" width="24" height="24"/></g><g class="h" transform="translate(1587 545) rotate(180)"><path class="f" d="M96,310,86,300l6-6,4,4,4-4,6,6Z" transform="translate(-84 -290)"/><rect class="a" width="24" height="24"/></g><g class="h" transform="translate(1597 571) rotate(180)"><path class="f" d="M96,310,86,300l6-6,4,4,4-4,6,6Z" transform="translate(-84 -290)"/><rect class="a" width="24" height="24"/></g><g class="h" transform="translate(1577 535) rotate(180)"><path class="f" d="M96,310,86,300l6-6,4,4,4-4,6,6Z" transform="translate(-84 -290)"/><rect class="a" width="24" height="24"/></g><g class="h" transform="translate(1563 537)"><path class="f" d="M96,310,86,300l6-6,4,4,4-4,6,6Z" transform="translate(-84 -290)"/><rect class="a" width="24" height="24"/></g><g class="h" transform="translate(1573 511)"><path class="f" d="M96,310,86,300l6-6,4,4,4-4,6,6Z" transform="translate(-84 -290)"/><rect class="a" width="24" height="24"/></g><g class="h" transform="translate(1553 547)"><path class="f" d="M96,310,86,300l6-6,4,4,4-4,6,6Z" transform="translate(-84 -290)"/><rect class="a" width="24" height="24"/></g></g><g transform="translate(35 -5)"><g class="h" transform="translate(1543 537)"><path class="f" d="M96,310,86,300l6-6,4,4,4-4,6,6Z" transform="translate(-84 -290)"/><rect class="a" width="24" height="24"/></g><g class="h" transform="translate(1567 545) rotate(180)"><path class="f" d="M96,310,86,300l6-6,4,4,4-4,6,6Z" transform="translate(-84 -290)"/><rect class="a" width="24" height="24"/></g><g class="h" transform="translate(1587 545) rotate(180)"><path class="f" d="M96,310,86,300l6-6,4,4,4-4,6,6Z" transform="translate(-84 -290)"/><rect class="a" width="24" height="24"/></g><g class="h" transform="translate(1597 571) rotate(180)"><path class="f" d="M96,310,86,300l6-6,4,4,4-4,6,6Z" transform="translate(-84 -290)"/><rect class="a" width="24" height="24"/></g><g class="h" transform="translate(1577 535) rotate(180)"><path class="f" d="M96,310,86,300l6-6,4,4,4-4,6,6Z" transform="translate(-84 -290)"/><rect class="a" width="24" height="24"/></g><g class="h" transform="translate(1563 537)"><path class="f" d="M96,310,86,300l6-6,4,4,4-4,6,6Z" transform="translate(-84 -290)"/><rect class="a" width="24" height="24"/></g><g class="h" transform="translate(1573 511)"><path class="f" d="M96,310,86,300l6-6,4,4,4-4,6,6Z" transform="translate(-84 -290)"/><rect class="a" width="24" height="24"/></g><g class="h" transform="translate(1553 547)"><path class="f" d="M96,310,86,300l6-6,4,4,4-4,6,6Z" transform="translate(-84 -290)"/><rect class="a" width="24" height="24"/></g></g><g transform="translate(75 -5)"><g class="h" transform="translate(1543 537)"><path class="f" d="M96,310,86,300l6-6,4,4,4-4,6,6Z" transform="translate(-84 -290)"/><rect class="a" width="24" height="24"/></g><g class="h" transform="translate(1567 545) rotate(180)"><path class="f" d="M96,310,86,300l6-6,4,4,4-4,6,6Z" transform="translate(-84 -290)"/><rect class="a" width="24" height="24"/></g><g class="h" transform="translate(1587 545) rotate(180)"><path class="f" d="M96,310,86,300l6-6,4,4,4-4,6,6Z" transform="translate(-84 -290)"/><rect class="a" width="24" height="24"/></g><g class="h" transform="translate(1597 571) rotate(180)"><path class="f" d="M96,310,86,300l6-6,4,4,4-4,6,6Z" transform="translate(-84 -290)"/><rect class="a" width="24" height="24"/></g><g class="h" transform="translate(1577 535) rotate(180)"><path class="f" d="M96,310,86,300l6-6,4,4,4-4,6,6Z" transform="translate(-84 -290)"/><rect class="a" width="24" height="24"/></g><g class="h" transform="translate(1563 537)"><path class="f" d="M96,310,86,300l6-6,4,4,4-4,6,6Z" transform="translate(-84 -290)"/><rect class="a" width="24" height="24"/></g><g class="h" transform="translate(1573 511)"><path class="f" d="M96,310,86,300l6-6,4,4,4-4,6,6Z" transform="translate(-84 -290)"/><rect class="a" width="24" height="24"/></g><g class="h" transform="translate(1553 547)"><path class="f" d="M96,310,86,300l6-6,4,4,4-4,6,6Z" transform="translate(-84 -290)"/><rect class="a" width="24" height="24"/></g></g><g transform="translate(-5 47)"><g class="h" transform="translate(1543 537)"><path class="f" d="M96,310,86,300l6-6,4,4,4-4,6,6Z" transform="translate(-84 -290)"/><rect class="a" width="24" height="24"/></g><g class="h" transform="translate(1567 545) rotate(180)"><path class="f" d="M96,310,86,300l6-6,4,4,4-4,6,6Z" transform="translate(-84 -290)"/><rect class="a" width="24" height="24"/></g><g class="h" transform="translate(1587 545) rotate(180)"><path class="f" d="M96,310,86,300l6-6,4,4,4-4,6,6Z" transform="translate(-84 -290)"/><rect class="a" width="24" height="24"/></g><g class="h" transform="translate(1597 571) rotate(180)"><path class="f" d="M96,310,86,300l6-6,4,4,4-4,6,6Z" transform="translate(-84 -290)"/><rect class="a" width="24" height="24"/></g><g class="h" transform="translate(1577 535) rotate(180)"><path class="f" d="M96,310,86,300l6-6,4,4,4-4,6,6Z" transform="translate(-84 -290)"/><rect class="a" width="24" height="24"/></g><g class="h" transform="translate(1563 537)"><path class="f" d="M96,310,86,300l6-6,4,4,4-4,6,6Z" transform="translate(-84 -290)"/><rect class="a" width="24" height="24"/></g><g class="h" transform="translate(1573 511)"><path class="f" d="M96,310,86,300l6-6,4,4,4-4,6,6Z" transform="translate(-84 -290)"/><rect class="a" width="24" height="24"/></g><g class="h" transform="translate(1553 547)"><path class="f" d="M96,310,86,300l6-6,4,4,4-4,6,6Z" transform="translate(-84 -290)"/><rect class="a" width="24" height="24"/></g></g><g transform="translate(-5 99)"><g class="h" transform="translate(1543 537)"><path class="f" d="M96,310,86,300l6-6,4,4,4-4,6,6Z" transform="translate(-84 -290)"/><rect class="a" width="24" height="24"/></g><g class="h" transform="translate(1567 545) rotate(180)"><path class="f" d="M96,310,86,300l6-6,4,4,4-4,6,6Z" transform="translate(-84 -290)"/><rect class="a" width="24" height="24"/></g><g class="h" transform="translate(1587 545) rotate(180)"><path class="f" d="M96,310,86,300l6-6,4,4,4-4,6,6Z" transform="translate(-84 -290)"/><rect class="a" width="24" height="24"/></g><g class="h" transform="translate(1597 571) rotate(180)"><path class="f" d="M96,310,86,300l6-6,4,4,4-4,6,6Z" transform="translate(-84 -290)"/><rect class="a" width="24" height="24"/></g><g class="h" transform="translate(1577 535) rotate(180)"><path class="f" d="M96,310,86,300l6-6,4,4,4-4,6,6Z" transform="translate(-84 -290)"/><rect class="a" width="24" height="24"/></g><g class="h" transform="translate(1563 537)"><path class="f" d="M96,310,86,300l6-6,4,4,4-4,6,6Z" transform="translate(-84 -290)"/><rect class="a" width="24" height="24"/></g><g class="h" transform="translate(1573 511)"><path class="f" d="M96,310,86,300l6-6,4,4,4-4,6,6Z" transform="translate(-84 -290)"/><rect class="a" width="24" height="24"/></g><g class="h" transform="translate(1553 547)"><path class="f" d="M96,310,86,300l6-6,4,4,4-4,6,6Z" transform="translate(-84 -290)"/><rect class="a" width="24" height="24"/></g></g><g transform="translate(35 47)"><g class="h" transform="translate(1543 537)"><path class="f" d="M96,310,86,300l6-6,4,4,4-4,6,6Z" transform="translate(-84 -290)"/><rect class="a" width="24" height="24"/></g><g class="h" transform="translate(1567 545) rotate(180)"><path class="f" d="M96,310,86,300l6-6,4,4,4-4,6,6Z" transform="translate(-84 -290)"/><rect class="a" width="24" height="24"/></g><g class="h" transform="translate(1587 545) rotate(180)"><path class="f" d="M96,310,86,300l6-6,4,4,4-4,6,6Z" transform="translate(-84 -290)"/><rect class="a" width="24" height="24"/></g><g class="h" transform="translate(1597 571) rotate(180)"><path class="f" d="M96,310,86,300l6-6,4,4,4-4,6,6Z" transform="translate(-84 -290)"/><rect class="a" width="24" height="24"/></g><g class="h" transform="translate(1577 535) rotate(180)"><path class="f" d="M96,310,86,300l6-6,4,4,4-4,6,6Z" transform="translate(-84 -290)"/><rect class="a" width="24" height="24"/></g><g class="h" transform="translate(1563 537)"><path class="f" d="M96,310,86,300l6-6,4,4,4-4,6,6Z" transform="translate(-84 -290)"/><rect class="a" width="24" height="24"/></g><g class="h" transform="translate(1573 511)"><path class="f" d="M96,310,86,300l6-6,4,4,4-4,6,6Z" transform="translate(-84 -290)"/><rect class="a" width="24" height="24"/></g><g class="h" transform="translate(1553 547)"><path class="f" d="M96,310,86,300l6-6,4,4,4-4,6,6Z" transform="translate(-84 -290)"/><rect class="a" width="24" height="24"/></g></g><g transform="translate(35 99)"><g class="h" transform="translate(1543 537)"><path class="f" d="M96,310,86,300l6-6,4,4,4-4,6,6Z" transform="translate(-84 -290)"/><rect class="a" width="24" height="24"/></g><g class="h" transform="translate(1567 545) rotate(180)"><path class="f" d="M96,310,86,300l6-6,4,4,4-4,6,6Z" transform="translate(-84 -290)"/><rect class="a" width="24" height="24"/></g><g class="h" transform="translate(1587 545) rotate(180)"><path class="f" d="M96,310,86,300l6-6,4,4,4-4,6,6Z" transform="translate(-84 -290)"/><rect class="a" width="24" height="24"/></g><g class="h" transform="translate(1597 571) rotate(180)"><path class="f" d="M96,310,86,300l6-6,4,4,4-4,6,6Z" transform="translate(-84 -290)"/><rect class="a" width="24" height="24"/></g><g class="h" transform="translate(1577 535) rotate(180)"><path class="f" d="M96,310,86,300l6-6,4,4,4-4,6,6Z" transform="translate(-84 -290)"/><rect class="a" width="24" height="24"/></g><g class="h" transform="translate(1563 537)"><path class="f" d="M96,310,86,300l6-6,4,4,4-4,6,6Z" transform="translate(-84 -290)"/><rect class="a" width="24" height="24"/></g><g class="h" transform="translate(1573 511)"><path class="f" d="M96,310,86,300l6-6,4,4,4-4,6,6Z" transform="translate(-84 -290)"/><rect class="a" width="24" height="24"/></g><g class="h" transform="translate(1553 547)"><path class="f" d="M96,310,86,300l6-6,4,4,4-4,6,6Z" transform="translate(-84 -290)"/><rect class="a" width="24" height="24"/></g></g><g transform="translate(75 47)"><g class="h" transform="translate(1543 537)"><path class="f" d="M96,310,86,300l6-6,4,4,4-4,6,6Z" transform="translate(-84 -290)"/><rect class="a" width="24" height="24"/></g><g class="h" transform="translate(1567 545) rotate(180)"><path class="f" d="M96,310,86,300l6-6,4,4,4-4,6,6Z" transform="translate(-84 -290)"/><rect class="a" width="24" height="24"/></g><g class="h" transform="translate(1587 545) rotate(180)"><path class="f" d="M96,310,86,300l6-6,4,4,4-4,6,6Z" transform="translate(-84 -290)"/><rect class="a" width="24" height="24"/></g><g class="h" transform="translate(1597 571) rotate(180)"><path class="f" d="M96,310,86,300l6-6,4,4,4-4,6,6Z" transform="translate(-84 -290)"/><rect class="a" width="24" height="24"/></g><g class="h" transform="translate(1577 535) rotate(180)"><path class="f" d="M96,310,86,300l6-6,4,4,4-4,6,6Z" transform="translate(-84 -290)"/><rect class="a" width="24" height="24"/></g><g class="h" transform="translate(1563 537)"><path class="f" d="M96,310,86,300l6-6,4,4,4-4,6,6Z" transform="translate(-84 -290)"/><rect class="a" width="24" height="24"/></g><g class="h" transform="translate(1573 511)"><path class="f" d="M96,310,86,300l6-6,4,4,4-4,6,6Z" transform="translate(-84 -290)"/><rect class="a" width="24" height="24"/></g><g class="h" transform="translate(1553 547)"><path class="f" d="M96,310,86,300l6-6,4,4,4-4,6,6Z" transform="translate(-84 -290)"/><rect class="a" width="24" height="24"/></g></g><g transform="translate(75 99)"><g class="h" transform="translate(1543 537)"><path class="f" d="M96,310,86,300l6-6,4,4,4-4,6,6Z" transform="translate(-84 -290)"/><rect class="a" width="24" height="24"/></g><g class="h" transform="translate(1567 545) rotate(180)"><path class="f" d="M96,310,86,300l6-6,4,4,4-4,6,6Z" transform="translate(-84 -290)"/><rect class="a" width="24" height="24"/></g><g class="h" transform="translate(1587 545) rotate(180)"><path class="f" d="M96,310,86,300l6-6,4,4,4-4,6,6Z" transform="translate(-84 -290)"/><rect class="a" width="24" height="24"/></g><g class="h" transform="translate(1597 571) rotate(180)"><path class="f" d="M96,310,86,300l6-6,4,4,4-4,6,6Z" transform="translate(-84 -290)"/><rect class="a" width="24" height="24"/></g><g class="h" transform="translate(1577 535) rotate(180)"><path class="f" d="M96,310,86,300l6-6,4,4,4-4,6,6Z" transform="translate(-84 -290)"/><rect class="a" width="24" height="24"/></g><g class="h" transform="translate(1563 537)"><path class="f" d="M96,310,86,300l6-6,4,4,4-4,6,6Z" transform="translate(-84 -290)"/><rect class="a" width="24" height="24"/></g><g class="h" transform="translate(1573 511)"><path class="f" d="M96,310,86,300l6-6,4,4,4-4,6,6Z" transform="translate(-84 -290)"/><rect class="a" width="24" height="24"/></g><g class="h" transform="translate(1553 547)"><path class="f" d="M96,310,86,300l6-6,4,4,4-4,6,6Z" transform="translate(-84 -290)"/><rect class="a" width="24" height="24"/></g></g></g></g><g class="b" transform="translate(1569 523)"><rect class="i" width="80" height="110"/><rect class="a" x="0.5" y="0.5" width="79" height="109"/></g></g></svg>