<svg xmlns="http://www.w3.org/2000/svg" xmlns:xlink="http://www.w3.org/1999/xlink" width="112" height="173" viewBox="0 0 112 173"><defs><style>.a{fill:none;}.b{fill:#121212;stroke:#c9c9c9;stroke-linejoin:bevel;}.c{fill:#c9c9c9;font-size:16px;font-family:PTSans-Regular, PT Sans;}.d{clip-path:url(#a);}.e{fill:#a617ff;}.f{clip-path:url(#c);}.g{stroke:none;}</style><clipPath id="a"><rect class="a" width="16" height="16"/></clipPath><clipPath id="c"><rect class="a" width="24" height="24"/></clipPath></defs><g transform="translate(-615 -701)"><g transform="translate(423 639)"><g class="b" transform="translate(192 62)"><rect class="g" width="112" height="173" rx="4"/><rect class="a" x="0.5" y="0.5" width="111" height="172" rx="3.5"/></g><text class="c" transform="translate(209 84)"><tspan x="-8.72" y="0">6</tspan></text><text class="c" transform="translate(287 213) rotate(180)"><tspan x="-8.72" y="0">6</tspan></text></g><g class="d" transform="translate(632 709)"><rect class="e" width="8.485" height="8.485" transform="translate(8 2) rotate(45)"/><rect class="a" width="16" height="16"/></g><g class="d" transform="translate(694 850)"><rect class="e" width="8.485" height="8.485" transform="translate(8 2) rotate(45)"/><rect class="a" width="16" height="16"/></g><g class="f" transform="translate(659 768)"><rect class="e" width="12.728" height="12.728" transform="translate(12 3) rotate(45)"/><rect class="a" width="24" height="24"/></g><g class="f" transform="translate(659 804)"><rect class="e" width="12.728" height="12.728" transform="translate(12 3) rotate(45)"/><rect class="a" width="24" height="24"/></g><g class="f" transform="translate(659 750)"><rect class="e" width="12.728" height="12.728" transform="translate(12 3) rotate(45)"/><rect class="a" width="24" height="24"/></g><g class="f" transform="translate(668 777)"><rect class="e" width="12.728" height="12.728" transform="translate(12 3) rotate(45)"/><rect class="a" width="24" height="24"/></g><g class="f" transform="translate(650 777)"><rect class="e" width="12.728" height="12.728" transform="translate(12 3) rotate(45)"/><rect class="a" width="24" height="24"/></g><g class="f" transform="translate(659 786)"><rect class="e" width="12.728" height="12.728" transform="translate(12 3) rotate(45)"/><rect class="a" width="24" height="24"/></g></g></svg>