<svg xmlns="http://www.w3.org/2000/svg" xmlns:xlink="http://www.w3.org/1999/xlink" width="112" height="173" viewBox="0 0 112 173"><defs><style>.a,.b,.i{fill:none;}.b,.c{stroke:#c9c9c9;}.c{fill:#121212;stroke-linejoin:bevel;}.d{fill:#c9c9c9;font-size:16px;font-family:PTSans-Regular, PT Sans;}.e{clip-path:url(#a);}.f{fill:#a617ff;}.g{clip-path:url(#c);}.h{clip-path:url(#d);}.i{stroke:#a617ff;}.j{stroke:none;}</style><clipPath id="a"><rect class="a" width="16" height="16"/></clipPath><clipPath id="c"><rect class="b" width="80" height="110" transform="translate(1281 514)"/></clipPath><clipPath id="d"><rect class="a" width="24" height="24"/></clipPath></defs><g transform="translate(-1285 -491)"><g transform="translate(1093 429)"><g class="c" transform="translate(192 62)"><rect class="j" width="112" height="173" rx="4"/><rect class="a" x="0.5" y="0.5" width="111" height="172" rx="3.5"/></g><text class="d" transform="translate(209 84)"><tspan x="-4.656" y="0">J</tspan></text><text class="d" transform="translate(287 213) rotate(180)"><tspan x="-4.656" y="0">J</tspan></text></g><g transform="translate(1229 10)"><g class="e" transform="translate(73 489)"><path class="f" d="M99.667,341.333,93,334.667l4-4,2.667,2.667,2.667-2.667,4,4Z" transform="translate(-91.667 -328)"/><rect class="a" width="16" height="16"/></g><g class="e" transform="translate(151 646) rotate(180)"><path class="f" d="M99.667,341.333,93,334.667l4-4,2.667,2.667,2.667-2.667,4,4Z" transform="translate(-91.667 -328)"/><rect class="a" width="16" height="16"/></g></g><g class="g" transform="translate(20 9)"><g transform="translate(-21 -7)"><g transform="translate(-6 -3)"><g class="h" transform="translate(1300 535) rotate(180)"><path class="f" d="M96,310,86,300l6-6,4,4,4-4,6,6Z" transform="translate(-84 -290)"/><rect class="a" width="24" height="24"/></g><g class="h" transform="translate(1276 527)"><path class="f" d="M96,310,86,300l6-6,4,4,4-4,6,6Z" transform="translate(-84 -290)"/><rect class="a" width="24" height="24"/></g></g><g transform="translate(14 -3)"><g class="h" transform="translate(1300 535) rotate(180)"><path class="f" d="M96,310,86,300l6-6,4,4,4-4,6,6Z" transform="translate(-84 -290)"/><rect class="a" width="24" height="24"/></g><g class="h" transform="translate(1276 527)"><path class="f" d="M96,310,86,300l6-6,4,4,4-4,6,6Z" transform="translate(-84 -290)"/><rect class="a" width="24" height="24"/></g></g><g transform="translate(34 -3)"><g class="h" transform="translate(1300 535) rotate(180)"><path class="f" d="M96,310,86,300l6-6,4,4,4-4,6,6Z" transform="translate(-84 -290)"/><rect class="a" width="24" height="24"/></g><g class="h" transform="translate(1276 527)"><path class="f" d="M96,310,86,300l6-6,4,4,4-4,6,6Z" transform="translate(-84 -290)"/><rect class="a" width="24" height="24"/></g></g><g transform="translate(54 -3)"><g class="h" transform="translate(1300 535) rotate(180)"><path class="f" d="M96,310,86,300l6-6,4,4,4-4,6,6Z" transform="translate(-84 -290)"/><rect class="a" width="24" height="24"/></g><g class="h" transform="translate(1276 527)"><path class="f" d="M96,310,86,300l6-6,4,4,4-4,6,6Z" transform="translate(-84 -290)"/><rect class="a" width="24" height="24"/></g></g><g transform="translate(74 -3)"><g class="h" transform="translate(1300 535) rotate(180)"><path class="f" d="M96,310,86,300l6-6,4,4,4-4,6,6Z" transform="translate(-84 -290)"/><rect class="a" width="24" height="24"/></g><g class="h" transform="translate(1276 527)"><path class="f" d="M96,310,86,300l6-6,4,4,4-4,6,6Z" transform="translate(-84 -290)"/><rect class="a" width="24" height="24"/></g></g><g transform="translate(94 -3)"><g class="h" transform="translate(1300 535) rotate(180)"><path class="f" d="M96,310,86,300l6-6,4,4,4-4,6,6Z" transform="translate(-84 -290)"/><rect class="a" width="24" height="24"/></g><g class="h" transform="translate(1276 527)"><path class="f" d="M96,310,86,300l6-6,4,4,4-4,6,6Z" transform="translate(-84 -290)"/><rect class="a" width="24" height="24"/></g></g><g transform="translate(-6 29)"><g class="h" transform="translate(1300 535) rotate(180)"><path class="f" d="M96,310,86,300l6-6,4,4,4-4,6,6Z" transform="translate(-84 -290)"/><rect class="a" width="24" height="24"/></g><g class="h" transform="translate(1276 527)"><path class="f" d="M96,310,86,300l6-6,4,4,4-4,6,6Z" transform="translate(-84 -290)"/><rect class="a" width="24" height="24"/></g></g><g transform="translate(14 29)"><g class="h" transform="translate(1300 535) rotate(180)"><path class="f" d="M96,310,86,300l6-6,4,4,4-4,6,6Z" transform="translate(-84 -290)"/><rect class="a" width="24" height="24"/></g><g class="h" transform="translate(1276 527)"><path class="f" d="M96,310,86,300l6-6,4,4,4-4,6,6Z" transform="translate(-84 -290)"/><rect class="a" width="24" height="24"/></g></g><g transform="translate(34 29)"><g class="h" transform="translate(1300 535) rotate(180)"><path class="f" d="M96,310,86,300l6-6,4,4,4-4,6,6Z" transform="translate(-84 -290)"/><rect class="a" width="24" height="24"/></g><g class="h" transform="translate(1276 527)"><path class="f" d="M96,310,86,300l6-6,4,4,4-4,6,6Z" transform="translate(-84 -290)"/><rect class="a" width="24" height="24"/></g></g><g transform="translate(54 29)"><g class="h" transform="translate(1300 535) rotate(180)"><path class="f" d="M96,310,86,300l6-6,4,4,4-4,6,6Z" transform="translate(-84 -290)"/><rect class="a" width="24" height="24"/></g><g class="h" transform="translate(1276 527)"><path class="f" d="M96,310,86,300l6-6,4,4,4-4,6,6Z" transform="translate(-84 -290)"/><rect class="a" width="24" height="24"/></g></g><g transform="translate(74 29)"><g class="h" transform="translate(1300 535) rotate(180)"><path class="f" d="M96,310,86,300l6-6,4,4,4-4,6,6Z" transform="translate(-84 -290)"/><rect class="a" width="24" height="24"/></g><g class="h" transform="translate(1276 527)"><path class="f" d="M96,310,86,300l6-6,4,4,4-4,6,6Z" transform="translate(-84 -290)"/><rect class="a" width="24" height="24"/></g></g><g transform="translate(94 29)"><g class="h" transform="translate(1300 535) rotate(180)"><path class="f" d="M96,310,86,300l6-6,4,4,4-4,6,6Z" transform="translate(-84 -290)"/><rect class="a" width="24" height="24"/></g><g class="h" transform="translate(1276 527)"><path class="f" d="M96,310,86,300l6-6,4,4,4-4,6,6Z" transform="translate(-84 -290)"/><rect class="a" width="24" height="24"/></g></g><g transform="translate(-6 61)"><g class="h" transform="translate(1300 535) rotate(180)"><path class="f" d="M96,310,86,300l6-6,4,4,4-4,6,6Z" transform="translate(-84 -290)"/><rect class="a" width="24" height="24"/></g><g class="h" transform="translate(1276 527)"><path class="f" d="M96,310,86,300l6-6,4,4,4-4,6,6Z" transform="translate(-84 -290)"/><rect class="a" width="24" height="24"/></g></g><g transform="translate(14 61)"><g class="h" transform="translate(1300 535) rotate(180)"><path class="f" d="M96,310,86,300l6-6,4,4,4-4,6,6Z" transform="translate(-84 -290)"/><rect class="a" width="24" height="24"/></g><g class="h" transform="translate(1276 527)"><path class="f" d="M96,310,86,300l6-6,4,4,4-4,6,6Z" transform="translate(-84 -290)"/><rect class="a" width="24" height="24"/></g></g><g transform="translate(34 61)"><g class="h" transform="translate(1300 535) rotate(180)"><path class="f" d="M96,310,86,300l6-6,4,4,4-4,6,6Z" transform="translate(-84 -290)"/><rect class="a" width="24" height="24"/></g><g class="h" transform="translate(1276 527)"><path class="f" d="M96,310,86,300l6-6,4,4,4-4,6,6Z" transform="translate(-84 -290)"/><rect class="a" width="24" height="24"/></g></g><g transform="translate(54 61)"><g class="h" transform="translate(1300 535) rotate(180)"><path class="f" d="M96,310,86,300l6-6,4,4,4-4,6,6Z" transform="translate(-84 -290)"/><rect class="a" width="24" height="24"/></g><g class="h" transform="translate(1276 527)"><path class="f" d="M96,310,86,300l6-6,4,4,4-4,6,6Z" transform="translate(-84 -290)"/><rect class="a" width="24" height="24"/></g></g><g transform="translate(74 61)"><g class="h" transform="translate(1300 535) rotate(180)"><path class="f" d="M96,310,86,300l6-6,4,4,4-4,6,6Z" transform="translate(-84 -290)"/><rect class="a" width="24" height="24"/></g><g class="h" transform="translate(1276 527)"><path class="f" d="M96,310,86,300l6-6,4,4,4-4,6,6Z" transform="translate(-84 -290)"/><rect class="a" width="24" height="24"/></g></g><g transform="translate(94 61)"><g class="h" transform="translate(1300 535) rotate(180)"><path class="f" d="M96,310,86,300l6-6,4,4,4-4,6,6Z" transform="translate(-84 -290)"/><rect class="a" width="24" height="24"/></g><g class="h" transform="translate(1276 527)"><path class="f" d="M96,310,86,300l6-6,4,4,4-4,6,6Z" transform="translate(-84 -290)"/><rect class="a" width="24" height="24"/></g></g><g transform="translate(-6 93)"><g class="h" transform="translate(1300 535) rotate(180)"><path class="f" d="M96,310,86,300l6-6,4,4,4-4,6,6Z" transform="translate(-84 -290)"/><rect class="a" width="24" height="24"/></g><g class="h" transform="translate(1276 527)"><path class="f" d="M96,310,86,300l6-6,4,4,4-4,6,6Z" transform="translate(-84 -290)"/><rect class="a" width="24" height="24"/></g></g><g transform="translate(14 93)"><g class="h" transform="translate(1300 535) rotate(180)"><path class="f" d="M96,310,86,300l6-6,4,4,4-4,6,6Z" transform="translate(-84 -290)"/><rect class="a" width="24" height="24"/></g><g class="h" transform="translate(1276 527)"><path class="f" d="M96,310,86,300l6-6,4,4,4-4,6,6Z" transform="translate(-84 -290)"/><rect class="a" width="24" height="24"/></g></g><g transform="translate(34 93)"><g class="h" transform="translate(1300 535) rotate(180)"><path class="f" d="M96,310,86,300l6-6,4,4,4-4,6,6Z" transform="translate(-84 -290)"/><rect class="a" width="24" height="24"/></g><g class="h" transform="translate(1276 527)"><path class="f" d="M96,310,86,300l6-6,4,4,4-4,6,6Z" transform="translate(-84 -290)"/><rect class="a" width="24" height="24"/></g></g><g transform="translate(54 93)"><g class="h" transform="translate(1300 535) rotate(180)"><path class="f" d="M96,310,86,300l6-6,4,4,4-4,6,6Z" transform="translate(-84 -290)"/><rect class="a" width="24" height="24"/></g><g class="h" transform="translate(1276 527)"><path class="f" d="M96,310,86,300l6-6,4,4,4-4,6,6Z" transform="translate(-84 -290)"/><rect class="a" width="24" height="24"/></g></g><g transform="translate(74 93)"><g class="h" transform="translate(1300 535) rotate(180)"><path class="f" d="M96,310,86,300l6-6,4,4,4-4,6,6Z" transform="translate(-84 -290)"/><rect class="a" width="24" height="24"/></g><g class="h" transform="translate(1276 527)"><path class="f" d="M96,310,86,300l6-6,4,4,4-4,6,6Z" transform="translate(-84 -290)"/><rect class="a" width="24" height="24"/></g></g><g transform="translate(94 93)"><g class="h" transform="translate(1300 535) rotate(180)"><path class="f" d="M96,310,86,300l6-6,4,4,4-4,6,6Z" transform="translate(-84 -290)"/><rect class="a" width="24" height="24"/></g><g class="h" transform="translate(1276 527)"><path class="f" d="M96,310,86,300l6-6,4,4,4-4,6,6Z" transform="translate(-84 -290)"/><rect class="a" width="24" height="24"/></g></g></g></g><g class="i" transform="translate(1301 523)"><rect class="j" width="80" height="110"/><rect class="a" x="0.5" y="0.5" width="79" height="109"/></g></g></svg>