<svg xmlns="http://www.w3.org/2000/svg" xmlns:xlink="http://www.w3.org/1999/xlink" width="112" height="173" viewBox="0 0 112 173"><defs><style>.a,.d{fill:#c9c9c9;}.a,.c{stroke:#c9c9c9;}.b,.h{fill:none;}.c{fill:#121212;stroke-linejoin:bevel;}.d{font-size:16px;font-family:PTSans-Regular, PT Sans;}.e{clip-path:url(#a);}.f{clip-path:url(#b);}.g{fill:#00ffce;}.h{stroke:#00ffce;}.i{clip-path:url(#az);}.j{stroke:none;}</style><clipPath id="a"><rect class="a" width="80" height="110" transform="translate(1281 95)"/></clipPath><clipPath id="b"><rect class="b" width="24" height="24"/></clipPath><clipPath id="az"><rect class="b" width="16" height="16"/></clipPath></defs><g transform="translate(-1285 -72)"><g class="c" transform="translate(1285 72)"><rect class="j" width="112" height="173" rx="4"/><rect class="b" x="0.5" y="0.5" width="111" height="172" rx="3.5"/></g><text class="d" transform="translate(1302 94)"><tspan x="-4.656" y="0">J</tspan></text><text class="d" transform="translate(1380 223) rotate(180)"><tspan x="-4.656" y="0">J</tspan></text><g transform="translate(-1 -1)"><g class="e" transform="translate(21 10)"><g transform="translate(-1 -5)"><g class="f" transform="translate(1274 88)"><path class="g" d="M121,294l9,9-5,5-4-4-4,4-5-5Z" transform="translate(-109 -290)"/><path class="g" d="M121,306l-4,4h8Z" transform="translate(-109 -290)"/><rect class="b" width="24" height="24"/></g><g class="f" transform="translate(1292 88)"><path class="g" d="M121,294l9,9-5,5-4-4-4,4-5-5Z" transform="translate(-109 -290)"/><path class="g" d="M121,306l-4,4h8Z" transform="translate(-109 -290)"/><rect class="b" width="24" height="24"/></g><g class="f" transform="translate(1310 88)"><path class="g" d="M121,294l9,9-5,5-4-4-4,4-5-5Z" transform="translate(-109 -290)"/><path class="g" d="M121,306l-4,4h8Z" transform="translate(-109 -290)"/><rect class="b" width="24" height="24"/></g><g class="f" transform="translate(1328 88)"><path class="g" d="M121,294l9,9-5,5-4-4-4,4-5-5Z" transform="translate(-109 -290)"/><path class="g" d="M121,306l-4,4h8Z" transform="translate(-109 -290)"/><rect class="b" width="24" height="24"/></g><g class="f" transform="translate(1346 88)"><path class="g" d="M121,294l9,9-5,5-4-4-4,4-5-5Z" transform="translate(-109 -290)"/><path class="g" d="M121,306l-4,4h8Z" transform="translate(-109 -290)"/><rect class="b" width="24" height="24"/></g><g class="f" transform="translate(1274 100)"><path class="g" d="M121,294l9,9-5,5-4-4-4,4-5-5Z" transform="translate(-109 -290)"/><path class="g" d="M121,306l-4,4h8Z" transform="translate(-109 -290)"/><rect class="b" width="24" height="24"/></g><g class="f" transform="translate(1292 100)"><path class="g" d="M121,294l9,9-5,5-4-4-4,4-5-5Z" transform="translate(-109 -290)"/><path class="g" d="M121,306l-4,4h8Z" transform="translate(-109 -290)"/><rect class="b" width="24" height="24"/></g><g class="f" transform="translate(1310 100)"><path class="g" d="M121,294l9,9-5,5-4-4-4,4-5-5Z" transform="translate(-109 -290)"/><path class="g" d="M121,306l-4,4h8Z" transform="translate(-109 -290)"/><rect class="b" width="24" height="24"/></g><g class="f" transform="translate(1328 100)"><path class="g" d="M121,294l9,9-5,5-4-4-4,4-5-5Z" transform="translate(-109 -290)"/><path class="g" d="M121,306l-4,4h8Z" transform="translate(-109 -290)"/><rect class="b" width="24" height="24"/></g><g class="f" transform="translate(1346 100)"><path class="g" d="M121,294l9,9-5,5-4-4-4,4-5-5Z" transform="translate(-109 -290)"/><path class="g" d="M121,306l-4,4h8Z" transform="translate(-109 -290)"/><rect class="b" width="24" height="24"/></g><g class="f" transform="translate(1274 112)"><path class="g" d="M121,294l9,9-5,5-4-4-4,4-5-5Z" transform="translate(-109 -290)"/><path class="g" d="M121,306l-4,4h8Z" transform="translate(-109 -290)"/><rect class="b" width="24" height="24"/></g><g class="f" transform="translate(1292 112)"><path class="g" d="M121,294l9,9-5,5-4-4-4,4-5-5Z" transform="translate(-109 -290)"/><path class="g" d="M121,306l-4,4h8Z" transform="translate(-109 -290)"/><rect class="b" width="24" height="24"/></g><g class="f" transform="translate(1310 112)"><path class="g" d="M121,294l9,9-5,5-4-4-4,4-5-5Z" transform="translate(-109 -290)"/><path class="g" d="M121,306l-4,4h8Z" transform="translate(-109 -290)"/><rect class="b" width="24" height="24"/></g><g class="f" transform="translate(1328 112)"><path class="g" d="M121,294l9,9-5,5-4-4-4,4-5-5Z" transform="translate(-109 -290)"/><path class="g" d="M121,306l-4,4h8Z" transform="translate(-109 -290)"/><rect class="b" width="24" height="24"/></g><g class="f" transform="translate(1346 112)"><path class="g" d="M121,294l9,9-5,5-4-4-4,4-5-5Z" transform="translate(-109 -290)"/><path class="g" d="M121,306l-4,4h8Z" transform="translate(-109 -290)"/><rect class="b" width="24" height="24"/></g><g class="f" transform="translate(1274 124)"><path class="g" d="M121,294l9,9-5,5-4-4-4,4-5-5Z" transform="translate(-109 -290)"/><path class="g" d="M121,306l-4,4h8Z" transform="translate(-109 -290)"/><rect class="b" width="24" height="24"/></g><g class="f" transform="translate(1292 124)"><path class="g" d="M121,294l9,9-5,5-4-4-4,4-5-5Z" transform="translate(-109 -290)"/><path class="g" d="M121,306l-4,4h8Z" transform="translate(-109 -290)"/><rect class="b" width="24" height="24"/></g><g class="f" transform="translate(1310 124)"><path class="g" d="M121,294l9,9-5,5-4-4-4,4-5-5Z" transform="translate(-109 -290)"/><path class="g" d="M121,306l-4,4h8Z" transform="translate(-109 -290)"/><rect class="b" width="24" height="24"/></g><g class="f" transform="translate(1328 124)"><path class="g" d="M121,294l9,9-5,5-4-4-4,4-5-5Z" transform="translate(-109 -290)"/><path class="g" d="M121,306l-4,4h8Z" transform="translate(-109 -290)"/><rect class="b" width="24" height="24"/></g><g class="f" transform="translate(1346 124)"><path class="g" d="M121,294l9,9-5,5-4-4-4,4-5-5Z" transform="translate(-109 -290)"/><path class="g" d="M121,306l-4,4h8Z" transform="translate(-109 -290)"/><rect class="b" width="24" height="24"/></g><g class="f" transform="translate(1274 136)"><path class="g" d="M121,294l9,9-5,5-4-4-4,4-5-5Z" transform="translate(-109 -290)"/><path class="g" d="M121,306l-4,4h8Z" transform="translate(-109 -290)"/><rect class="b" width="24" height="24"/></g><g class="f" transform="translate(1292 136)"><path class="g" d="M121,294l9,9-5,5-4-4-4,4-5-5Z" transform="translate(-109 -290)"/><path class="g" d="M121,306l-4,4h8Z" transform="translate(-109 -290)"/><rect class="b" width="24" height="24"/></g><g class="f" transform="translate(1310 136)"><path class="g" d="M121,294l9,9-5,5-4-4-4,4-5-5Z" transform="translate(-109 -290)"/><path class="g" d="M121,306l-4,4h8Z" transform="translate(-109 -290)"/><rect class="b" width="24" height="24"/></g><g class="f" transform="translate(1328 136)"><path class="g" d="M121,294l9,9-5,5-4-4-4,4-5-5Z" transform="translate(-109 -290)"/><path class="g" d="M121,306l-4,4h8Z" transform="translate(-109 -290)"/><rect class="b" width="24" height="24"/></g><g class="f" transform="translate(1346 136)"><path class="g" d="M121,294l9,9-5,5-4-4-4,4-5-5Z" transform="translate(-109 -290)"/><path class="g" d="M121,306l-4,4h8Z" transform="translate(-109 -290)"/><rect class="b" width="24" height="24"/></g><g class="f" transform="translate(1274 148)"><path class="g" d="M121,294l9,9-5,5-4-4-4,4-5-5Z" transform="translate(-109 -290)"/><path class="g" d="M121,306l-4,4h8Z" transform="translate(-109 -290)"/><rect class="b" width="24" height="24"/></g><g class="f" transform="translate(1292 148)"><path class="g" d="M121,294l9,9-5,5-4-4-4,4-5-5Z" transform="translate(-109 -290)"/><path class="g" d="M121,306l-4,4h8Z" transform="translate(-109 -290)"/><rect class="b" width="24" height="24"/></g><g class="f" transform="translate(1310 148)"><path class="g" d="M121,294l9,9-5,5-4-4-4,4-5-5Z" transform="translate(-109 -290)"/><path class="g" d="M121,306l-4,4h8Z" transform="translate(-109 -290)"/><rect class="b" width="24" height="24"/></g><g class="f" transform="translate(1328 148)"><path class="g" d="M121,294l9,9-5,5-4-4-4,4-5-5Z" transform="translate(-109 -290)"/><path class="g" d="M121,306l-4,4h8Z" transform="translate(-109 -290)"/><rect class="b" width="24" height="24"/></g><g class="f" transform="translate(1346 148)"><path class="g" d="M121,294l9,9-5,5-4-4-4,4-5-5Z" transform="translate(-109 -290)"/><path class="g" d="M121,306l-4,4h8Z" transform="translate(-109 -290)"/><rect class="b" width="24" height="24"/></g><g class="f" transform="translate(1274 160)"><path class="g" d="M121,294l9,9-5,5-4-4-4,4-5-5Z" transform="translate(-109 -290)"/><path class="g" d="M121,306l-4,4h8Z" transform="translate(-109 -290)"/><rect class="b" width="24" height="24"/></g><g class="f" transform="translate(1292 160)"><path class="g" d="M121,294l9,9-5,5-4-4-4,4-5-5Z" transform="translate(-109 -290)"/><path class="g" d="M121,306l-4,4h8Z" transform="translate(-109 -290)"/><rect class="b" width="24" height="24"/></g><g class="f" transform="translate(1310 160)"><path class="g" d="M121,294l9,9-5,5-4-4-4,4-5-5Z" transform="translate(-109 -290)"/><path class="g" d="M121,306l-4,4h8Z" transform="translate(-109 -290)"/><rect class="b" width="24" height="24"/></g><g class="f" transform="translate(1328 160)"><path class="g" d="M121,294l9,9-5,5-4-4-4,4-5-5Z" transform="translate(-109 -290)"/><path class="g" d="M121,306l-4,4h8Z" transform="translate(-109 -290)"/><rect class="b" width="24" height="24"/></g><g class="f" transform="translate(1346 160)"><path class="g" d="M121,294l9,9-5,5-4-4-4,4-5-5Z" transform="translate(-109 -290)"/><path class="g" d="M121,306l-4,4h8Z" transform="translate(-109 -290)"/><rect class="b" width="24" height="24"/></g><g class="f" transform="translate(1274 172)"><path class="g" d="M121,294l9,9-5,5-4-4-4,4-5-5Z" transform="translate(-109 -290)"/><path class="g" d="M121,306l-4,4h8Z" transform="translate(-109 -290)"/><rect class="b" width="24" height="24"/></g><g class="f" transform="translate(1292 172)"><path class="g" d="M121,294l9,9-5,5-4-4-4,4-5-5Z" transform="translate(-109 -290)"/><path class="g" d="M121,306l-4,4h8Z" transform="translate(-109 -290)"/><rect class="b" width="24" height="24"/></g><g class="f" transform="translate(1310 172)"><path class="g" d="M121,294l9,9-5,5-4-4-4,4-5-5Z" transform="translate(-109 -290)"/><path class="g" d="M121,306l-4,4h8Z" transform="translate(-109 -290)"/><rect class="b" width="24" height="24"/></g><g class="f" transform="translate(1328 172)"><path class="g" d="M121,294l9,9-5,5-4-4-4,4-5-5Z" transform="translate(-109 -290)"/><path class="g" d="M121,306l-4,4h8Z" transform="translate(-109 -290)"/><rect class="b" width="24" height="24"/></g><g class="f" transform="translate(1346 172)"><path class="g" d="M121,294l9,9-5,5-4-4-4,4-5-5Z" transform="translate(-109 -290)"/><path class="g" d="M121,306l-4,4h8Z" transform="translate(-109 -290)"/><rect class="b" width="24" height="24"/></g><g class="f" transform="translate(1274 184)"><path class="g" d="M121,294l9,9-5,5-4-4-4,4-5-5Z" transform="translate(-109 -290)"/><path class="g" d="M121,306l-4,4h8Z" transform="translate(-109 -290)"/><rect class="b" width="24" height="24"/></g><g class="f" transform="translate(1292 184)"><path class="g" d="M121,294l9,9-5,5-4-4-4,4-5-5Z" transform="translate(-109 -290)"/><path class="g" d="M121,306l-4,4h8Z" transform="translate(-109 -290)"/><rect class="b" width="24" height="24"/></g><g class="f" transform="translate(1310 184)"><path class="g" d="M121,294l9,9-5,5-4-4-4,4-5-5Z" transform="translate(-109 -290)"/><path class="g" d="M121,306l-4,4h8Z" transform="translate(-109 -290)"/><rect class="b" width="24" height="24"/></g><g class="f" transform="translate(1328 184)"><path class="g" d="M121,294l9,9-5,5-4-4-4,4-5-5Z" transform="translate(-109 -290)"/><path class="g" d="M121,306l-4,4h8Z" transform="translate(-109 -290)"/><rect class="b" width="24" height="24"/></g><g class="f" transform="translate(1346 184)"><path class="g" d="M121,294l9,9-5,5-4-4-4,4-5-5Z" transform="translate(-109 -290)"/><path class="g" d="M121,306l-4,4h8Z" transform="translate(-109 -290)"/><rect class="b" width="24" height="24"/></g><g class="f" transform="translate(1274 196)"><path class="g" d="M121,294l9,9-5,5-4-4-4,4-5-5Z" transform="translate(-109 -290)"/><path class="g" d="M121,306l-4,4h8Z" transform="translate(-109 -290)"/><rect class="b" width="24" height="24"/></g><g class="f" transform="translate(1292 196)"><path class="g" d="M121,294l9,9-5,5-4-4-4,4-5-5Z" transform="translate(-109 -290)"/><path class="g" d="M121,306l-4,4h8Z" transform="translate(-109 -290)"/><rect class="b" width="24" height="24"/></g><g class="f" transform="translate(1310 196)"><path class="g" d="M121,294l9,9-5,5-4-4-4,4-5-5Z" transform="translate(-109 -290)"/><path class="g" d="M121,306l-4,4h8Z" transform="translate(-109 -290)"/><rect class="b" width="24" height="24"/></g><g class="f" transform="translate(1328 196)"><path class="g" d="M121,294l9,9-5,5-4-4-4,4-5-5Z" transform="translate(-109 -290)"/><path class="g" d="M121,306l-4,4h8Z" transform="translate(-109 -290)"/><rect class="b" width="24" height="24"/></g><g class="f" transform="translate(1346 196)"><path class="g" d="M121,294l9,9-5,5-4-4-4,4-5-5Z" transform="translate(-109 -290)"/><path class="g" d="M121,306l-4,4h8Z" transform="translate(-109 -290)"/><rect class="b" width="24" height="24"/></g></g></g><g class="h" transform="translate(1302 105)"><rect class="j" width="80" height="110"/><rect class="b" x="0.5" y="0.5" width="79" height="109"/></g></g><g transform="translate(1208)"><g class="i" transform="translate(94 80)"><path class="g" d="M116.333,330.667l6,6L119,340l-2.667-2.667L113.667,340l-3.333-3.333Z" transform="translate(-108.333 -328)"/><path class="g" d="M116.333,338.667l-2.667,2.667H119Z" transform="translate(-108.333 -328)"/><rect class="b" width="16" height="16"/></g><g class="i" transform="translate(172 237) rotate(180)"><path class="g" d="M116.333,330.667l6,6L119,340l-2.667-2.667L113.667,340l-3.333-3.333Z" transform="translate(-108.333 -328)"/><path class="g" d="M116.333,338.667l-2.667,2.667H119Z" transform="translate(-108.333 -328)"/><rect class="b" width="16" height="16"/></g></g></g></svg>