<svg xmlns="http://www.w3.org/2000/svg" xmlns:xlink="http://www.w3.org/1999/xlink" width="112" height="173" viewBox="0 0 112 173"><defs><style>.a{fill:none;}.b{fill:#121212;stroke:#c9c9c9;stroke-linejoin:bevel;}.c{fill:#c9c9c9;font-size:16px;font-family:PTSans-Regular, PT Sans;}.d{clip-path:url(#a);}.e{fill:#00ffce;}.f{clip-path:url(#c);}.g{stroke:none;}</style><clipPath id="a"><rect class="a" width="16" height="16"/></clipPath><clipPath id="c"><rect class="a" width="24" height="24"/></clipPath></defs><g transform="translate(-749 -72)"><g class="b" transform="translate(749 72)"><rect class="g" width="112" height="173" rx="4"/><rect class="a" x="0.5" y="0.5" width="111" height="172" rx="3.5"/></g><text class="c" transform="translate(766 94)"><tspan x="-8.72" y="0">7</tspan></text><text class="c" transform="translate(844 223) rotate(180)"><tspan x="-8.72" y="0">7</tspan></text><g transform="translate(672)"><g class="d" transform="translate(94 80)"><path class="e" d="M116.333,330.667l6,6L119,340l-2.667-2.667L113.667,340l-3.333-3.333Z" transform="translate(-108.333 -328)"/><path class="e" d="M116.333,338.667l-2.667,2.667H119Z" transform="translate(-108.333 -328)"/><rect class="a" width="16" height="16"/></g><g class="d" transform="translate(172 237) rotate(180)"><path class="e" d="M116.333,330.667l6,6L119,340l-2.667-2.667L113.667,340l-3.333-3.333Z" transform="translate(-108.333 -328)"/><path class="e" d="M116.333,338.667l-2.667,2.667H119Z" transform="translate(-108.333 -328)"/><rect class="a" width="16" height="16"/></g></g><g class="f" transform="translate(793 140)"><path class="e" d="M121,294l9,9-5,5-4-4-4,4-5-5Z" transform="translate(-109 -290)"/><path class="e" d="M121,306l-4,4h8Z" transform="translate(-109 -290)"/><rect class="a" width="24" height="24"/></g><g class="f" transform="translate(780 149)"><path class="e" d="M121,294l9,9-5,5-4-4-4,4-5-5Z" transform="translate(-109 -290)"/><path class="e" d="M121,306l-4,4h8Z" transform="translate(-109 -290)"/><rect class="a" width="24" height="24"/></g><g class="f" transform="translate(793 128)"><path class="e" d="M121,294l9,9-5,5-4-4-4,4-5-5Z" transform="translate(-109 -290)"/><path class="e" d="M121,306l-4,4h8Z" transform="translate(-109 -290)"/><rect class="a" width="24" height="24"/></g><g class="f" transform="translate(806 149)"><path class="e" d="M121,294l9,9-5,5-4-4-4,4-5-5Z" transform="translate(-109 -290)"/><path class="e" d="M121,306l-4,4h8Z" transform="translate(-109 -290)"/><rect class="a" width="24" height="24"/></g><g class="f" transform="translate(817 180) rotate(180)"><path class="e" d="M121,294l9,9-5,5-4-4-4,4-5-5Z" transform="translate(-109 -290)"/><path class="e" d="M121,306l-4,4h8Z" transform="translate(-109 -290)"/><rect class="a" width="24" height="24"/></g><g class="f" transform="translate(804 189) rotate(180)"><path class="e" d="M121,294l9,9-5,5-4-4-4,4-5-5Z" transform="translate(-109 -290)"/><path class="e" d="M121,306l-4,4h8Z" transform="translate(-109 -290)"/><rect class="a" width="24" height="24"/></g><g class="f" transform="translate(830 189) rotate(180)"><path class="e" d="M121,294l9,9-5,5-4-4-4,4-5-5Z" transform="translate(-109 -290)"/><path class="e" d="M121,306l-4,4h8Z" transform="translate(-109 -290)"/><rect class="a" width="24" height="24"/></g></g></svg>