<svg xmlns="http://www.w3.org/2000/svg" xmlns:xlink="http://www.w3.org/1999/xlink" width="112" height="173" viewBox="0 0 112 173"><defs><style>.a,.b,.j{fill:none;}.b,.c{stroke:#c9c9c9;}.c{fill:#121212;stroke-linejoin:bevel;}.d{fill:#c9c9c9;font-size:16px;font-family:PTSans-Regular, PT Sans;}.e{clip-path:url(#a);}.f{fill:#00ffce;}.g{clip-path:url(#c);}.h{clip-path:url(#d);}.i{clip-path:url(#e);}.j{stroke:#00ffce;}.k{stroke:none;}</style><clipPath id="a"><rect class="a" width="16" height="16"/></clipPath><clipPath id="c"><rect class="b" width="80" height="110" transform="translate(1281 304)"/></clipPath><clipPath id="d"><rect class="a" width="94" height="128"/></clipPath><clipPath id="e"><rect class="a" width="24" height="24"/></clipPath></defs><g transform="translate(-1285 -281)"><g transform="translate(1093 219)"><g class="c" transform="translate(192 62)"><rect class="k" width="112" height="173" rx="4"/><rect class="a" x="0.5" y="0.5" width="111" height="172" rx="3.5"/></g><text class="d" transform="translate(209 84)"><tspan x="-4.656" y="0">J</tspan></text><text class="d" transform="translate(287 213) rotate(180)"><tspan x="-4.656" y="0">J</tspan></text></g><g transform="translate(668 10)"><g class="e" transform="translate(634 279)"><rect class="f" width="4.243" height="4.243" transform="translate(5 5.667) rotate(-45)"/><rect class="f" width="3.771" height="3.771" transform="translate(2 9.333) rotate(-45)"/><rect class="f" width="3.771" height="3.771" transform="translate(8.667 9.333) rotate(-45)"/><path class="f" d="M133,338.667l-2.667,2.667h5.333Z" transform="translate(-125 -328)"/><rect class="a" width="16" height="16"/></g><g class="e" transform="translate(712 436) rotate(180)"><rect class="f" width="4.243" height="4.243" transform="translate(5 5.667) rotate(-45)"/><rect class="f" width="3.771" height="3.771" transform="translate(2 9.333) rotate(-45)"/><rect class="f" width="3.771" height="3.771" transform="translate(8.667 9.333) rotate(-45)"/><path class="f" d="M133,338.667l-2.667,2.667h5.333Z" transform="translate(-125 -328)"/><rect class="a" width="16" height="16"/></g></g><g transform="translate(-1 -1)"><g class="g" transform="translate(21 10)"><g class="h" transform="translate(1273 291)"><g transform="translate(-1273 -291)"><g class="i" transform="translate(1273 291)"><rect class="f" width="6.364" height="6.364" transform="translate(7.5 8.5) rotate(-45)"/><rect class="f" width="5.657" height="5.657" transform="translate(3 14) rotate(-45)"/><rect class="f" width="5.657" height="5.657" transform="translate(13 14) rotate(-45)"/><path class="f" d="M146,306l-4,4h8Z" transform="translate(-134 -290)"/><rect class="a" width="24" height="24"/></g></g><g transform="translate(-1255 -291)"><g class="i" transform="translate(1273 291)"><rect class="f" width="6.364" height="6.364" transform="translate(7.5 8.5) rotate(-45)"/><rect class="f" width="5.657" height="5.657" transform="translate(3 14) rotate(-45)"/><rect class="f" width="5.657" height="5.657" transform="translate(13 14) rotate(-45)"/><path class="f" d="M146,306l-4,4h8Z" transform="translate(-134 -290)"/><rect class="a" width="24" height="24"/></g></g><g transform="translate(-1237 -291)"><g class="i" transform="translate(1273 291)"><rect class="f" width="6.364" height="6.364" transform="translate(7.5 8.5) rotate(-45)"/><rect class="f" width="5.657" height="5.657" transform="translate(3 14) rotate(-45)"/><rect class="f" width="5.657" height="5.657" transform="translate(13 14) rotate(-45)"/><path class="f" d="M146,306l-4,4h8Z" transform="translate(-134 -290)"/><rect class="a" width="24" height="24"/></g></g><g transform="translate(-1219 -291)"><g class="i" transform="translate(1273 291)"><rect class="f" width="6.364" height="6.364" transform="translate(7.5 8.5) rotate(-45)"/><rect class="f" width="5.657" height="5.657" transform="translate(3 14) rotate(-45)"/><rect class="f" width="5.657" height="5.657" transform="translate(13 14) rotate(-45)"/><path class="f" d="M146,306l-4,4h8Z" transform="translate(-134 -290)"/><rect class="a" width="24" height="24"/></g></g><g transform="translate(-1201 -291)"><g class="i" transform="translate(1273 291)"><rect class="f" width="6.364" height="6.364" transform="translate(7.5 8.5) rotate(-45)"/><rect class="f" width="5.657" height="5.657" transform="translate(3 14) rotate(-45)"/><rect class="f" width="5.657" height="5.657" transform="translate(13 14) rotate(-45)"/><path class="f" d="M146,306l-4,4h8Z" transform="translate(-134 -290)"/><rect class="a" width="24" height="24"/></g></g><g transform="translate(-1183 -291)"><g class="i" transform="translate(1273 291)"><rect class="f" width="6.364" height="6.364" transform="translate(7.5 8.5) rotate(-45)"/><rect class="f" width="5.657" height="5.657" transform="translate(3 14) rotate(-45)"/><rect class="f" width="5.657" height="5.657" transform="translate(13 14) rotate(-45)"/><path class="f" d="M146,306l-4,4h8Z" transform="translate(-134 -290)"/><rect class="a" width="24" height="24"/></g></g><g transform="translate(-1273 -279)"><g class="i" transform="translate(1273 291)"><rect class="f" width="6.364" height="6.364" transform="translate(7.5 8.5) rotate(-45)"/><rect class="f" width="5.657" height="5.657" transform="translate(3 14) rotate(-45)"/><rect class="f" width="5.657" height="5.657" transform="translate(13 14) rotate(-45)"/><path class="f" d="M146,306l-4,4h8Z" transform="translate(-134 -290)"/><rect class="a" width="24" height="24"/></g></g><g transform="translate(-1255 -279)"><g class="i" transform="translate(1273 291)"><rect class="f" width="6.364" height="6.364" transform="translate(7.5 8.5) rotate(-45)"/><rect class="f" width="5.657" height="5.657" transform="translate(3 14) rotate(-45)"/><rect class="f" width="5.657" height="5.657" transform="translate(13 14) rotate(-45)"/><path class="f" d="M146,306l-4,4h8Z" transform="translate(-134 -290)"/><rect class="a" width="24" height="24"/></g></g><g transform="translate(-1237 -279)"><g class="i" transform="translate(1273 291)"><rect class="f" width="6.364" height="6.364" transform="translate(7.5 8.5) rotate(-45)"/><rect class="f" width="5.657" height="5.657" transform="translate(3 14) rotate(-45)"/><rect class="f" width="5.657" height="5.657" transform="translate(13 14) rotate(-45)"/><path class="f" d="M146,306l-4,4h8Z" transform="translate(-134 -290)"/><rect class="a" width="24" height="24"/></g></g><g transform="translate(-1219 -279)"><g class="i" transform="translate(1273 291)"><rect class="f" width="6.364" height="6.364" transform="translate(7.5 8.5) rotate(-45)"/><rect class="f" width="5.657" height="5.657" transform="translate(3 14) rotate(-45)"/><rect class="f" width="5.657" height="5.657" transform="translate(13 14) rotate(-45)"/><path class="f" d="M146,306l-4,4h8Z" transform="translate(-134 -290)"/><rect class="a" width="24" height="24"/></g></g><g transform="translate(-1201 -279)"><g class="i" transform="translate(1273 291)"><rect class="f" width="6.364" height="6.364" transform="translate(7.5 8.5) rotate(-45)"/><rect class="f" width="5.657" height="5.657" transform="translate(3 14) rotate(-45)"/><rect class="f" width="5.657" height="5.657" transform="translate(13 14) rotate(-45)"/><path class="f" d="M146,306l-4,4h8Z" transform="translate(-134 -290)"/><rect class="a" width="24" height="24"/></g></g><g transform="translate(-1183 -279)"><g class="i" transform="translate(1273 291)"><rect class="f" width="6.364" height="6.364" transform="translate(7.5 8.5) rotate(-45)"/><rect class="f" width="5.657" height="5.657" transform="translate(3 14) rotate(-45)"/><rect class="f" width="5.657" height="5.657" transform="translate(13 14) rotate(-45)"/><path class="f" d="M146,306l-4,4h8Z" transform="translate(-134 -290)"/><rect class="a" width="24" height="24"/></g></g><g transform="translate(-1273 -267)"><g class="i" transform="translate(1273 291)"><rect class="f" width="6.364" height="6.364" transform="translate(7.5 8.5) rotate(-45)"/><rect class="f" width="5.657" height="5.657" transform="translate(3 14) rotate(-45)"/><rect class="f" width="5.657" height="5.657" transform="translate(13 14) rotate(-45)"/><path class="f" d="M146,306l-4,4h8Z" transform="translate(-134 -290)"/><rect class="a" width="24" height="24"/></g></g><g transform="translate(-1255 -267)"><g class="i" transform="translate(1273 291)"><rect class="f" width="6.364" height="6.364" transform="translate(7.5 8.5) rotate(-45)"/><rect class="f" width="5.657" height="5.657" transform="translate(3 14) rotate(-45)"/><rect class="f" width="5.657" height="5.657" transform="translate(13 14) rotate(-45)"/><path class="f" d="M146,306l-4,4h8Z" transform="translate(-134 -290)"/><rect class="a" width="24" height="24"/></g></g><g transform="translate(-1237 -267)"><g class="i" transform="translate(1273 291)"><rect class="f" width="6.364" height="6.364" transform="translate(7.5 8.5) rotate(-45)"/><rect class="f" width="5.657" height="5.657" transform="translate(3 14) rotate(-45)"/><rect class="f" width="5.657" height="5.657" transform="translate(13 14) rotate(-45)"/><path class="f" d="M146,306l-4,4h8Z" transform="translate(-134 -290)"/><rect class="a" width="24" height="24"/></g></g><g transform="translate(-1219 -267)"><g class="i" transform="translate(1273 291)"><rect class="f" width="6.364" height="6.364" transform="translate(7.5 8.5) rotate(-45)"/><rect class="f" width="5.657" height="5.657" transform="translate(3 14) rotate(-45)"/><rect class="f" width="5.657" height="5.657" transform="translate(13 14) rotate(-45)"/><path class="f" d="M146,306l-4,4h8Z" transform="translate(-134 -290)"/><rect class="a" width="24" height="24"/></g></g><g transform="translate(-1201 -267)"><g class="i" transform="translate(1273 291)"><rect class="f" width="6.364" height="6.364" transform="translate(7.5 8.5) rotate(-45)"/><rect class="f" width="5.657" height="5.657" transform="translate(3 14) rotate(-45)"/><rect class="f" width="5.657" height="5.657" transform="translate(13 14) rotate(-45)"/><path class="f" d="M146,306l-4,4h8Z" transform="translate(-134 -290)"/><rect class="a" width="24" height="24"/></g></g><g transform="translate(-1183 -267)"><g class="i" transform="translate(1273 291)"><rect class="f" width="6.364" height="6.364" transform="translate(7.5 8.5) rotate(-45)"/><rect class="f" width="5.657" height="5.657" transform="translate(3 14) rotate(-45)"/><rect class="f" width="5.657" height="5.657" transform="translate(13 14) rotate(-45)"/><path class="f" d="M146,306l-4,4h8Z" transform="translate(-134 -290)"/><rect class="a" width="24" height="24"/></g></g><g transform="translate(-1273 -255)"><g class="i" transform="translate(1273 291)"><rect class="f" width="6.364" height="6.364" transform="translate(7.5 8.5) rotate(-45)"/><rect class="f" width="5.657" height="5.657" transform="translate(3 14) rotate(-45)"/><rect class="f" width="5.657" height="5.657" transform="translate(13 14) rotate(-45)"/><path class="f" d="M146,306l-4,4h8Z" transform="translate(-134 -290)"/><rect class="a" width="24" height="24"/></g></g><g transform="translate(-1255 -255)"><g class="i" transform="translate(1273 291)"><rect class="f" width="6.364" height="6.364" transform="translate(7.5 8.5) rotate(-45)"/><rect class="f" width="5.657" height="5.657" transform="translate(3 14) rotate(-45)"/><rect class="f" width="5.657" height="5.657" transform="translate(13 14) rotate(-45)"/><path class="f" d="M146,306l-4,4h8Z" transform="translate(-134 -290)"/><rect class="a" width="24" height="24"/></g></g><g transform="translate(-1237 -255)"><g class="i" transform="translate(1273 291)"><rect class="f" width="6.364" height="6.364" transform="translate(7.5 8.5) rotate(-45)"/><rect class="f" width="5.657" height="5.657" transform="translate(3 14) rotate(-45)"/><rect class="f" width="5.657" height="5.657" transform="translate(13 14) rotate(-45)"/><path class="f" d="M146,306l-4,4h8Z" transform="translate(-134 -290)"/><rect class="a" width="24" height="24"/></g></g><g transform="translate(-1219 -255)"><g class="i" transform="translate(1273 291)"><rect class="f" width="6.364" height="6.364" transform="translate(7.5 8.5) rotate(-45)"/><rect class="f" width="5.657" height="5.657" transform="translate(3 14) rotate(-45)"/><rect class="f" width="5.657" height="5.657" transform="translate(13 14) rotate(-45)"/><path class="f" d="M146,306l-4,4h8Z" transform="translate(-134 -290)"/><rect class="a" width="24" height="24"/></g></g><g transform="translate(-1201 -255)"><g class="i" transform="translate(1273 291)"><rect class="f" width="6.364" height="6.364" transform="translate(7.5 8.5) rotate(-45)"/><rect class="f" width="5.657" height="5.657" transform="translate(3 14) rotate(-45)"/><rect class="f" width="5.657" height="5.657" transform="translate(13 14) rotate(-45)"/><path class="f" d="M146,306l-4,4h8Z" transform="translate(-134 -290)"/><rect class="a" width="24" height="24"/></g></g><g transform="translate(-1183 -255)"><g class="i" transform="translate(1273 291)"><rect class="f" width="6.364" height="6.364" transform="translate(7.5 8.5) rotate(-45)"/><rect class="f" width="5.657" height="5.657" transform="translate(3 14) rotate(-45)"/><rect class="f" width="5.657" height="5.657" transform="translate(13 14) rotate(-45)"/><path class="f" d="M146,306l-4,4h8Z" transform="translate(-134 -290)"/><rect class="a" width="24" height="24"/></g></g><g transform="translate(-1273 -243)"><g class="i" transform="translate(1273 291)"><rect class="f" width="6.364" height="6.364" transform="translate(7.5 8.5) rotate(-45)"/><rect class="f" width="5.657" height="5.657" transform="translate(3 14) rotate(-45)"/><rect class="f" width="5.657" height="5.657" transform="translate(13 14) rotate(-45)"/><path class="f" d="M146,306l-4,4h8Z" transform="translate(-134 -290)"/><rect class="a" width="24" height="24"/></g></g><g transform="translate(-1255 -243)"><g class="i" transform="translate(1273 291)"><rect class="f" width="6.364" height="6.364" transform="translate(7.5 8.5) rotate(-45)"/><rect class="f" width="5.657" height="5.657" transform="translate(3 14) rotate(-45)"/><rect class="f" width="5.657" height="5.657" transform="translate(13 14) rotate(-45)"/><path class="f" d="M146,306l-4,4h8Z" transform="translate(-134 -290)"/><rect class="a" width="24" height="24"/></g></g><g transform="translate(-1237 -243)"><g class="i" transform="translate(1273 291)"><rect class="f" width="6.364" height="6.364" transform="translate(7.5 8.5) rotate(-45)"/><rect class="f" width="5.657" height="5.657" transform="translate(3 14) rotate(-45)"/><rect class="f" width="5.657" height="5.657" transform="translate(13 14) rotate(-45)"/><path class="f" d="M146,306l-4,4h8Z" transform="translate(-134 -290)"/><rect class="a" width="24" height="24"/></g></g><g transform="translate(-1219 -243)"><g class="i" transform="translate(1273 291)"><rect class="f" width="6.364" height="6.364" transform="translate(7.5 8.5) rotate(-45)"/><rect class="f" width="5.657" height="5.657" transform="translate(3 14) rotate(-45)"/><rect class="f" width="5.657" height="5.657" transform="translate(13 14) rotate(-45)"/><path class="f" d="M146,306l-4,4h8Z" transform="translate(-134 -290)"/><rect class="a" width="24" height="24"/></g></g><g transform="translate(-1201 -243)"><g class="i" transform="translate(1273 291)"><rect class="f" width="6.364" height="6.364" transform="translate(7.5 8.5) rotate(-45)"/><rect class="f" width="5.657" height="5.657" transform="translate(3 14) rotate(-45)"/><rect class="f" width="5.657" height="5.657" transform="translate(13 14) rotate(-45)"/><path class="f" d="M146,306l-4,4h8Z" transform="translate(-134 -290)"/><rect class="a" width="24" height="24"/></g></g><g transform="translate(-1183 -243)"><g class="i" transform="translate(1273 291)"><rect class="f" width="6.364" height="6.364" transform="translate(7.5 8.5) rotate(-45)"/><rect class="f" width="5.657" height="5.657" transform="translate(3 14) rotate(-45)"/><rect class="f" width="5.657" height="5.657" transform="translate(13 14) rotate(-45)"/><path class="f" d="M146,306l-4,4h8Z" transform="translate(-134 -290)"/><rect class="a" width="24" height="24"/></g></g><g transform="translate(-1273 -231)"><g class="i" transform="translate(1273 291)"><rect class="f" width="6.364" height="6.364" transform="translate(7.5 8.5) rotate(-45)"/><rect class="f" width="5.657" height="5.657" transform="translate(3 14) rotate(-45)"/><rect class="f" width="5.657" height="5.657" transform="translate(13 14) rotate(-45)"/><path class="f" d="M146,306l-4,4h8Z" transform="translate(-134 -290)"/><rect class="a" width="24" height="24"/></g></g><g transform="translate(-1255 -231)"><g class="i" transform="translate(1273 291)"><rect class="f" width="6.364" height="6.364" transform="translate(7.5 8.5) rotate(-45)"/><rect class="f" width="5.657" height="5.657" transform="translate(3 14) rotate(-45)"/><rect class="f" width="5.657" height="5.657" transform="translate(13 14) rotate(-45)"/><path class="f" d="M146,306l-4,4h8Z" transform="translate(-134 -290)"/><rect class="a" width="24" height="24"/></g></g><g transform="translate(-1237 -231)"><g class="i" transform="translate(1273 291)"><rect class="f" width="6.364" height="6.364" transform="translate(7.5 8.5) rotate(-45)"/><rect class="f" width="5.657" height="5.657" transform="translate(3 14) rotate(-45)"/><rect class="f" width="5.657" height="5.657" transform="translate(13 14) rotate(-45)"/><path class="f" d="M146,306l-4,4h8Z" transform="translate(-134 -290)"/><rect class="a" width="24" height="24"/></g></g><g transform="translate(-1219 -231)"><g class="i" transform="translate(1273 291)"><rect class="f" width="6.364" height="6.364" transform="translate(7.5 8.5) rotate(-45)"/><rect class="f" width="5.657" height="5.657" transform="translate(3 14) rotate(-45)"/><rect class="f" width="5.657" height="5.657" transform="translate(13 14) rotate(-45)"/><path class="f" d="M146,306l-4,4h8Z" transform="translate(-134 -290)"/><rect class="a" width="24" height="24"/></g></g><g transform="translate(-1201 -231)"><g class="i" transform="translate(1273 291)"><rect class="f" width="6.364" height="6.364" transform="translate(7.5 8.5) rotate(-45)"/><rect class="f" width="5.657" height="5.657" transform="translate(3 14) rotate(-45)"/><rect class="f" width="5.657" height="5.657" transform="translate(13 14) rotate(-45)"/><path class="f" d="M146,306l-4,4h8Z" transform="translate(-134 -290)"/><rect class="a" width="24" height="24"/></g></g><g transform="translate(-1183 -231)"><g class="i" transform="translate(1273 291)"><rect class="f" width="6.364" height="6.364" transform="translate(7.5 8.5) rotate(-45)"/><rect class="f" width="5.657" height="5.657" transform="translate(3 14) rotate(-45)"/><rect class="f" width="5.657" height="5.657" transform="translate(13 14) rotate(-45)"/><path class="f" d="M146,306l-4,4h8Z" transform="translate(-134 -290)"/><rect class="a" width="24" height="24"/></g></g><g transform="translate(-1273 -219)"><g class="i" transform="translate(1273 291)"><rect class="f" width="6.364" height="6.364" transform="translate(7.5 8.5) rotate(-45)"/><rect class="f" width="5.657" height="5.657" transform="translate(3 14) rotate(-45)"/><rect class="f" width="5.657" height="5.657" transform="translate(13 14) rotate(-45)"/><path class="f" d="M146,306l-4,4h8Z" transform="translate(-134 -290)"/><rect class="a" width="24" height="24"/></g></g><g transform="translate(-1255 -219)"><g class="i" transform="translate(1273 291)"><rect class="f" width="6.364" height="6.364" transform="translate(7.5 8.5) rotate(-45)"/><rect class="f" width="5.657" height="5.657" transform="translate(3 14) rotate(-45)"/><rect class="f" width="5.657" height="5.657" transform="translate(13 14) rotate(-45)"/><path class="f" d="M146,306l-4,4h8Z" transform="translate(-134 -290)"/><rect class="a" width="24" height="24"/></g></g><g transform="translate(-1237 -219)"><g class="i" transform="translate(1273 291)"><rect class="f" width="6.364" height="6.364" transform="translate(7.5 8.5) rotate(-45)"/><rect class="f" width="5.657" height="5.657" transform="translate(3 14) rotate(-45)"/><rect class="f" width="5.657" height="5.657" transform="translate(13 14) rotate(-45)"/><path class="f" d="M146,306l-4,4h8Z" transform="translate(-134 -290)"/><rect class="a" width="24" height="24"/></g></g><g transform="translate(-1219 -219)"><g class="i" transform="translate(1273 291)"><rect class="f" width="6.364" height="6.364" transform="translate(7.5 8.5) rotate(-45)"/><rect class="f" width="5.657" height="5.657" transform="translate(3 14) rotate(-45)"/><rect class="f" width="5.657" height="5.657" transform="translate(13 14) rotate(-45)"/><path class="f" d="M146,306l-4,4h8Z" transform="translate(-134 -290)"/><rect class="a" width="24" height="24"/></g></g><g transform="translate(-1201 -219)"><g class="i" transform="translate(1273 291)"><rect class="f" width="6.364" height="6.364" transform="translate(7.5 8.5) rotate(-45)"/><rect class="f" width="5.657" height="5.657" transform="translate(3 14) rotate(-45)"/><rect class="f" width="5.657" height="5.657" transform="translate(13 14) rotate(-45)"/><path class="f" d="M146,306l-4,4h8Z" transform="translate(-134 -290)"/><rect class="a" width="24" height="24"/></g></g><g transform="translate(-1183 -219)"><g class="i" transform="translate(1273 291)"><rect class="f" width="6.364" height="6.364" transform="translate(7.5 8.5) rotate(-45)"/><rect class="f" width="5.657" height="5.657" transform="translate(3 14) rotate(-45)"/><rect class="f" width="5.657" height="5.657" transform="translate(13 14) rotate(-45)"/><path class="f" d="M146,306l-4,4h8Z" transform="translate(-134 -290)"/><rect class="a" width="24" height="24"/></g></g><g transform="translate(-1273 -207)"><g class="i" transform="translate(1273 291)"><rect class="f" width="6.364" height="6.364" transform="translate(7.5 8.5) rotate(-45)"/><rect class="f" width="5.657" height="5.657" transform="translate(3 14) rotate(-45)"/><rect class="f" width="5.657" height="5.657" transform="translate(13 14) rotate(-45)"/><path class="f" d="M146,306l-4,4h8Z" transform="translate(-134 -290)"/><rect class="a" width="24" height="24"/></g></g><g transform="translate(-1255 -207)"><g class="i" transform="translate(1273 291)"><rect class="f" width="6.364" height="6.364" transform="translate(7.5 8.5) rotate(-45)"/><rect class="f" width="5.657" height="5.657" transform="translate(3 14) rotate(-45)"/><rect class="f" width="5.657" height="5.657" transform="translate(13 14) rotate(-45)"/><path class="f" d="M146,306l-4,4h8Z" transform="translate(-134 -290)"/><rect class="a" width="24" height="24"/></g></g><g transform="translate(-1237 -207)"><g class="i" transform="translate(1273 291)"><rect class="f" width="6.364" height="6.364" transform="translate(7.5 8.5) rotate(-45)"/><rect class="f" width="5.657" height="5.657" transform="translate(3 14) rotate(-45)"/><rect class="f" width="5.657" height="5.657" transform="translate(13 14) rotate(-45)"/><path class="f" d="M146,306l-4,4h8Z" transform="translate(-134 -290)"/><rect class="a" width="24" height="24"/></g></g><g transform="translate(-1219 -207)"><g class="i" transform="translate(1273 291)"><rect class="f" width="6.364" height="6.364" transform="translate(7.5 8.5) rotate(-45)"/><rect class="f" width="5.657" height="5.657" transform="translate(3 14) rotate(-45)"/><rect class="f" width="5.657" height="5.657" transform="translate(13 14) rotate(-45)"/><path class="f" d="M146,306l-4,4h8Z" transform="translate(-134 -290)"/><rect class="a" width="24" height="24"/></g></g><g transform="translate(-1201 -207)"><g class="i" transform="translate(1273 291)"><rect class="f" width="6.364" height="6.364" transform="translate(7.5 8.5) rotate(-45)"/><rect class="f" width="5.657" height="5.657" transform="translate(3 14) rotate(-45)"/><rect class="f" width="5.657" height="5.657" transform="translate(13 14) rotate(-45)"/><path class="f" d="M146,306l-4,4h8Z" transform="translate(-134 -290)"/><rect class="a" width="24" height="24"/></g></g><g transform="translate(-1183 -207)"><g class="i" transform="translate(1273 291)"><rect class="f" width="6.364" height="6.364" transform="translate(7.5 8.5) rotate(-45)"/><rect class="f" width="5.657" height="5.657" transform="translate(3 14) rotate(-45)"/><rect class="f" width="5.657" height="5.657" transform="translate(13 14) rotate(-45)"/><path class="f" d="M146,306l-4,4h8Z" transform="translate(-134 -290)"/><rect class="a" width="24" height="24"/></g></g><g transform="translate(-1273 -195)"><g class="i" transform="translate(1273 291)"><rect class="f" width="6.364" height="6.364" transform="translate(7.5 8.5) rotate(-45)"/><rect class="f" width="5.657" height="5.657" transform="translate(3 14) rotate(-45)"/><rect class="f" width="5.657" height="5.657" transform="translate(13 14) rotate(-45)"/><path class="f" d="M146,306l-4,4h8Z" transform="translate(-134 -290)"/><rect class="a" width="24" height="24"/></g></g><g transform="translate(-1255 -195)"><g class="i" transform="translate(1273 291)"><rect class="f" width="6.364" height="6.364" transform="translate(7.5 8.5) rotate(-45)"/><rect class="f" width="5.657" height="5.657" transform="translate(3 14) rotate(-45)"/><rect class="f" width="5.657" height="5.657" transform="translate(13 14) rotate(-45)"/><path class="f" d="M146,306l-4,4h8Z" transform="translate(-134 -290)"/><rect class="a" width="24" height="24"/></g></g><g transform="translate(-1237 -195)"><g class="i" transform="translate(1273 291)"><rect class="f" width="6.364" height="6.364" transform="translate(7.5 8.5) rotate(-45)"/><rect class="f" width="5.657" height="5.657" transform="translate(3 14) rotate(-45)"/><rect class="f" width="5.657" height="5.657" transform="translate(13 14) rotate(-45)"/><path class="f" d="M146,306l-4,4h8Z" transform="translate(-134 -290)"/><rect class="a" width="24" height="24"/></g></g><g transform="translate(-1219 -195)"><g class="i" transform="translate(1273 291)"><rect class="f" width="6.364" height="6.364" transform="translate(7.5 8.5) rotate(-45)"/><rect class="f" width="5.657" height="5.657" transform="translate(3 14) rotate(-45)"/><rect class="f" width="5.657" height="5.657" transform="translate(13 14) rotate(-45)"/><path class="f" d="M146,306l-4,4h8Z" transform="translate(-134 -290)"/><rect class="a" width="24" height="24"/></g></g><g transform="translate(-1201 -195)"><g class="i" transform="translate(1273 291)"><rect class="f" width="6.364" height="6.364" transform="translate(7.5 8.5) rotate(-45)"/><rect class="f" width="5.657" height="5.657" transform="translate(3 14) rotate(-45)"/><rect class="f" width="5.657" height="5.657" transform="translate(13 14) rotate(-45)"/><path class="f" d="M146,306l-4,4h8Z" transform="translate(-134 -290)"/><rect class="a" width="24" height="24"/></g></g><g transform="translate(-1183 -195)"><g class="i" transform="translate(1273 291)"><rect class="f" width="6.364" height="6.364" transform="translate(7.5 8.5) rotate(-45)"/><rect class="f" width="5.657" height="5.657" transform="translate(3 14) rotate(-45)"/><rect class="f" width="5.657" height="5.657" transform="translate(13 14) rotate(-45)"/><path class="f" d="M146,306l-4,4h8Z" transform="translate(-134 -290)"/><rect class="a" width="24" height="24"/></g></g><g transform="translate(-1273 -183)"><g class="i" transform="translate(1273 291)"><rect class="f" width="6.364" height="6.364" transform="translate(7.5 8.5) rotate(-45)"/><rect class="f" width="5.657" height="5.657" transform="translate(3 14) rotate(-45)"/><rect class="f" width="5.657" height="5.657" transform="translate(13 14) rotate(-45)"/><path class="f" d="M146,306l-4,4h8Z" transform="translate(-134 -290)"/><rect class="a" width="24" height="24"/></g></g><g transform="translate(-1255 -183)"><g class="i" transform="translate(1273 291)"><rect class="f" width="6.364" height="6.364" transform="translate(7.5 8.5) rotate(-45)"/><rect class="f" width="5.657" height="5.657" transform="translate(3 14) rotate(-45)"/><rect class="f" width="5.657" height="5.657" transform="translate(13 14) rotate(-45)"/><path class="f" d="M146,306l-4,4h8Z" transform="translate(-134 -290)"/><rect class="a" width="24" height="24"/></g></g><g transform="translate(-1237 -183)"><g class="i" transform="translate(1273 291)"><rect class="f" width="6.364" height="6.364" transform="translate(7.5 8.5) rotate(-45)"/><rect class="f" width="5.657" height="5.657" transform="translate(3 14) rotate(-45)"/><rect class="f" width="5.657" height="5.657" transform="translate(13 14) rotate(-45)"/><path class="f" d="M146,306l-4,4h8Z" transform="translate(-134 -290)"/><rect class="a" width="24" height="24"/></g></g><g transform="translate(-1219 -183)"><g class="i" transform="translate(1273 291)"><rect class="f" width="6.364" height="6.364" transform="translate(7.5 8.5) rotate(-45)"/><rect class="f" width="5.657" height="5.657" transform="translate(3 14) rotate(-45)"/><rect class="f" width="5.657" height="5.657" transform="translate(13 14) rotate(-45)"/><path class="f" d="M146,306l-4,4h8Z" transform="translate(-134 -290)"/><rect class="a" width="24" height="24"/></g></g><g transform="translate(-1201 -183)"><g class="i" transform="translate(1273 291)"><rect class="f" width="6.364" height="6.364" transform="translate(7.5 8.5) rotate(-45)"/><rect class="f" width="5.657" height="5.657" transform="translate(3 14) rotate(-45)"/><rect class="f" width="5.657" height="5.657" transform="translate(13 14) rotate(-45)"/><path class="f" d="M146,306l-4,4h8Z" transform="translate(-134 -290)"/><rect class="a" width="24" height="24"/></g></g><g transform="translate(-1183 -183)"><g class="i" transform="translate(1273 291)"><rect class="f" width="6.364" height="6.364" transform="translate(7.5 8.5) rotate(-45)"/><rect class="f" width="5.657" height="5.657" transform="translate(3 14) rotate(-45)"/><rect class="f" width="5.657" height="5.657" transform="translate(13 14) rotate(-45)"/><path class="f" d="M146,306l-4,4h8Z" transform="translate(-134 -290)"/><rect class="a" width="24" height="24"/></g></g><g transform="translate(-1273 -171)"><g class="i" transform="translate(1273 291)"><rect class="f" width="6.364" height="6.364" transform="translate(7.5 8.5) rotate(-45)"/><rect class="f" width="5.657" height="5.657" transform="translate(3 14) rotate(-45)"/><rect class="f" width="5.657" height="5.657" transform="translate(13 14) rotate(-45)"/><path class="f" d="M146,306l-4,4h8Z" transform="translate(-134 -290)"/><rect class="a" width="24" height="24"/></g></g><g transform="translate(-1255 -171)"><g class="i" transform="translate(1273 291)"><rect class="f" width="6.364" height="6.364" transform="translate(7.5 8.5) rotate(-45)"/><rect class="f" width="5.657" height="5.657" transform="translate(3 14) rotate(-45)"/><rect class="f" width="5.657" height="5.657" transform="translate(13 14) rotate(-45)"/><path class="f" d="M146,306l-4,4h8Z" transform="translate(-134 -290)"/><rect class="a" width="24" height="24"/></g></g><g transform="translate(-1237 -171)"><g class="i" transform="translate(1273 291)"><rect class="f" width="6.364" height="6.364" transform="translate(7.5 8.5) rotate(-45)"/><rect class="f" width="5.657" height="5.657" transform="translate(3 14) rotate(-45)"/><rect class="f" width="5.657" height="5.657" transform="translate(13 14) rotate(-45)"/><path class="f" d="M146,306l-4,4h8Z" transform="translate(-134 -290)"/><rect class="a" width="24" height="24"/></g></g><g transform="translate(-1219 -171)"><g class="i" transform="translate(1273 291)"><rect class="f" width="6.364" height="6.364" transform="translate(7.5 8.5) rotate(-45)"/><rect class="f" width="5.657" height="5.657" transform="translate(3 14) rotate(-45)"/><rect class="f" width="5.657" height="5.657" transform="translate(13 14) rotate(-45)"/><path class="f" d="M146,306l-4,4h8Z" transform="translate(-134 -290)"/><rect class="a" width="24" height="24"/></g></g><g transform="translate(-1201 -171)"><g class="i" transform="translate(1273 291)"><rect class="f" width="6.364" height="6.364" transform="translate(7.5 8.5) rotate(-45)"/><rect class="f" width="5.657" height="5.657" transform="translate(3 14) rotate(-45)"/><rect class="f" width="5.657" height="5.657" transform="translate(13 14) rotate(-45)"/><path class="f" d="M146,306l-4,4h8Z" transform="translate(-134 -290)"/><rect class="a" width="24" height="24"/></g></g><g transform="translate(-1183 -171)"><g class="i" transform="translate(1273 291)"><rect class="f" width="6.364" height="6.364" transform="translate(7.5 8.5) rotate(-45)"/><rect class="f" width="5.657" height="5.657" transform="translate(3 14) rotate(-45)"/><rect class="f" width="5.657" height="5.657" transform="translate(13 14) rotate(-45)"/><path class="f" d="M146,306l-4,4h8Z" transform="translate(-134 -290)"/><rect class="a" width="24" height="24"/></g></g></g></g><g class="j" transform="translate(1302 314)"><rect class="k" width="80" height="110"/><rect class="a" x="0.5" y="0.5" width="79" height="109"/></g></g></g></svg>