<svg xmlns="http://www.w3.org/2000/svg" xmlns:xlink="http://www.w3.org/1999/xlink" width="112" height="173" viewBox="0 0 112 173"><defs><style>.a{fill:none;}.b{fill:#121212;stroke:#c9c9c9;stroke-linejoin:bevel;}.c{fill:#c9c9c9;font-size:16px;font-family:PTSans-Regular, PT Sans;}.d{clip-path:url(#a);}.e{fill:#00ffce;}.f{clip-path:url(#c);}.g{stroke:none;}</style><clipPath id="a"><rect class="a" width="16" height="16"/></clipPath><clipPath id="c"><rect class="a" width="24" height="24"/></clipPath></defs><g transform="translate(-1151 -281)"><g transform="translate(959 219)"><g class="b" transform="translate(192 62)"><rect class="g" width="112" height="173" rx="4"/><rect class="a" x="0.5" y="0.5" width="111" height="172" rx="3.5"/></g><text class="c" transform="translate(200 84)"><tspan x="0" y="0">10</tspan></text><text class="c" transform="translate(296 213) rotate(180)"><tspan x="0" y="0">10</tspan></text></g><g transform="translate(526 10)"><g class="d" transform="translate(650 279)"><rect class="e" width="4.243" height="4.243" transform="translate(5 5.667) rotate(-45)"/><rect class="e" width="3.771" height="3.771" transform="translate(2 9.333) rotate(-45)"/><rect class="e" width="3.771" height="3.771" transform="translate(8.667 9.333) rotate(-45)"/><path class="e" d="M133,338.667l-2.667,2.667h5.333Z" transform="translate(-125 -328)"/><rect class="a" width="16" height="16"/></g><g class="d" transform="translate(712 436) rotate(180)"><rect class="e" width="4.243" height="4.243" transform="translate(5 5.667) rotate(-45)"/><rect class="e" width="3.771" height="3.771" transform="translate(2 9.333) rotate(-45)"/><rect class="e" width="3.771" height="3.771" transform="translate(8.667 9.333) rotate(-45)"/><path class="e" d="M133,338.667l-2.667,2.667h5.333Z" transform="translate(-125 -328)"/><rect class="a" width="16" height="16"/></g></g><g transform="translate(-1 -1)"><g class="f" transform="translate(1196 349)"><rect class="e" width="6.364" height="6.364" transform="translate(7.5 8.5) rotate(-45)"/><rect class="e" width="5.657" height="5.657" transform="translate(3 14) rotate(-45)"/><rect class="e" width="5.657" height="5.657" transform="translate(13 14) rotate(-45)"/><path class="e" d="M146,306l-4,4h8Z" transform="translate(-134 -290)"/><rect class="a" width="24" height="24"/></g><g class="f" transform="translate(1182 333)"><rect class="e" width="6.364" height="6.364" transform="translate(7.5 8.5) rotate(-45)"/><rect class="e" width="5.657" height="5.657" transform="translate(3 14) rotate(-45)"/><rect class="e" width="5.657" height="5.657" transform="translate(13 14) rotate(-45)"/><path class="e" d="M146,306l-4,4h8Z" transform="translate(-134 -290)"/><rect class="a" width="24" height="24"/></g><g class="f" transform="translate(1182 365)"><rect class="e" width="6.364" height="6.364" transform="translate(7.5 8.5) rotate(-45)"/><rect class="e" width="5.657" height="5.657" transform="translate(3 14) rotate(-45)"/><rect class="e" width="5.657" height="5.657" transform="translate(13 14) rotate(-45)"/><path class="e" d="M146,306l-4,4h8Z" transform="translate(-134 -290)"/><rect class="a" width="24" height="24"/></g><g class="f" transform="translate(1234 373) rotate(180)"><rect class="e" width="6.364" height="6.364" transform="translate(7.5 8.5) rotate(-45)"/><rect class="e" width="5.657" height="5.657" transform="translate(3 14) rotate(-45)"/><rect class="e" width="5.657" height="5.657" transform="translate(13 14) rotate(-45)"/><path class="e" d="M146,306l-4,4h8Z" transform="translate(-134 -290)"/><rect class="a" width="24" height="24"/></g><g class="f" transform="translate(1234 405) rotate(180)"><rect class="e" width="6.364" height="6.364" transform="translate(7.5 8.5) rotate(-45)"/><rect class="e" width="5.657" height="5.657" transform="translate(3 14) rotate(-45)"/><rect class="e" width="5.657" height="5.657" transform="translate(13 14) rotate(-45)"/><path class="e" d="M146,306l-4,4h8Z" transform="translate(-134 -290)"/><rect class="a" width="24" height="24"/></g><g class="f" transform="translate(1210 333)"><rect class="e" width="6.364" height="6.364" transform="translate(7.5 8.5) rotate(-45)"/><rect class="e" width="5.657" height="5.657" transform="translate(3 14) rotate(-45)"/><rect class="e" width="5.657" height="5.657" transform="translate(13 14) rotate(-45)"/><path class="e" d="M146,306l-4,4h8Z" transform="translate(-134 -290)"/><rect class="a" width="24" height="24"/></g><g class="f" transform="translate(1210 365)"><rect class="e" width="6.364" height="6.364" transform="translate(7.5 8.5) rotate(-45)"/><rect class="e" width="5.657" height="5.657" transform="translate(3 14) rotate(-45)"/><rect class="e" width="5.657" height="5.657" transform="translate(13 14) rotate(-45)"/><path class="e" d="M146,306l-4,4h8Z" transform="translate(-134 -290)"/><rect class="a" width="24" height="24"/></g><g class="f" transform="translate(1220 389) rotate(180)"><rect class="e" width="6.364" height="6.364" transform="translate(7.5 8.5) rotate(-45)"/><rect class="e" width="5.657" height="5.657" transform="translate(3 14) rotate(-45)"/><rect class="e" width="5.657" height="5.657" transform="translate(13 14) rotate(-45)"/><path class="e" d="M146,306l-4,4h8Z" transform="translate(-134 -290)"/><rect class="a" width="24" height="24"/></g><g class="f" transform="translate(1206 373) rotate(180)"><rect class="e" width="6.364" height="6.364" transform="translate(7.5 8.5) rotate(-45)"/><rect class="e" width="5.657" height="5.657" transform="translate(3 14) rotate(-45)"/><rect class="e" width="5.657" height="5.657" transform="translate(13 14) rotate(-45)"/><path class="e" d="M146,306l-4,4h8Z" transform="translate(-134 -290)"/><rect class="a" width="24" height="24"/></g><g class="f" transform="translate(1206 405) rotate(180)"><rect class="e" width="6.364" height="6.364" transform="translate(7.5 8.5) rotate(-45)"/><rect class="e" width="5.657" height="5.657" transform="translate(3 14) rotate(-45)"/><rect class="e" width="5.657" height="5.657" transform="translate(13 14) rotate(-45)"/><path class="e" d="M146,306l-4,4h8Z" transform="translate(-134 -290)"/><rect class="a" width="24" height="24"/></g></g></g></svg>