<svg xmlns="http://www.w3.org/2000/svg" xmlns:xlink="http://www.w3.org/1999/xlink" width="112" height="173" viewBox="0 0 112 173"><defs><style>.a,.b{fill:none;}.b{stroke:#a617ff;}.c{fill:#121212;stroke:#c9c9c9;stroke-linejoin:bevel;}.d{fill:#c9c9c9;font-size:16px;font-family:PTSans-Regular, PT Sans;}.e{clip-path:url(#a);}.f{fill:#a617ff;}.g{clip-path:url(#c);}.h{clip-path:url(#d);}.i{stroke:none;}</style><clipPath id="a"><rect class="a" width="16" height="16"/></clipPath><clipPath id="c"><rect class="b" width="80" height="110" transform="translate(1281 724)"/></clipPath><clipPath id="d"><rect class="a" width="24" height="24"/></clipPath></defs><g transform="translate(-1285 -701)"><g transform="translate(1093 639)"><g class="c" transform="translate(192 62)"><rect class="i" width="112" height="173" rx="4"/><rect class="a" x="0.5" y="0.5" width="111" height="172" rx="3.5"/></g><text class="d" transform="translate(209 84)"><tspan x="-4.656" y="0">J</tspan></text><text class="d" transform="translate(287 213) rotate(180)"><tspan x="-4.656" y="0">J</tspan></text></g><g class="e" transform="translate(1302 709)"><rect class="f" width="8.485" height="8.485" transform="translate(8 2) rotate(45)"/><rect class="a" width="16" height="16"/></g><g class="e" transform="translate(1364 850)"><rect class="f" width="8.485" height="8.485" transform="translate(8 2) rotate(45)"/><rect class="a" width="16" height="16"/></g><g class="g" transform="translate(20 10)"><g transform="translate(-9 -6)"><g class="h" transform="translate(1273 719)"><rect class="f" width="12.728" height="12.728" transform="translate(12 3) rotate(45)"/><rect class="a" width="24" height="24"/></g><g class="h" transform="translate(1291 719)"><rect class="f" width="12.728" height="12.728" transform="translate(12 3) rotate(45)"/><rect class="a" width="24" height="24"/></g><g class="h" transform="translate(1309 719)"><rect class="f" width="12.728" height="12.728" transform="translate(12 3) rotate(45)"/><rect class="a" width="24" height="24"/></g><g class="h" transform="translate(1327 719)"><rect class="f" width="12.728" height="12.728" transform="translate(12 3) rotate(45)"/><rect class="a" width="24" height="24"/></g><g class="h" transform="translate(1345 719)"><rect class="f" width="12.728" height="12.728" transform="translate(12 3) rotate(45)"/><rect class="a" width="24" height="24"/></g><g class="h" transform="translate(1363 719)"><rect class="f" width="12.728" height="12.728" transform="translate(12 3) rotate(45)"/><rect class="a" width="24" height="24"/></g><g class="h" transform="translate(1273 737)"><rect class="f" width="12.728" height="12.728" transform="translate(12 3) rotate(45)"/><rect class="a" width="24" height="24"/></g><g class="h" transform="translate(1291 737)"><rect class="f" width="12.728" height="12.728" transform="translate(12 3) rotate(45)"/><rect class="a" width="24" height="24"/></g><g class="h" transform="translate(1309 737)"><rect class="f" width="12.728" height="12.728" transform="translate(12 3) rotate(45)"/><rect class="a" width="24" height="24"/></g><g class="h" transform="translate(1327 737)"><rect class="f" width="12.728" height="12.728" transform="translate(12 3) rotate(45)"/><rect class="a" width="24" height="24"/></g><g class="h" transform="translate(1345 737)"><rect class="f" width="12.728" height="12.728" transform="translate(12 3) rotate(45)"/><rect class="a" width="24" height="24"/></g><g class="h" transform="translate(1363 737)"><rect class="f" width="12.728" height="12.728" transform="translate(12 3) rotate(45)"/><rect class="a" width="24" height="24"/></g><g class="h" transform="translate(1273 755)"><rect class="f" width="12.728" height="12.728" transform="translate(12 3) rotate(45)"/><rect class="a" width="24" height="24"/></g><g class="h" transform="translate(1291 755)"><rect class="f" width="12.728" height="12.728" transform="translate(12 3) rotate(45)"/><rect class="a" width="24" height="24"/></g><g class="h" transform="translate(1309 755)"><rect class="f" width="12.728" height="12.728" transform="translate(12 3) rotate(45)"/><rect class="a" width="24" height="24"/></g><g class="h" transform="translate(1327 755)"><rect class="f" width="12.728" height="12.728" transform="translate(12 3) rotate(45)"/><rect class="a" width="24" height="24"/></g><g class="h" transform="translate(1345 755)"><rect class="f" width="12.728" height="12.728" transform="translate(12 3) rotate(45)"/><rect class="a" width="24" height="24"/></g><g class="h" transform="translate(1363 755)"><rect class="f" width="12.728" height="12.728" transform="translate(12 3) rotate(45)"/><rect class="a" width="24" height="24"/></g><g class="h" transform="translate(1273 773)"><rect class="f" width="12.728" height="12.728" transform="translate(12 3) rotate(45)"/><rect class="a" width="24" height="24"/></g><g class="h" transform="translate(1291 773)"><rect class="f" width="12.728" height="12.728" transform="translate(12 3) rotate(45)"/><rect class="a" width="24" height="24"/></g><g class="h" transform="translate(1309 773)"><rect class="f" width="12.728" height="12.728" transform="translate(12 3) rotate(45)"/><rect class="a" width="24" height="24"/></g><g class="h" transform="translate(1327 773)"><rect class="f" width="12.728" height="12.728" transform="translate(12 3) rotate(45)"/><rect class="a" width="24" height="24"/></g><g class="h" transform="translate(1345 773)"><rect class="f" width="12.728" height="12.728" transform="translate(12 3) rotate(45)"/><rect class="a" width="24" height="24"/></g><g class="h" transform="translate(1363 773)"><rect class="f" width="12.728" height="12.728" transform="translate(12 3) rotate(45)"/><rect class="a" width="24" height="24"/></g><g class="h" transform="translate(1273 791)"><rect class="f" width="12.728" height="12.728" transform="translate(12 3) rotate(45)"/><rect class="a" width="24" height="24"/></g><g class="h" transform="translate(1291 791)"><rect class="f" width="12.728" height="12.728" transform="translate(12 3) rotate(45)"/><rect class="a" width="24" height="24"/></g><g class="h" transform="translate(1309 791)"><rect class="f" width="12.728" height="12.728" transform="translate(12 3) rotate(45)"/><rect class="a" width="24" height="24"/></g><g class="h" transform="translate(1327 791)"><rect class="f" width="12.728" height="12.728" transform="translate(12 3) rotate(45)"/><rect class="a" width="24" height="24"/></g><g class="h" transform="translate(1345 791)"><rect class="f" width="12.728" height="12.728" transform="translate(12 3) rotate(45)"/><rect class="a" width="24" height="24"/></g><g class="h" transform="translate(1363 791)"><rect class="f" width="12.728" height="12.728" transform="translate(12 3) rotate(45)"/><rect class="a" width="24" height="24"/></g><g class="h" transform="translate(1273 809)"><rect class="f" width="12.728" height="12.728" transform="translate(12 3) rotate(45)"/><rect class="a" width="24" height="24"/></g><g class="h" transform="translate(1291 809)"><rect class="f" width="12.728" height="12.728" transform="translate(12 3) rotate(45)"/><rect class="a" width="24" height="24"/></g><g class="h" transform="translate(1309 809)"><rect class="f" width="12.728" height="12.728" transform="translate(12 3) rotate(45)"/><rect class="a" width="24" height="24"/></g><g class="h" transform="translate(1327 809)"><rect class="f" width="12.728" height="12.728" transform="translate(12 3) rotate(45)"/><rect class="a" width="24" height="24"/></g><g class="h" transform="translate(1345 809)"><rect class="f" width="12.728" height="12.728" transform="translate(12 3) rotate(45)"/><rect class="a" width="24" height="24"/></g><g class="h" transform="translate(1363 809)"><rect class="f" width="12.728" height="12.728" transform="translate(12 3) rotate(45)"/><rect class="a" width="24" height="24"/></g><g class="h" transform="translate(1273 827)"><rect class="f" width="12.728" height="12.728" transform="translate(12 3) rotate(45)"/><rect class="a" width="24" height="24"/></g><g class="h" transform="translate(1291 827)"><rect class="f" width="12.728" height="12.728" transform="translate(12 3) rotate(45)"/><rect class="a" width="24" height="24"/></g><g class="h" transform="translate(1309 827)"><rect class="f" width="12.728" height="12.728" transform="translate(12 3) rotate(45)"/><rect class="a" width="24" height="24"/></g><g class="h" transform="translate(1327 827)"><rect class="f" width="12.728" height="12.728" transform="translate(12 3) rotate(45)"/><rect class="a" width="24" height="24"/></g><g class="h" transform="translate(1345 827)"><rect class="f" width="12.728" height="12.728" transform="translate(12 3) rotate(45)"/><rect class="a" width="24" height="24"/></g><g class="h" transform="translate(1363 827)"><rect class="f" width="12.728" height="12.728" transform="translate(12 3) rotate(45)"/><rect class="a" width="24" height="24"/></g></g></g><g class="b" transform="translate(1301 734)"><rect class="i" width="80" height="110"/><rect class="a" x="0.5" y="0.5" width="79" height="109"/></g></g></svg>