<svg xmlns="http://www.w3.org/2000/svg" xmlns:xlink="http://www.w3.org/1999/xlink" width="112" height="173" viewBox="0 0 112 173"><defs><style>.a,.b,.h{fill:none;}.a,.c{stroke:#c9c9c9;}.c{fill:#121212;stroke-linejoin:bevel;}.d{fill:#c9c9c9;font-size:16px;font-family:PTSans-Regular, PT Sans;}.e{clip-path:url(#a);}.f{clip-path:url(#b);}.g{fill:#00ffce;}.h{stroke:#00ffce;}.i{clip-path:url(#bn);}.j{stroke:none;}</style><clipPath id="a"><rect class="a" width="80" height="110" transform="translate(1549 95)"/></clipPath><clipPath id="b"><rect class="b" width="24" height="24"/></clipPath><clipPath id="bn"><rect class="b" width="16" height="16"/></clipPath></defs><g transform="translate(-1553 -72)"><g class="c" transform="translate(1553 72)"><rect class="j" width="112" height="173" rx="4"/><rect class="b" x="0.5" y="0.5" width="111" height="172" rx="3.5"/></g><text class="d" transform="translate(1570 94)"><tspan x="-9.76" y="0">K</tspan></text><text class="d" transform="translate(1648 223) rotate(180)"><tspan x="-9.76" y="0">K</tspan></text><g transform="translate(-1 -2)"><g class="e" transform="translate(21 11)"><g transform="translate(-14 -3)"><g transform="translate(-9 -1)"><g class="f" transform="translate(1548 95)"><path class="g" d="M121,294l9,9-5,5-4-4-4,4-5-5Z" transform="translate(-109 -290)"/><path class="g" d="M121,306l-4,4h8Z" transform="translate(-109 -290)"/><rect class="b" width="24" height="24"/></g><g class="f" transform="translate(1561 86)"><path class="g" d="M121,294l9,9-5,5-4-4-4,4-5-5Z" transform="translate(-109 -290)"/><path class="g" d="M121,306l-4,4h8Z" transform="translate(-109 -290)"/><rect class="b" width="24" height="24"/></g><g class="f" transform="translate(1585 126) rotate(180)"><path class="g" d="M121,294l9,9-5,5-4-4-4,4-5-5Z" transform="translate(-109 -290)"/><path class="g" d="M121,306l-4,4h8Z" transform="translate(-109 -290)"/><rect class="b" width="24" height="24"/></g><g class="f" transform="translate(1572 135) rotate(180)"><path class="g" d="M121,294l9,9-5,5-4-4-4,4-5-5Z" transform="translate(-109 -290)"/><path class="g" d="M121,306l-4,4h8Z" transform="translate(-109 -290)"/><rect class="b" width="24" height="24"/></g></g><g transform="translate(17 -1)"><g class="f" transform="translate(1548 95)"><path class="g" d="M121,294l9,9-5,5-4-4-4,4-5-5Z" transform="translate(-109 -290)"/><path class="g" d="M121,306l-4,4h8Z" transform="translate(-109 -290)"/><rect class="b" width="24" height="24"/></g><g class="f" transform="translate(1561 86)"><path class="g" d="M121,294l9,9-5,5-4-4-4,4-5-5Z" transform="translate(-109 -290)"/><path class="g" d="M121,306l-4,4h8Z" transform="translate(-109 -290)"/><rect class="b" width="24" height="24"/></g><g class="f" transform="translate(1585 126) rotate(180)"><path class="g" d="M121,294l9,9-5,5-4-4-4,4-5-5Z" transform="translate(-109 -290)"/><path class="g" d="M121,306l-4,4h8Z" transform="translate(-109 -290)"/><rect class="b" width="24" height="24"/></g><g class="f" transform="translate(1572 135) rotate(180)"><path class="g" d="M121,294l9,9-5,5-4-4-4,4-5-5Z" transform="translate(-109 -290)"/><path class="g" d="M121,306l-4,4h8Z" transform="translate(-109 -290)"/><rect class="b" width="24" height="24"/></g></g><g transform="translate(43 -1)"><g class="f" transform="translate(1548 95)"><path class="g" d="M121,294l9,9-5,5-4-4-4,4-5-5Z" transform="translate(-109 -290)"/><path class="g" d="M121,306l-4,4h8Z" transform="translate(-109 -290)"/><rect class="b" width="24" height="24"/></g><g class="f" transform="translate(1561 86)"><path class="g" d="M121,294l9,9-5,5-4-4-4,4-5-5Z" transform="translate(-109 -290)"/><path class="g" d="M121,306l-4,4h8Z" transform="translate(-109 -290)"/><rect class="b" width="24" height="24"/></g><g class="f" transform="translate(1585 126) rotate(180)"><path class="g" d="M121,294l9,9-5,5-4-4-4,4-5-5Z" transform="translate(-109 -290)"/><path class="g" d="M121,306l-4,4h8Z" transform="translate(-109 -290)"/><rect class="b" width="24" height="24"/></g><g class="f" transform="translate(1572 135) rotate(180)"><path class="g" d="M121,294l9,9-5,5-4-4-4,4-5-5Z" transform="translate(-109 -290)"/><path class="g" d="M121,306l-4,4h8Z" transform="translate(-109 -290)"/><rect class="b" width="24" height="24"/></g></g><g transform="translate(69 -1)"><g class="f" transform="translate(1548 95)"><path class="g" d="M121,294l9,9-5,5-4-4-4,4-5-5Z" transform="translate(-109 -290)"/><path class="g" d="M121,306l-4,4h8Z" transform="translate(-109 -290)"/><rect class="b" width="24" height="24"/></g><g class="f" transform="translate(1561 86)"><path class="g" d="M121,294l9,9-5,5-4-4-4,4-5-5Z" transform="translate(-109 -290)"/><path class="g" d="M121,306l-4,4h8Z" transform="translate(-109 -290)"/><rect class="b" width="24" height="24"/></g><g class="f" transform="translate(1585 126) rotate(180)"><path class="g" d="M121,294l9,9-5,5-4-4-4,4-5-5Z" transform="translate(-109 -290)"/><path class="g" d="M121,306l-4,4h8Z" transform="translate(-109 -290)"/><rect class="b" width="24" height="24"/></g><g class="f" transform="translate(1572 135) rotate(180)"><path class="g" d="M121,294l9,9-5,5-4-4-4,4-5-5Z" transform="translate(-109 -290)"/><path class="g" d="M121,306l-4,4h8Z" transform="translate(-109 -290)"/><rect class="b" width="24" height="24"/></g></g><g transform="translate(-9 31)"><g class="f" transform="translate(1548 95)"><path class="g" d="M121,294l9,9-5,5-4-4-4,4-5-5Z" transform="translate(-109 -290)"/><path class="g" d="M121,306l-4,4h8Z" transform="translate(-109 -290)"/><rect class="b" width="24" height="24"/></g><g class="f" transform="translate(1561 86)"><path class="g" d="M121,294l9,9-5,5-4-4-4,4-5-5Z" transform="translate(-109 -290)"/><path class="g" d="M121,306l-4,4h8Z" transform="translate(-109 -290)"/><rect class="b" width="24" height="24"/></g><g class="f" transform="translate(1585 126) rotate(180)"><path class="g" d="M121,294l9,9-5,5-4-4-4,4-5-5Z" transform="translate(-109 -290)"/><path class="g" d="M121,306l-4,4h8Z" transform="translate(-109 -290)"/><rect class="b" width="24" height="24"/></g><g class="f" transform="translate(1572 135) rotate(180)"><path class="g" d="M121,294l9,9-5,5-4-4-4,4-5-5Z" transform="translate(-109 -290)"/><path class="g" d="M121,306l-4,4h8Z" transform="translate(-109 -290)"/><rect class="b" width="24" height="24"/></g></g><g transform="translate(17 31)"><g class="f" transform="translate(1548 95)"><path class="g" d="M121,294l9,9-5,5-4-4-4,4-5-5Z" transform="translate(-109 -290)"/><path class="g" d="M121,306l-4,4h8Z" transform="translate(-109 -290)"/><rect class="b" width="24" height="24"/></g><g class="f" transform="translate(1561 86)"><path class="g" d="M121,294l9,9-5,5-4-4-4,4-5-5Z" transform="translate(-109 -290)"/><path class="g" d="M121,306l-4,4h8Z" transform="translate(-109 -290)"/><rect class="b" width="24" height="24"/></g><g class="f" transform="translate(1585 126) rotate(180)"><path class="g" d="M121,294l9,9-5,5-4-4-4,4-5-5Z" transform="translate(-109 -290)"/><path class="g" d="M121,306l-4,4h8Z" transform="translate(-109 -290)"/><rect class="b" width="24" height="24"/></g><g class="f" transform="translate(1572 135) rotate(180)"><path class="g" d="M121,294l9,9-5,5-4-4-4,4-5-5Z" transform="translate(-109 -290)"/><path class="g" d="M121,306l-4,4h8Z" transform="translate(-109 -290)"/><rect class="b" width="24" height="24"/></g></g><g transform="translate(43 31)"><g class="f" transform="translate(1548 95)"><path class="g" d="M121,294l9,9-5,5-4-4-4,4-5-5Z" transform="translate(-109 -290)"/><path class="g" d="M121,306l-4,4h8Z" transform="translate(-109 -290)"/><rect class="b" width="24" height="24"/></g><g class="f" transform="translate(1561 86)"><path class="g" d="M121,294l9,9-5,5-4-4-4,4-5-5Z" transform="translate(-109 -290)"/><path class="g" d="M121,306l-4,4h8Z" transform="translate(-109 -290)"/><rect class="b" width="24" height="24"/></g><g class="f" transform="translate(1585 126) rotate(180)"><path class="g" d="M121,294l9,9-5,5-4-4-4,4-5-5Z" transform="translate(-109 -290)"/><path class="g" d="M121,306l-4,4h8Z" transform="translate(-109 -290)"/><rect class="b" width="24" height="24"/></g><g class="f" transform="translate(1572 135) rotate(180)"><path class="g" d="M121,294l9,9-5,5-4-4-4,4-5-5Z" transform="translate(-109 -290)"/><path class="g" d="M121,306l-4,4h8Z" transform="translate(-109 -290)"/><rect class="b" width="24" height="24"/></g></g><g transform="translate(69 31)"><g class="f" transform="translate(1548 95)"><path class="g" d="M121,294l9,9-5,5-4-4-4,4-5-5Z" transform="translate(-109 -290)"/><path class="g" d="M121,306l-4,4h8Z" transform="translate(-109 -290)"/><rect class="b" width="24" height="24"/></g><g class="f" transform="translate(1561 86)"><path class="g" d="M121,294l9,9-5,5-4-4-4,4-5-5Z" transform="translate(-109 -290)"/><path class="g" d="M121,306l-4,4h8Z" transform="translate(-109 -290)"/><rect class="b" width="24" height="24"/></g><g class="f" transform="translate(1585 126) rotate(180)"><path class="g" d="M121,294l9,9-5,5-4-4-4,4-5-5Z" transform="translate(-109 -290)"/><path class="g" d="M121,306l-4,4h8Z" transform="translate(-109 -290)"/><rect class="b" width="24" height="24"/></g><g class="f" transform="translate(1572 135) rotate(180)"><path class="g" d="M121,294l9,9-5,5-4-4-4,4-5-5Z" transform="translate(-109 -290)"/><path class="g" d="M121,306l-4,4h8Z" transform="translate(-109 -290)"/><rect class="b" width="24" height="24"/></g></g><g transform="translate(-9 63)"><g class="f" transform="translate(1548 95)"><path class="g" d="M121,294l9,9-5,5-4-4-4,4-5-5Z" transform="translate(-109 -290)"/><path class="g" d="M121,306l-4,4h8Z" transform="translate(-109 -290)"/><rect class="b" width="24" height="24"/></g><g class="f" transform="translate(1561 86)"><path class="g" d="M121,294l9,9-5,5-4-4-4,4-5-5Z" transform="translate(-109 -290)"/><path class="g" d="M121,306l-4,4h8Z" transform="translate(-109 -290)"/><rect class="b" width="24" height="24"/></g><g class="f" transform="translate(1585 126) rotate(180)"><path class="g" d="M121,294l9,9-5,5-4-4-4,4-5-5Z" transform="translate(-109 -290)"/><path class="g" d="M121,306l-4,4h8Z" transform="translate(-109 -290)"/><rect class="b" width="24" height="24"/></g><g class="f" transform="translate(1572 135) rotate(180)"><path class="g" d="M121,294l9,9-5,5-4-4-4,4-5-5Z" transform="translate(-109 -290)"/><path class="g" d="M121,306l-4,4h8Z" transform="translate(-109 -290)"/><rect class="b" width="24" height="24"/></g></g><g transform="translate(-9 95)"><g class="f" transform="translate(1548 95)"><path class="g" d="M121,294l9,9-5,5-4-4-4,4-5-5Z" transform="translate(-109 -290)"/><path class="g" d="M121,306l-4,4h8Z" transform="translate(-109 -290)"/><rect class="b" width="24" height="24"/></g><g class="f" transform="translate(1561 86)"><path class="g" d="M121,294l9,9-5,5-4-4-4,4-5-5Z" transform="translate(-109 -290)"/><path class="g" d="M121,306l-4,4h8Z" transform="translate(-109 -290)"/><rect class="b" width="24" height="24"/></g><g class="f" transform="translate(1585 126) rotate(180)"><path class="g" d="M121,294l9,9-5,5-4-4-4,4-5-5Z" transform="translate(-109 -290)"/><path class="g" d="M121,306l-4,4h8Z" transform="translate(-109 -290)"/><rect class="b" width="24" height="24"/></g><g class="f" transform="translate(1572 135) rotate(180)"><path class="g" d="M121,294l9,9-5,5-4-4-4,4-5-5Z" transform="translate(-109 -290)"/><path class="g" d="M121,306l-4,4h8Z" transform="translate(-109 -290)"/><rect class="b" width="24" height="24"/></g></g><g transform="translate(17 63)"><g class="f" transform="translate(1548 95)"><path class="g" d="M121,294l9,9-5,5-4-4-4,4-5-5Z" transform="translate(-109 -290)"/><path class="g" d="M121,306l-4,4h8Z" transform="translate(-109 -290)"/><rect class="b" width="24" height="24"/></g><g class="f" transform="translate(1561 86)"><path class="g" d="M121,294l9,9-5,5-4-4-4,4-5-5Z" transform="translate(-109 -290)"/><path class="g" d="M121,306l-4,4h8Z" transform="translate(-109 -290)"/><rect class="b" width="24" height="24"/></g><g class="f" transform="translate(1585 126) rotate(180)"><path class="g" d="M121,294l9,9-5,5-4-4-4,4-5-5Z" transform="translate(-109 -290)"/><path class="g" d="M121,306l-4,4h8Z" transform="translate(-109 -290)"/><rect class="b" width="24" height="24"/></g><g class="f" transform="translate(1572 135) rotate(180)"><path class="g" d="M121,294l9,9-5,5-4-4-4,4-5-5Z" transform="translate(-109 -290)"/><path class="g" d="M121,306l-4,4h8Z" transform="translate(-109 -290)"/><rect class="b" width="24" height="24"/></g></g><g transform="translate(17 95)"><g class="f" transform="translate(1548 95)"><path class="g" d="M121,294l9,9-5,5-4-4-4,4-5-5Z" transform="translate(-109 -290)"/><path class="g" d="M121,306l-4,4h8Z" transform="translate(-109 -290)"/><rect class="b" width="24" height="24"/></g><g class="f" transform="translate(1561 86)"><path class="g" d="M121,294l9,9-5,5-4-4-4,4-5-5Z" transform="translate(-109 -290)"/><path class="g" d="M121,306l-4,4h8Z" transform="translate(-109 -290)"/><rect class="b" width="24" height="24"/></g><g class="f" transform="translate(1585 126) rotate(180)"><path class="g" d="M121,294l9,9-5,5-4-4-4,4-5-5Z" transform="translate(-109 -290)"/><path class="g" d="M121,306l-4,4h8Z" transform="translate(-109 -290)"/><rect class="b" width="24" height="24"/></g><g class="f" transform="translate(1572 135) rotate(180)"><path class="g" d="M121,294l9,9-5,5-4-4-4,4-5-5Z" transform="translate(-109 -290)"/><path class="g" d="M121,306l-4,4h8Z" transform="translate(-109 -290)"/><rect class="b" width="24" height="24"/></g></g><g transform="translate(43 63)"><g class="f" transform="translate(1548 95)"><path class="g" d="M121,294l9,9-5,5-4-4-4,4-5-5Z" transform="translate(-109 -290)"/><path class="g" d="M121,306l-4,4h8Z" transform="translate(-109 -290)"/><rect class="b" width="24" height="24"/></g><g class="f" transform="translate(1561 86)"><path class="g" d="M121,294l9,9-5,5-4-4-4,4-5-5Z" transform="translate(-109 -290)"/><path class="g" d="M121,306l-4,4h8Z" transform="translate(-109 -290)"/><rect class="b" width="24" height="24"/></g><g class="f" transform="translate(1585 126) rotate(180)"><path class="g" d="M121,294l9,9-5,5-4-4-4,4-5-5Z" transform="translate(-109 -290)"/><path class="g" d="M121,306l-4,4h8Z" transform="translate(-109 -290)"/><rect class="b" width="24" height="24"/></g><g class="f" transform="translate(1572 135) rotate(180)"><path class="g" d="M121,294l9,9-5,5-4-4-4,4-5-5Z" transform="translate(-109 -290)"/><path class="g" d="M121,306l-4,4h8Z" transform="translate(-109 -290)"/><rect class="b" width="24" height="24"/></g></g><g transform="translate(43 95)"><g class="f" transform="translate(1548 95)"><path class="g" d="M121,294l9,9-5,5-4-4-4,4-5-5Z" transform="translate(-109 -290)"/><path class="g" d="M121,306l-4,4h8Z" transform="translate(-109 -290)"/><rect class="b" width="24" height="24"/></g><g class="f" transform="translate(1561 86)"><path class="g" d="M121,294l9,9-5,5-4-4-4,4-5-5Z" transform="translate(-109 -290)"/><path class="g" d="M121,306l-4,4h8Z" transform="translate(-109 -290)"/><rect class="b" width="24" height="24"/></g><g class="f" transform="translate(1585 126) rotate(180)"><path class="g" d="M121,294l9,9-5,5-4-4-4,4-5-5Z" transform="translate(-109 -290)"/><path class="g" d="M121,306l-4,4h8Z" transform="translate(-109 -290)"/><rect class="b" width="24" height="24"/></g><g class="f" transform="translate(1572 135) rotate(180)"><path class="g" d="M121,294l9,9-5,5-4-4-4,4-5-5Z" transform="translate(-109 -290)"/><path class="g" d="M121,306l-4,4h8Z" transform="translate(-109 -290)"/><rect class="b" width="24" height="24"/></g></g><g transform="translate(69 63)"><g class="f" transform="translate(1548 95)"><path class="g" d="M121,294l9,9-5,5-4-4-4,4-5-5Z" transform="translate(-109 -290)"/><path class="g" d="M121,306l-4,4h8Z" transform="translate(-109 -290)"/><rect class="b" width="24" height="24"/></g><g class="f" transform="translate(1561 86)"><path class="g" d="M121,294l9,9-5,5-4-4-4,4-5-5Z" transform="translate(-109 -290)"/><path class="g" d="M121,306l-4,4h8Z" transform="translate(-109 -290)"/><rect class="b" width="24" height="24"/></g><g class="f" transform="translate(1585 126) rotate(180)"><path class="g" d="M121,294l9,9-5,5-4-4-4,4-5-5Z" transform="translate(-109 -290)"/><path class="g" d="M121,306l-4,4h8Z" transform="translate(-109 -290)"/><rect class="b" width="24" height="24"/></g><g class="f" transform="translate(1572 135) rotate(180)"><path class="g" d="M121,294l9,9-5,5-4-4-4,4-5-5Z" transform="translate(-109 -290)"/><path class="g" d="M121,306l-4,4h8Z" transform="translate(-109 -290)"/><rect class="b" width="24" height="24"/></g></g><g transform="translate(69 95)"><g class="f" transform="translate(1548 95)"><path class="g" d="M121,294l9,9-5,5-4-4-4,4-5-5Z" transform="translate(-109 -290)"/><path class="g" d="M121,306l-4,4h8Z" transform="translate(-109 -290)"/><rect class="b" width="24" height="24"/></g><g class="f" transform="translate(1561 86)"><path class="g" d="M121,294l9,9-5,5-4-4-4,4-5-5Z" transform="translate(-109 -290)"/><path class="g" d="M121,306l-4,4h8Z" transform="translate(-109 -290)"/><rect class="b" width="24" height="24"/></g><g class="f" transform="translate(1585 126) rotate(180)"><path class="g" d="M121,294l9,9-5,5-4-4-4,4-5-5Z" transform="translate(-109 -290)"/><path class="g" d="M121,306l-4,4h8Z" transform="translate(-109 -290)"/><rect class="b" width="24" height="24"/></g><g class="f" transform="translate(1572 135) rotate(180)"><path class="g" d="M121,294l9,9-5,5-4-4-4,4-5-5Z" transform="translate(-109 -290)"/><path class="g" d="M121,306l-4,4h8Z" transform="translate(-109 -290)"/><rect class="b" width="24" height="24"/></g></g></g></g><g class="h" transform="translate(1570 106)"><rect class="j" width="80" height="110"/><rect class="b" x="0.5" y="0.5" width="79" height="109"/></g></g><g transform="translate(1476)"><g class="i" transform="translate(94 80)"><path class="g" d="M116.333,330.667l6,6L119,340l-2.667-2.667L113.667,340l-3.333-3.333Z" transform="translate(-108.333 -328)"/><path class="g" d="M116.333,338.667l-2.667,2.667H119Z" transform="translate(-108.333 -328)"/><rect class="b" width="16" height="16"/></g><g class="i" transform="translate(172 237) rotate(180)"><path class="g" d="M116.333,330.667l6,6L119,340l-2.667-2.667L113.667,340l-3.333-3.333Z" transform="translate(-108.333 -328)"/><path class="g" d="M116.333,338.667l-2.667,2.667H119Z" transform="translate(-108.333 -328)"/><rect class="b" width="16" height="16"/></g></g></g></svg>